G04*
G04 #@! TF.GenerationSoftware,Altium Limited,Altium Designer,19.1.5 (86)*
G04*
G04 Layer_Color=16711935*
%FSLAX25Y25*%
%MOIN*%
G70*
G01*
G75*
%ADD101C,0.00197*%
%ADD102C,0.00300*%
D101*
X102082Y241890D02*
X101417Y242555D01*
X100752Y241890D01*
X101417Y241225D01*
X102082Y241890D01*
X37318Y312953D02*
X36654Y313618D01*
X35989Y312953D01*
X36654Y312288D01*
X37318Y312953D01*
X159090Y57323D02*
X158425Y57988D01*
X157760Y57323D01*
X158425Y56658D01*
X159090Y57323D01*
X259484Y63228D02*
X258819Y63893D01*
X258154Y63228D01*
X258819Y62564D01*
X259484Y63228D01*
X272279Y72402D02*
X271614Y73066D01*
X270949Y72402D01*
X271614Y71737D01*
X272279Y72402D01*
X260468Y110472D02*
X259803Y111137D01*
X259138Y110472D01*
X259803Y109808D01*
X260468Y110472D01*
X227905Y51063D02*
X227340Y51841D01*
X226425Y51544D01*
Y50582D01*
X227340Y50285D01*
X227905Y51063D01*
X77362Y52559D02*
X76917Y53483D01*
X75918Y53711D01*
X75117Y53071D01*
Y52047D01*
X75918Y51408D01*
X76917Y51636D01*
X77362Y52559D01*
X74362Y39252D02*
X73796Y40030D01*
X72881Y39733D01*
Y38771D01*
X73796Y38474D01*
X74362Y39252D01*
X127983Y51850D02*
X127594Y52791D01*
X126654Y53180D01*
X125713Y52791D01*
X125324Y51850D01*
X125713Y50910D01*
X126654Y50521D01*
X127594Y50910D01*
X127983Y51850D01*
X176098Y38425D02*
X175433Y39090D01*
X174768Y38425D01*
X175433Y37760D01*
X176098Y38425D01*
X183500Y36378D02*
X182835Y37043D01*
X182170Y36378D01*
X182835Y35713D01*
X183500Y36378D01*
X242059Y76772D02*
X242031Y77770D01*
X241947Y78765D01*
X241806Y79755D01*
X241609Y80734D01*
X241357Y81701D01*
X241051Y82652D01*
X240692Y83584D01*
X240281Y84494D01*
X239818Y85379D01*
X239306Y86237D01*
X238747Y87065D01*
X238142Y87860D01*
X237492Y88619D01*
X236801Y89340D01*
X236070Y90021D01*
X235302Y90659D01*
X234499Y91254D01*
X233664Y91801D01*
X232798Y92301D01*
X231906Y92750D01*
X230990Y93149D01*
X230053Y93495D01*
X229098Y93787D01*
X228128Y94025D01*
X227146Y94208D01*
X226155Y94335D01*
X225159Y94406D01*
X224160Y94420D01*
X223162Y94377D01*
X222168Y94279D01*
X221181Y94124D01*
X220204Y93913D01*
X219241Y93648D01*
X218295Y93329D01*
X217368Y92956D01*
X216463Y92532D01*
X215584Y92057D01*
X214734Y91533D01*
X213914Y90962D01*
X213128Y90346D01*
X212378Y89686D01*
X211667Y88984D01*
X210996Y88244D01*
X210369Y87467D01*
X209786Y86655D01*
X209250Y85812D01*
X208763Y84940D01*
X208326Y84042D01*
X207941Y83120D01*
X207608Y82178D01*
X207329Y81219D01*
X207105Y80246D01*
X206936Y79261D01*
X206823Y78268D01*
X206767Y77271D01*
Y76272D01*
X206823Y75275D01*
X206936Y74282D01*
X207105Y73298D01*
X207329Y72324D01*
X207608Y71365D01*
X207941Y70423D01*
X208326Y69502D01*
X208763Y68603D01*
X209250Y67731D01*
X209786Y66888D01*
X210369Y66077D01*
X210996Y65299D01*
X211667Y64559D01*
X212378Y63858D01*
X213128Y63198D01*
X213914Y62581D01*
X214734Y62010D01*
X215584Y61486D01*
X216463Y61011D01*
X217368Y60587D01*
X218295Y60215D01*
X219241Y59895D01*
X220204Y59630D01*
X221181Y59420D01*
X222167Y59265D01*
X223162Y59166D01*
X224160Y59123D01*
X225159Y59137D01*
X226155Y59208D01*
X227146Y59335D01*
X228128Y59518D01*
X229098Y59756D01*
X230053Y60048D01*
X230990Y60394D01*
X231906Y60793D01*
X232798Y61243D01*
X233664Y61742D01*
X234499Y62290D01*
X235302Y62884D01*
X236070Y63522D01*
X236801Y64203D01*
X237492Y64924D01*
X238142Y65684D01*
X238747Y66478D01*
X239306Y67306D01*
X239818Y68164D01*
X240281Y69049D01*
X240692Y69960D01*
X241051Y70892D01*
X241357Y71843D01*
X241609Y72809D01*
X241806Y73789D01*
X241947Y74778D01*
X242031Y75773D01*
X242059Y76772D01*
X238598D02*
X238563Y77772D01*
X238457Y78768D01*
X238281Y79754D01*
X238036Y80725D01*
X237723Y81677D01*
X237344Y82604D01*
X236901Y83502D01*
X236395Y84366D01*
X235829Y85192D01*
X235207Y85977D01*
X234531Y86716D01*
X233804Y87405D01*
X233031Y88041D01*
X232214Y88621D01*
X231359Y89142D01*
X230469Y89601D01*
X229549Y89997D01*
X228603Y90327D01*
X227637Y90589D01*
X226654Y90782D01*
X225660Y90905D01*
X224660Y90958D01*
X223658Y90941D01*
X222661Y90852D01*
X221672Y90694D01*
X220697Y90466D01*
X219740Y90170D01*
X218807Y89807D01*
X217901Y89380D01*
X217028Y88889D01*
X216192Y88338D01*
X215396Y87730D01*
X214646Y87067D01*
X213944Y86352D01*
X213294Y85590D01*
X212700Y84784D01*
X212163Y83938D01*
X211688Y83057D01*
X211277Y82144D01*
X210931Y81204D01*
X210652Y80242D01*
X210441Y79263D01*
X210300Y78271D01*
X210229Y77272D01*
Y76271D01*
X210300Y75272D01*
X210441Y74280D01*
X210652Y73301D01*
X210931Y72339D01*
X211277Y71400D01*
X211688Y70487D01*
X212163Y69605D01*
X212700Y68759D01*
X213294Y67953D01*
X213944Y67191D01*
X214646Y66477D01*
X215396Y65813D01*
X216192Y65205D01*
X217028Y64654D01*
X217901Y64164D01*
X218807Y63736D01*
X219740Y63373D01*
X220697Y63077D01*
X221672Y62849D01*
X222661Y62691D01*
X223658Y62603D01*
X224660Y62585D01*
X225660Y62638D01*
X226654Y62761D01*
X227636Y62955D01*
X228603Y63217D01*
X229549Y63546D01*
X230469Y63942D01*
X231359Y64401D01*
X232214Y64922D01*
X233031Y65502D01*
X233804Y66138D01*
X234531Y66828D01*
X235207Y67566D01*
X235829Y68351D01*
X236395Y69177D01*
X236901Y70042D01*
X237344Y70940D01*
X237723Y71867D01*
X238036Y72818D01*
X238281Y73789D01*
X238457Y74775D01*
X238563Y75771D01*
X238598Y76772D01*
X246192Y80647D02*
X246188Y81600D01*
X246185Y81750D02*
X245642Y82328D01*
X245086Y81763D01*
X245033Y72512D02*
X245141Y72897D01*
X245033Y72512D02*
X243901Y72365D01*
X242771Y72206D01*
X241643Y72035D01*
X203883Y81722D02*
X203275Y82224D01*
X202786Y81604D01*
X203076Y71573D02*
X204174Y71593D01*
X205270Y71663D01*
X206361Y71786D01*
X207446Y71960D01*
X203054Y72571D02*
X203076Y71573D01*
X162303Y137504D02*
X170374Y137506D01*
X162303Y137504D02*
X170374Y137506D01*
X162303Y143990D02*
X170374Y143992D01*
X162303D02*
X170374D01*
X172736Y137500D02*
Y143996D01*
X170374D02*
X172736D01*
X170374Y137500D02*
Y143996D01*
Y137500D02*
X172736D01*
X159941Y143996D02*
X162303D01*
Y137500D02*
Y143996D01*
X159941Y137500D02*
Y143996D01*
Y137500D02*
X162303D01*
Y125693D02*
X170374Y125695D01*
X162303Y125693D02*
X170374Y125695D01*
X162303Y132179D02*
X170374Y132181D01*
X162303D02*
X170374D01*
X172736Y125689D02*
Y132185D01*
X170374D02*
X172736D01*
X170374Y125689D02*
Y132185D01*
Y125689D02*
X172736D01*
X159941Y132185D02*
X162303D01*
Y125689D02*
Y132185D01*
X159941Y125689D02*
Y132185D01*
Y125689D02*
X162303D01*
X114272Y268012D02*
X116634D01*
Y261516D02*
Y268012D01*
X114272Y261516D02*
Y268012D01*
Y261516D02*
X116634D01*
X103839Y268012D02*
X106201D01*
Y261516D02*
Y268012D01*
X103839Y261516D02*
X106201D01*
X103839D02*
Y268012D01*
X106201Y261520D02*
X114272D01*
X106201D02*
X114272Y261522D01*
X106201Y268006D02*
X114272Y268008D01*
X106201Y268006D02*
X114272Y268008D01*
X105905Y241378D02*
Y243268D01*
Y248858D02*
Y250748D01*
X94882Y245118D02*
Y247008D01*
X95707Y245118D02*
Y247008D01*
X105080Y248858D02*
Y250748D01*
Y241378D02*
Y243268D01*
X104722Y248858D02*
Y250748D01*
X96065Y245118D02*
Y247008D01*
X104722Y241378D02*
Y243268D01*
X104623Y241378D02*
Y243268D01*
X94882Y245118D02*
X97835D01*
X97145D02*
Y247008D01*
X94882D02*
X97835D01*
X96165Y245118D02*
Y247008D01*
X102953Y248858D02*
X105905D01*
X104623D02*
Y250748D01*
X102953Y250748D02*
X105905Y250748D01*
X103642Y248858D02*
Y250748D01*
X102953Y243268D02*
X105905D01*
X102953Y241378D02*
X105905Y241378D01*
X103642D02*
Y243268D01*
X97835Y251772D02*
X102953D01*
Y240354D02*
Y251772D01*
X102662Y251481D02*
X102953Y251772D01*
X97835D02*
X98125Y251481D01*
X97835Y240354D02*
Y251772D01*
X102662Y240645D02*
X102953Y240354D01*
X97835D02*
X98125Y240645D01*
X97835Y240354D02*
X102953D01*
X98125Y251481D02*
X102662D01*
X98125Y240645D02*
Y251481D01*
Y240645D02*
X102662D01*
Y251481D01*
X29232Y328248D02*
Y330610D01*
Y328248D02*
X35728D01*
X29232Y330610D02*
X35728D01*
Y328248D02*
Y330610D01*
X29232Y338681D02*
Y341043D01*
Y338681D02*
X35728D01*
Y341043D01*
X29232D02*
X35728D01*
X35724Y330610D02*
Y338681D01*
X35723Y330610D02*
X35724Y338681D01*
X29236Y330610D02*
X29238Y338681D01*
X29236Y330610D02*
X29238Y338681D01*
X35276Y308465D02*
X37165D01*
X27795D02*
X29685D01*
X31535Y319488D02*
X33425D01*
X31535Y318663D02*
X33425D01*
X27795Y309290D02*
X29685D01*
X35276D02*
X37165D01*
X27795Y309648D02*
X29685D01*
X31535Y318305D02*
X33425D01*
X35276Y309648D02*
X37165D01*
X35276Y309747D02*
X37165D01*
X33425Y316535D02*
Y319488D01*
X31535Y317225D02*
X33425D01*
X31535Y316535D02*
Y319488D01*
Y318206D02*
X33425D01*
X29685Y308465D02*
Y311417D01*
X27795Y309747D02*
X29685D01*
X27795Y308465D02*
X27795Y311417D01*
X27795Y310728D02*
X29685D01*
X35276Y308465D02*
Y311417D01*
X37165D02*
X37165Y308465D01*
X35276Y310728D02*
X37165D01*
X26772Y311417D02*
Y316535D01*
Y311417D02*
X38189D01*
X26772D02*
X27062Y311708D01*
X26772Y316535D02*
X27062Y316245D01*
X26772Y316535D02*
X38189D01*
X37898Y311708D02*
X38189Y311417D01*
X37898Y316245D02*
X38189Y316535D01*
Y311417D02*
Y316535D01*
X27062Y311708D02*
Y316245D01*
X37898D01*
Y311708D02*
Y316245D01*
X27062Y311708D02*
X37898D01*
X157180Y47731D02*
Y58568D01*
X161717D01*
Y47731D02*
Y58568D01*
X157180Y47731D02*
X161717D01*
X156890Y58858D02*
X162008D01*
X161717Y58568D02*
X162008Y58858D01*
X156890D02*
X157180Y58568D01*
X162008Y47441D02*
Y58858D01*
X161717Y47731D02*
X162008Y47441D01*
X156890D02*
X157180Y47731D01*
X156890Y47441D02*
Y58858D01*
Y47441D02*
X162008D01*
X156200Y55945D02*
Y57835D01*
X153937D02*
X156890Y57835D01*
X153937Y55945D02*
X156890D01*
X156200Y48465D02*
Y50354D01*
X153937Y48465D02*
X156890Y48465D01*
X155220Y48465D02*
Y50354D01*
X153937D02*
X156890D01*
X163678Y52205D02*
Y54094D01*
X162008Y52205D02*
X164961D01*
X162698D02*
Y54094D01*
X162008D02*
X164961D01*
X155220Y55945D02*
Y57835D01*
X155120Y55945D02*
Y57835D01*
X163777Y52205D02*
Y54094D01*
X155120Y48465D02*
Y50354D01*
X154762Y55945D02*
Y57835D01*
Y48465D02*
Y50354D01*
X164135Y52205D02*
Y54094D01*
X164961Y52205D02*
Y54094D01*
X153937Y48465D02*
Y50354D01*
Y55945D02*
Y57835D01*
X257574Y53637D02*
Y64473D01*
X262111D01*
Y53637D02*
Y64473D01*
X257574Y53637D02*
X262111D01*
X257283Y64764D02*
X262402D01*
X262111Y64473D02*
X262402Y64764D01*
X257283D02*
X257574Y64473D01*
X262402Y53347D02*
Y64764D01*
X262111Y53637D02*
X262402Y53347D01*
X257283D02*
X257574Y53637D01*
X257283Y53347D02*
Y64764D01*
Y53347D02*
X262402D01*
X256594Y61850D02*
Y63740D01*
X254331D02*
X257283Y63740D01*
X254331Y61850D02*
X257283D01*
X256594Y54370D02*
Y56260D01*
X254331Y54370D02*
X257283Y54370D01*
X255613Y54370D02*
Y56260D01*
X254331D02*
X257283D01*
X264072Y58110D02*
Y60000D01*
X262402Y58110D02*
X265354D01*
X263091D02*
Y60000D01*
X262402D02*
X265354D01*
X255613Y61850D02*
Y63740D01*
X255514Y61850D02*
Y63740D01*
X264171Y58110D02*
Y60000D01*
X255514Y54370D02*
Y56260D01*
X255156Y61850D02*
Y63740D01*
Y54370D02*
Y56260D01*
X264529Y58110D02*
Y60000D01*
X265354Y58110D02*
Y60000D01*
X254331Y54370D02*
Y56260D01*
Y61850D02*
Y63740D01*
X275492Y55811D02*
X283563Y55813D01*
X275492Y55811D02*
X283563Y55813D01*
X275492Y62297D02*
X283563Y62299D01*
X275492D02*
X283563D01*
X285925Y55807D02*
Y62303D01*
X283563D02*
X285925D01*
X283563Y55807D02*
Y62303D01*
Y55807D02*
X285925D01*
X273130Y62303D02*
X275492D01*
Y55807D02*
Y62303D01*
X273130Y55807D02*
Y62303D01*
Y55807D02*
X275492D01*
X233366Y137402D02*
X239075D01*
X233366Y138583D02*
X239075D01*
X233366Y137402D02*
Y138583D01*
X239075Y137402D02*
Y138583D01*
X233366Y144882D02*
Y146063D01*
X239075Y144882D02*
Y146063D01*
X233366D02*
X239075D01*
X233366Y144882D02*
X239075D01*
X233445Y138583D02*
Y144882D01*
X238996Y138583D02*
Y144882D01*
X57972Y238478D02*
X66043Y238480D01*
X57972Y238478D02*
X66043Y238480D01*
X57972Y231992D02*
X66043Y231994D01*
X57972Y231992D02*
X66043D01*
X55610Y231988D02*
Y238484D01*
Y231988D02*
X57972D01*
Y238484D01*
X55610D02*
X57972D01*
X66043Y231988D02*
X68405D01*
X66043D02*
Y238484D01*
X68405Y231988D02*
Y238484D01*
X66043D02*
X68405D01*
X65847Y179423D02*
X73917Y179425D01*
X65847Y179423D02*
X73917Y179425D01*
X65847Y172937D02*
X73917Y172939D01*
X65847Y172937D02*
X73917D01*
X63484Y172933D02*
Y179429D01*
Y172933D02*
X65847D01*
Y179429D01*
X63484D02*
X65847D01*
X73917Y172933D02*
X76279D01*
X73917D02*
Y179429D01*
X76279Y172933D02*
Y179429D01*
X73917D02*
X76279D01*
X23524Y329030D02*
X31594Y329031D01*
X23524Y329030D02*
X31594Y329031D01*
X23524Y322543D02*
X31594Y322545D01*
X23524Y322543D02*
X31594D01*
X21161Y322539D02*
Y329035D01*
Y322539D02*
X23524D01*
Y329035D01*
X21161D02*
X23524D01*
X31594Y322539D02*
X33957D01*
X31594D02*
Y329035D01*
X33957Y322539D02*
Y329035D01*
X31594D02*
X33957D01*
X23524Y312701D02*
X31594Y312703D01*
X23524Y312701D02*
X31594Y312703D01*
X23524Y319187D02*
X31594Y319189D01*
X23524D02*
X31594D01*
X33957Y312697D02*
Y319193D01*
X31594D02*
X33957D01*
X31594Y312697D02*
Y319193D01*
Y312697D02*
X33957D01*
X21161Y319193D02*
X23524D01*
Y312697D02*
Y319193D01*
X21161Y312697D02*
Y319193D01*
Y312697D02*
X23524D01*
Y309345D02*
X31594Y309347D01*
X23524Y309345D02*
X31594Y309347D01*
X23524Y302858D02*
X31594Y302860D01*
X23524Y302858D02*
X31594D01*
X21161Y302854D02*
Y309350D01*
Y302854D02*
X23524D01*
Y309350D01*
X21161D02*
X23524D01*
X31594Y302854D02*
X33957D01*
X31594D02*
Y309350D01*
X33957Y302854D02*
Y309350D01*
X31594D02*
X33957D01*
X43209Y302858D02*
X51279Y302860D01*
X43209Y302858D02*
X51279Y302860D01*
X43209Y309345D02*
X51279Y309347D01*
X43209D02*
X51279D01*
X53642Y302854D02*
Y309350D01*
X51279D02*
X53642D01*
X51279Y302854D02*
Y309350D01*
Y302854D02*
X53642D01*
X40846Y309350D02*
X43209D01*
Y302854D02*
Y309350D01*
X40846Y302854D02*
Y309350D01*
Y302854D02*
X43209D01*
X44193Y289079D02*
X52264Y289081D01*
X44193Y289079D02*
X52264Y289081D01*
X44193Y295565D02*
X52264Y295567D01*
X44193D02*
X52264D01*
X54626Y289075D02*
Y295571D01*
X52264D02*
X54626D01*
X52264Y289075D02*
Y295571D01*
Y289075D02*
X54626D01*
X41831Y295571D02*
X44193D01*
Y289075D02*
Y295571D01*
X41831Y289075D02*
Y295571D01*
Y289075D02*
X44193D01*
X23524Y295565D02*
X31594Y295567D01*
X23524Y295565D02*
X31594Y295567D01*
X23524Y289079D02*
X31594Y289081D01*
X23524Y289079D02*
X31594D01*
X21161Y289075D02*
Y295571D01*
Y289075D02*
X23524D01*
Y295571D01*
X21161D02*
X23524D01*
X31594Y289075D02*
X33957D01*
X31594D02*
Y295571D01*
X33957Y289075D02*
Y295571D01*
X31594D02*
X33957D01*
X23524Y285722D02*
X31594Y285724D01*
X23524Y285722D02*
X31594Y285724D01*
X23524Y279236D02*
X31594Y279238D01*
X23524Y279236D02*
X31594D01*
X21161Y279232D02*
Y285728D01*
Y279232D02*
X23524D01*
Y285728D01*
X21161D02*
X23524D01*
X31594Y279232D02*
X33957D01*
X31594D02*
Y285728D01*
X33957Y279232D02*
Y285728D01*
X31594D02*
X33957D01*
X44193Y279236D02*
X52264Y279238D01*
X44193Y279236D02*
X52264Y279238D01*
X44193Y285722D02*
X52264Y285724D01*
X44193D02*
X52264D01*
X54626Y279232D02*
Y285728D01*
X52264D02*
X54626D01*
X52264Y279232D02*
Y285728D01*
Y279232D02*
X54626D01*
X41831Y285728D02*
X44193D01*
Y279232D02*
Y285728D01*
X41831Y279232D02*
Y285728D01*
Y279232D02*
X44193D01*
X23524Y269394D02*
X31594Y269396D01*
X23524Y269394D02*
X31594Y269396D01*
X23524Y275880D02*
X31594Y275882D01*
X23524D02*
X31594D01*
X33957Y269390D02*
Y275886D01*
X31594D02*
X33957D01*
X31594Y269390D02*
Y275886D01*
Y269390D02*
X33957D01*
X21161Y275886D02*
X23524D01*
Y269390D02*
Y275886D01*
X21161Y269390D02*
Y275886D01*
Y269390D02*
X23524D01*
Y249709D02*
X31594Y249711D01*
X23524Y249709D02*
X31594Y249711D01*
X23524Y256195D02*
X31594Y256197D01*
X23524D02*
X31594D01*
X33957Y249705D02*
Y256201D01*
X31594D02*
X33957D01*
X31594Y249705D02*
Y256201D01*
Y249705D02*
X33957D01*
X21161Y256201D02*
X23524D01*
Y249705D02*
Y256201D01*
X21161Y249705D02*
Y256201D01*
Y249705D02*
X23524D01*
Y246352D02*
X31594Y246354D01*
X23524Y246352D02*
X31594Y246354D01*
X23524Y239866D02*
X31594Y239868D01*
X23524Y239866D02*
X31594D01*
X21161Y239862D02*
Y246358D01*
Y239862D02*
X23524D01*
Y246358D01*
X21161D02*
X23524D01*
X31594Y239862D02*
X33957D01*
X31594D02*
Y246358D01*
X33957Y239862D02*
Y246358D01*
X31594D02*
X33957D01*
X23524Y230024D02*
X31594Y230026D01*
X23524Y230024D02*
X31594Y230026D01*
X23524Y236510D02*
X31594Y236512D01*
X23524D02*
X31594D01*
X33957Y230020D02*
Y236516D01*
X31594D02*
X33957D01*
X31594Y230020D02*
Y236516D01*
Y230020D02*
X33957D01*
X21161Y236516D02*
X23524D01*
Y230020D02*
Y236516D01*
X21161Y230020D02*
Y236516D01*
Y230020D02*
X23524D01*
Y225683D02*
X31594Y225685D01*
X23524Y225683D02*
X31594Y225685D01*
X23524Y219197D02*
X31594Y219199D01*
X23524Y219197D02*
X31594D01*
X21161Y219193D02*
Y225689D01*
Y219193D02*
X23524D01*
Y225689D01*
X21161D02*
X23524D01*
X31594Y219193D02*
X33957D01*
X31594D02*
Y225689D01*
X33957Y219193D02*
Y225689D01*
X31594D02*
X33957D01*
X23524Y215841D02*
X31594Y215843D01*
X23524Y215841D02*
X31594Y215843D01*
X23524Y209354D02*
X31594Y209356D01*
X23524Y209354D02*
X31594D01*
X21161Y209350D02*
Y215846D01*
Y209350D02*
X23524D01*
Y215846D01*
X21161D02*
X23524D01*
X31594Y209350D02*
X33957D01*
X31594D02*
Y215846D01*
X33957Y209350D02*
Y215846D01*
X31594D02*
X33957D01*
X23524Y205998D02*
X31594Y206000D01*
X23524Y205998D02*
X31594Y206000D01*
X23524Y199512D02*
X31594Y199514D01*
X23524Y199512D02*
X31594D01*
X21161Y199508D02*
Y206004D01*
Y199508D02*
X23524D01*
Y206004D01*
X21161D02*
X23524D01*
X31594Y199508D02*
X33957D01*
X31594D02*
Y206004D01*
X33957Y199508D02*
Y206004D01*
X31594D02*
X33957D01*
X43209Y199512D02*
X51279Y199514D01*
X43209Y199512D02*
X51279Y199514D01*
X43209Y205998D02*
X51279Y206000D01*
X43209D02*
X51279D01*
X53642Y199508D02*
Y206004D01*
X51279D02*
X53642D01*
X51279Y199508D02*
Y206004D01*
Y199508D02*
X53642D01*
X40846Y206004D02*
X43209D01*
Y199508D02*
Y206004D01*
X40846Y199508D02*
Y206004D01*
Y199508D02*
X43209D01*
X270369Y71157D02*
X281206D01*
X270369D02*
Y75694D01*
X281206D01*
Y71157D02*
Y75694D01*
X270079Y70866D02*
Y75984D01*
X270369Y75694D01*
X270079Y70866D02*
X270369Y71157D01*
X270079Y75984D02*
X281496D01*
X281206Y75694D02*
X281496Y75984D01*
X281206Y71157D02*
X281496Y70866D01*
X270079D02*
X281496D01*
Y75984D01*
X271102Y70177D02*
X272992D01*
X271102Y67913D02*
X271102Y70866D01*
X272992Y67913D02*
Y70866D01*
X278583Y70177D02*
X280472D01*
X280472Y70866D02*
X280472Y67913D01*
X278583Y69196D02*
X280472D01*
X278583Y67913D02*
Y70866D01*
X274843Y77654D02*
X276732D01*
Y75984D02*
Y78937D01*
X274843Y76674D02*
X276732D01*
X274843Y75984D02*
Y78937D01*
X271102Y69196D02*
X272992D01*
X271102Y69097D02*
X272992D01*
X274843Y77754D02*
X276732D01*
X278583Y69097D02*
X280472D01*
X271102Y68739D02*
X272992D01*
X278583D02*
X280472D01*
X274843Y78111D02*
X276732D01*
X274843Y78937D02*
X276732D01*
X278583Y67913D02*
X280472D01*
X271102D02*
X272992D01*
X258558Y100881D02*
Y111717D01*
X263095D01*
Y100881D02*
Y111717D01*
X258558Y100881D02*
X263095D01*
X258268Y112008D02*
X263386D01*
X263095Y111717D02*
X263386Y112008D01*
X258268D02*
X258558Y111717D01*
X263386Y100591D02*
Y112008D01*
X263095Y100881D02*
X263386Y100591D01*
X258268D02*
X258558Y100881D01*
X258268Y100591D02*
Y112008D01*
Y100591D02*
X263386D01*
X257578Y109095D02*
Y110984D01*
X255315D02*
X258268Y110984D01*
X255315Y109095D02*
X258268D01*
X257578Y101614D02*
Y103504D01*
X255315Y101614D02*
X258268Y101614D01*
X256597Y101614D02*
Y103504D01*
X255315D02*
X258268D01*
X265056Y105354D02*
Y107244D01*
X263386Y105354D02*
X266339D01*
X264075D02*
Y107244D01*
X263386D02*
X266339D01*
X256597Y109095D02*
Y110984D01*
X256498Y109095D02*
Y110984D01*
X265155Y105354D02*
Y107244D01*
X256498Y101614D02*
Y103504D01*
X256140Y109095D02*
Y110984D01*
Y101614D02*
Y103504D01*
X265513Y105354D02*
Y107244D01*
X266339Y105354D02*
Y107244D01*
X255315Y101614D02*
Y103504D01*
Y109095D02*
Y110984D01*
X239075Y114463D02*
X247146Y114465D01*
X239075Y114463D02*
X247146Y114465D01*
X239075Y107976D02*
X247146Y107978D01*
X239075Y107976D02*
X247146D01*
X236713Y107972D02*
Y114469D01*
Y107972D02*
X239075D01*
Y114469D01*
X236713D02*
X239075D01*
X247146Y107972D02*
X249508D01*
X247146D02*
Y114469D01*
X249508Y107972D02*
Y114469D01*
X247146D02*
X249508D01*
X70729Y88681D02*
X70731Y80610D01*
X70729Y88681D02*
X70731Y80610D01*
X77215Y88681D02*
X77217Y80610D01*
Y88681D01*
X70725Y78248D02*
X77221D01*
Y80610D01*
X70725D02*
X77221D01*
X70725Y78248D02*
Y80610D01*
X77221Y88681D02*
Y91043D01*
X70725Y88681D02*
X77221D01*
X70725Y91043D02*
X77221D01*
X70725Y88681D02*
Y91043D01*
X44505Y153703D02*
X48542Y149666D01*
X43670Y152867D02*
X47707Y148831D01*
X48542Y149666D01*
X43670Y152867D02*
X44505Y153703D01*
X42417Y143542D02*
X43253Y144377D01*
X38381Y147578D02*
X39216Y148413D01*
X38381Y147578D02*
X42417Y143542D01*
X39216Y148413D02*
X43253Y144377D01*
X43197Y144432D02*
X47651Y148887D01*
X39272Y148358D02*
X43726Y152812D01*
X186122Y121653D02*
X191831D01*
X186122Y122835D02*
X191831D01*
X186122Y121653D02*
Y122835D01*
X191831Y121653D02*
Y122835D01*
X186122Y129134D02*
Y130315D01*
X191831Y129134D02*
Y130315D01*
X186122D02*
X191831D01*
X186122Y129134D02*
X191831D01*
X186201Y122835D02*
Y129134D01*
X191752Y122835D02*
Y129134D01*
X152268Y98524D02*
X152270Y90453D01*
X152268Y98524D02*
X152270Y90453D01*
X158754Y98524D02*
X158756Y90453D01*
Y98524D01*
X152264Y88090D02*
X158760D01*
Y90453D01*
X152264D02*
X158760D01*
X152264Y88090D02*
Y90453D01*
X158760Y98524D02*
Y100886D01*
X152264Y98524D02*
X158760D01*
X152264Y100886D02*
X158760D01*
X152264Y98524D02*
Y100886D01*
X169581Y98721D02*
X169583Y90650D01*
X169581Y98721D02*
X169583Y90650D01*
X163094Y98721D02*
X163096Y90650D01*
X163094D02*
Y98721D01*
X163091Y101083D02*
X169587D01*
X163091Y98721D02*
Y101083D01*
Y98721D02*
X169587D01*
Y101083D01*
X163091Y88287D02*
Y90650D01*
X169587D01*
X163091Y88287D02*
X169587D01*
Y90650D01*
X79939Y109411D02*
X83975Y105375D01*
X79103Y108576D02*
X83140Y104540D01*
X83975Y105375D01*
X79103Y108576D02*
X79939Y109411D01*
X77851Y99250D02*
X78686Y100085D01*
X73814Y103287D02*
X74649Y104122D01*
X73814Y103287D02*
X77851Y99250D01*
X74649Y104122D02*
X78686Y100085D01*
X78630Y100141D02*
X83084Y104595D01*
X74705Y104066D02*
X79159Y108520D01*
X240551Y34646D02*
X247638D01*
X240551Y36614D02*
X247638D01*
X240551Y34646D02*
Y36614D01*
X247638Y34646D02*
Y36614D01*
X240551Y48031D02*
X247638D01*
X240551Y46063D02*
X247638D01*
X240551D02*
Y48031D01*
X247638Y46063D02*
Y48031D01*
X240630Y36614D02*
Y46063D01*
X247559Y36614D02*
Y46063D01*
X233858Y50197D02*
Y51772D01*
Y46457D02*
Y48031D01*
X222835Y50197D02*
Y51772D01*
X233858Y42717D02*
Y44291D01*
X222835Y46457D02*
Y48031D01*
Y42717D02*
Y44291D01*
X223657Y50197D02*
Y51772D01*
X233036Y50197D02*
Y51772D01*
Y46457D02*
Y48031D01*
X223657Y46457D02*
Y48031D01*
X233036Y42717D02*
Y44291D01*
X223657Y42717D02*
Y44291D01*
X224016Y50197D02*
Y51772D01*
X232677Y50197D02*
Y51772D01*
Y46457D02*
Y48031D01*
X224016Y46457D02*
Y48031D01*
X232677Y42717D02*
Y44291D01*
X224016Y42717D02*
Y44291D01*
X224041Y50197D02*
Y51772D01*
Y46457D02*
Y48031D01*
X231496Y50197D02*
X233858D01*
X231496Y51772D02*
X233858D01*
X231668Y50197D02*
Y51772D01*
X232652Y50197D02*
Y51772D01*
X222835D02*
X225197D01*
X225025Y50197D02*
Y51772D01*
X222835Y50197D02*
X225197D01*
X222835Y48031D02*
X225197Y48031D01*
X225025Y46457D02*
Y48031D01*
X222835Y46457D02*
X225197Y46457D01*
X232652Y46457D02*
Y48031D01*
X231496Y46457D02*
X233858Y46457D01*
X231668Y46457D02*
Y48031D01*
X231496D02*
X233858Y48031D01*
X224041Y42717D02*
Y44291D01*
X232652Y42717D02*
Y44291D01*
X231496Y42717D02*
X233858D01*
X231668D02*
Y44291D01*
X231496D02*
X233858D01*
X222835D02*
X225197D01*
X225025Y42717D02*
Y44291D01*
X222835Y42717D02*
X225197D01*
X231496Y41535D02*
Y52953D01*
X225197Y41535D02*
Y52953D01*
X225515Y52635D01*
X231178D02*
X231496Y52953D01*
X225197D02*
X231496D01*
X225197Y41535D02*
X225515Y41854D01*
X225197Y41535D02*
X231496D01*
X231178Y41854D02*
X231496Y41535D01*
X225515Y41854D02*
X231178D01*
Y52635D01*
X225515D02*
X231178D01*
X225515Y41854D02*
Y52635D01*
X58071Y53248D02*
Y54429D01*
Y58366D02*
Y59547D01*
X83661Y58366D02*
Y59547D01*
Y53248D02*
Y54429D01*
Y50689D02*
Y51870D01*
X58071Y50689D02*
Y51870D01*
Y55807D02*
Y56988D01*
X83661Y55807D02*
Y56988D01*
X82043Y55807D02*
Y56988D01*
Y50689D02*
Y51870D01*
X59690Y55807D02*
Y56988D01*
Y50689D02*
Y51870D01*
X82043Y58366D02*
Y59547D01*
X59690Y53248D02*
Y54429D01*
X82043Y53248D02*
Y54429D01*
X59690Y58366D02*
Y59547D01*
X81870Y53248D02*
Y54429D01*
X59863Y53248D02*
Y54429D01*
Y58366D02*
Y59547D01*
X81870Y58366D02*
Y59547D01*
Y55807D02*
Y56988D01*
X59863Y55807D02*
Y56988D01*
Y50689D02*
Y51870D01*
X81870Y50689D02*
Y51870D01*
X60263Y50689D02*
Y51870D01*
X81469Y53248D02*
Y54429D01*
X60263Y58366D02*
Y59547D01*
X58071Y53248D02*
X62008D01*
X58071Y54429D02*
X62008D01*
X61023Y53248D02*
Y54429D01*
X60263Y53248D02*
Y54429D01*
Y55807D02*
Y56988D01*
X58071Y51870D02*
X62008D01*
X58071Y50689D02*
X62008D01*
X61023D02*
Y51870D01*
X79724Y54429D02*
X83661D01*
X79724Y53248D02*
X83661D01*
X80709D02*
Y54429D01*
X79724Y56988D02*
X83661D01*
X80709Y55807D02*
Y56988D01*
X79724Y55807D02*
X83661D01*
X81469D02*
Y56988D01*
X79724Y59547D02*
X83661D01*
X80709Y58366D02*
Y59547D01*
X79724Y58366D02*
X83661D01*
X81469D02*
Y59547D01*
X58071Y58366D02*
X62008D01*
X58071Y59547D02*
X62008D01*
X61023Y58366D02*
Y59547D01*
X79724Y51870D02*
X83661D01*
X80709Y50689D02*
Y51870D01*
X79724Y50689D02*
X83661D01*
X81469D02*
Y51870D01*
X58071Y55807D02*
X62008D01*
X58071Y56988D02*
X62008D01*
X61023Y55807D02*
Y56988D01*
X62008Y49016D02*
X79724D01*
X62257Y49265D02*
X79475D01*
X62008Y49016D02*
Y61221D01*
Y49016D02*
X62257Y49265D01*
Y60971D01*
X79724Y49016D02*
Y61221D01*
X79475Y49265D02*
Y60971D01*
Y49265D02*
X79724Y49016D01*
X62008Y61221D02*
X62257Y60971D01*
X79475D01*
X79724Y61221D01*
X62008D02*
X79724D01*
X64862Y18409D02*
X72933Y18411D01*
X64862Y18409D02*
X72933Y18411D01*
X64862Y24896D02*
X72933Y24898D01*
X64862D02*
X72933D01*
X75295Y18406D02*
Y24902D01*
X72933D02*
X75295D01*
X72933Y18406D02*
Y24902D01*
Y18406D02*
X75295D01*
X62500Y24902D02*
X64862D01*
Y18406D02*
Y24902D01*
X62500Y18406D02*
Y24902D01*
Y18406D02*
X64862D01*
X80315Y38386D02*
Y39961D01*
Y34646D02*
Y36220D01*
X69291Y38386D02*
Y39961D01*
X80315Y30906D02*
Y32480D01*
X69291Y34646D02*
Y36220D01*
Y30906D02*
Y32480D01*
X70113Y38386D02*
Y39961D01*
X79493Y38386D02*
Y39961D01*
Y34646D02*
Y36220D01*
X70113Y34646D02*
Y36220D01*
X79493Y30906D02*
Y32480D01*
X70113Y30906D02*
Y32480D01*
X70473Y38386D02*
Y39961D01*
X79134Y38386D02*
Y39961D01*
Y34646D02*
Y36220D01*
X70473Y34646D02*
Y36220D01*
X79134Y30906D02*
Y32480D01*
X70473Y30906D02*
Y32480D01*
X70498Y38386D02*
Y39961D01*
Y34646D02*
Y36220D01*
X77953Y38386D02*
X80315D01*
X77953Y39961D02*
X80315D01*
X78125Y38386D02*
Y39961D01*
X79109Y38386D02*
Y39961D01*
X69291D02*
X71653D01*
X71482Y38386D02*
Y39961D01*
X69291Y38386D02*
X71653D01*
X69291Y36220D02*
X71653Y36220D01*
X71482Y34646D02*
Y36220D01*
X69291Y34646D02*
X71653Y34646D01*
X79109Y34646D02*
Y36220D01*
X77953Y34646D02*
X80315Y34646D01*
X78125Y34646D02*
Y36220D01*
X77953D02*
X80315Y36220D01*
X70498Y30906D02*
Y32480D01*
X79109Y30906D02*
Y32480D01*
X77953Y30906D02*
X80315D01*
X78125D02*
Y32480D01*
X77953D02*
X80315D01*
X69291D02*
X71653D01*
X71482Y30906D02*
Y32480D01*
X69291Y30906D02*
X71653D01*
X77953Y29724D02*
Y41142D01*
X71653Y29724D02*
Y41142D01*
X71972Y40824D01*
X77635D02*
X77953Y41142D01*
X71653D02*
X77953D01*
X71653Y29724D02*
X71972Y30043D01*
X71653Y29724D02*
X77953D01*
X77635Y30043D02*
X77953Y29724D01*
X71972Y30043D02*
X77635D01*
Y40824D01*
X71972D02*
X77635D01*
X71972Y30043D02*
Y40824D01*
X99699Y66043D02*
X99701Y57972D01*
X99699Y66043D02*
X99701Y57972D01*
X93213Y66043D02*
X93214Y57972D01*
X93213D02*
Y66043D01*
X93209Y68405D02*
X99705D01*
X93209Y66043D02*
Y68405D01*
Y66043D02*
X99705D01*
Y68405D01*
X93209Y55610D02*
Y57972D01*
X99705D01*
X93209Y55610D02*
X99705D01*
Y57972D01*
X93602Y40945D02*
X99311D01*
X93602Y42126D02*
X99311D01*
X93602Y40945D02*
Y42126D01*
X99311Y40945D02*
Y42126D01*
X93602Y48425D02*
Y49606D01*
X99311Y48425D02*
Y49606D01*
X93602D02*
X99311D01*
X93602Y48425D02*
X99311D01*
X93681Y42126D02*
Y48425D01*
X99232Y42126D02*
Y48425D01*
X129226Y23720D02*
X129228Y15650D01*
X129226Y23720D02*
X129228Y15650D01*
X122740Y23720D02*
X122742Y15650D01*
X122740D02*
Y23720D01*
X122736Y26083D02*
X129232D01*
X122736Y23720D02*
Y26083D01*
Y23720D02*
X129232D01*
Y26083D01*
X122736Y13287D02*
Y15650D01*
X129232D01*
X122736Y13287D02*
X129232D01*
Y15650D01*
X117415Y23720D02*
X117417Y15650D01*
X117415Y23720D02*
X117417Y15650D01*
X110929Y23720D02*
X110931Y15650D01*
X110929D02*
Y23720D01*
X110925Y26083D02*
X117421D01*
X110925Y23720D02*
Y26083D01*
Y23720D02*
X117421D01*
Y26083D01*
X110925Y13287D02*
Y15650D01*
X117421D01*
X110925Y13287D02*
X117421D01*
Y15650D01*
X111019Y54335D02*
X129139D01*
Y40153D02*
Y54335D01*
X111019Y40153D02*
X129139D01*
X111019D02*
Y54335D01*
X129724Y39567D02*
Y54921D01*
X129139Y40153D02*
X129724Y39567D01*
X129139Y54335D02*
X129724Y54921D01*
X110433D02*
X111019Y54335D01*
X110433Y54921D02*
X129724D01*
X110433Y39567D02*
X111019Y40153D01*
X110433Y39567D02*
Y54921D01*
Y39567D02*
X129724D01*
X128405Y35433D02*
Y39567D01*
X126752Y38923D02*
X128405D01*
X126752Y35433D02*
Y39567D01*
X123406Y35433D02*
Y39567D01*
X121752Y38923D02*
X123406D01*
X121752Y35433D02*
Y39567D01*
X111752Y37783D02*
X113406D01*
X111752Y35433D02*
Y39567D01*
Y38923D02*
X113406D01*
Y35433D02*
Y39567D01*
X118405Y35433D02*
Y39567D01*
X116752Y38923D02*
X118405D01*
X116752Y35433D02*
Y39567D01*
X126752Y37783D02*
X128405D01*
X111752Y54921D02*
Y59055D01*
Y55565D02*
X113406D01*
Y54921D02*
Y59055D01*
X116752Y54921D02*
Y59055D01*
Y55565D02*
X118405D01*
Y54921D02*
Y59055D01*
X126752Y54921D02*
Y59055D01*
Y55565D02*
X128405D01*
Y54921D02*
Y59055D01*
X121752Y37783D02*
X123406D01*
X116752D02*
X118405D01*
X121752Y54921D02*
Y59055D01*
Y55565D02*
X123406D01*
Y54921D02*
Y59055D01*
X121752Y56706D02*
X123406D01*
X111752D02*
X113406D01*
X126752D02*
X128405D01*
X116752D02*
X118405D01*
X111752Y57257D02*
X113406D01*
X121752D02*
X123406D01*
X126752D02*
X128405D01*
X126752Y37231D02*
X128405D01*
X116752D02*
X118405D01*
X121752D02*
X123406D01*
X111752D02*
X113406D01*
X116752Y57257D02*
X118405D01*
X126752Y57603D02*
X128405D01*
X121752D02*
X123406D01*
X116752D02*
X118405D01*
X111752D02*
X113406D01*
X116752Y36886D02*
X118405D01*
X121752D02*
X123406D01*
X111752D02*
X113406D01*
X126752D02*
X128405D01*
X111752Y59055D02*
X113406D01*
X116752D02*
X118405D01*
X126752D02*
X128405D01*
X121752D02*
X123406D01*
X111752Y35433D02*
X113406D01*
X116752D02*
X118405D01*
X121752D02*
X123406D01*
X126752D02*
X128405D01*
X143409Y66043D02*
X143411Y57972D01*
X143409Y66043D02*
X143411Y57972D01*
X149896Y66043D02*
X149898Y57972D01*
Y66043D01*
X143405Y55610D02*
X149902D01*
Y57972D01*
X143405D02*
X149902D01*
X143405Y55610D02*
Y57972D01*
X149902Y66043D02*
Y68405D01*
X143405Y66043D02*
X149902D01*
X143405Y68405D02*
X149902D01*
X143405Y66043D02*
Y68405D01*
X126870Y70171D02*
X134941Y70173D01*
X126870Y70171D02*
X134941Y70173D01*
X126870Y63685D02*
X134941Y63687D01*
X126870Y63685D02*
X134941D01*
X124508Y63681D02*
Y70177D01*
Y63681D02*
X126870D01*
Y70177D01*
X124508D02*
X126870D01*
X134941Y63681D02*
X137303D01*
X134941D02*
Y70177D01*
X137303Y63681D02*
Y70177D01*
X134941D02*
X137303D01*
X135925Y51575D02*
X141634D01*
X135925Y50394D02*
X141634D01*
Y51575D01*
X135925Y50394D02*
Y51575D01*
X141634Y42913D02*
Y44094D01*
X135925Y42913D02*
Y44094D01*
Y42913D02*
X141634D01*
X135925Y44094D02*
X141634D01*
X141555D02*
Y50394D01*
X136004Y44094D02*
Y50394D01*
X175674Y64173D02*
Y65748D01*
X175591D02*
Y67618D01*
X175834Y67375D01*
Y62547D02*
Y67375D01*
X175591Y62303D02*
X175834Y62547D01*
X175591Y62303D02*
Y64173D01*
X175834Y67375D02*
X180315Y67375D01*
X175834Y62547D02*
X180315Y62546D01*
Y67375D01*
Y62546D02*
X182434D01*
X182677Y62303D01*
X175591D02*
X182677D01*
X175591Y67618D02*
X182677D01*
X182434Y67375D02*
X182677Y67618D01*
X180315Y67375D02*
X182434D01*
X182677Y65748D02*
Y67618D01*
X182594Y64173D02*
Y65748D01*
X182677Y62303D02*
Y64173D01*
X182434Y62546D02*
Y67375D01*
X182717Y64173D02*
Y65748D01*
X182594D02*
X184252D01*
X182594Y64173D02*
X184252D01*
X183504D02*
Y65748D01*
X175551Y64173D02*
Y65748D01*
X174764Y64173D02*
Y65748D01*
X174016D02*
X175674D01*
X174016Y64173D02*
X175674D01*
X174581D02*
Y65748D01*
X183687Y64173D02*
Y65748D01*
X174016Y64173D02*
Y65748D01*
X184252Y64173D02*
Y65748D01*
X175098Y49905D02*
X183169Y49907D01*
X175098Y49905D02*
X183169Y49907D01*
X175098Y56392D02*
X183169Y56394D01*
X175098D02*
X183169D01*
X185531Y49902D02*
Y56398D01*
X183169D02*
X185531D01*
X183169Y49902D02*
Y56398D01*
Y49902D02*
X185531D01*
X172736Y56398D02*
X175098D01*
Y49902D02*
Y56398D01*
X172736Y49902D02*
Y56398D01*
Y49902D02*
X175098D01*
X165842Y39670D02*
X176678D01*
Y35133D02*
Y39670D01*
X165842Y35133D02*
X176678D01*
X165842D02*
Y39670D01*
X176969Y34843D02*
Y39961D01*
X176678Y35133D02*
X176969Y34843D01*
X176678Y39670D02*
X176969Y39961D01*
X165551Y34843D02*
X176969D01*
X165551D02*
X165842Y35133D01*
X165551Y39961D02*
X165842Y39670D01*
X165551Y39961D02*
X176969D01*
X165551Y34843D02*
Y39961D01*
X174055Y40650D02*
X175945D01*
X175945Y39961D02*
X175945Y42913D01*
X174055Y39961D02*
Y42913D01*
X166575Y40650D02*
X168465D01*
X166575Y42913D02*
X166575Y39961D01*
X166575Y41631D02*
X168465D01*
Y39961D02*
Y42913D01*
X170315Y33172D02*
X172205D01*
X170315Y31890D02*
Y34843D01*
Y34153D02*
X172205D01*
Y31890D02*
Y34843D01*
X174055Y41631D02*
X175945D01*
X174055Y41730D02*
X175945D01*
X170315Y33073D02*
X172205D01*
X166575Y41730D02*
X168465D01*
X174055Y42088D02*
X175945D01*
X166575D02*
X168465D01*
X170315Y32715D02*
X172205D01*
X170315Y31890D02*
X172205D01*
X166575Y42913D02*
X168465D01*
X174055D02*
X175945D01*
X181590Y35133D02*
X192426D01*
X181590D02*
Y39670D01*
X192426D01*
Y35133D02*
Y39670D01*
X181299Y34843D02*
Y39961D01*
X181590Y39670D01*
X181299Y34843D02*
X181590Y35133D01*
X181299Y39961D02*
X192717D01*
X192426Y39670D02*
X192717Y39961D01*
X192426Y35133D02*
X192717Y34843D01*
X181299D02*
X192717D01*
Y39961D01*
X182323Y34153D02*
X184213D01*
X182323Y31890D02*
X182323Y34843D01*
X184213Y31890D02*
Y34843D01*
X189803Y34153D02*
X191693D01*
X191693Y34843D02*
X191693Y31890D01*
X189803Y33172D02*
X191693D01*
X189803Y31890D02*
Y34843D01*
X186063Y41631D02*
X187953D01*
Y39961D02*
Y42913D01*
X186063Y40650D02*
X187953D01*
X186063Y39961D02*
Y42913D01*
X182323Y33172D02*
X184213D01*
X182323Y33073D02*
X184213D01*
X186063Y41730D02*
X187953D01*
X189803Y33073D02*
X191693D01*
X182323Y32715D02*
X184213D01*
X189803D02*
X191693D01*
X186063Y42088D02*
X187953D01*
X186063Y42913D02*
X187953D01*
X189803Y31890D02*
X191693D01*
X182323D02*
X184213D01*
X213386Y29921D02*
Y37008D01*
X211417Y29921D02*
Y37008D01*
Y29921D02*
X213386D01*
X211417Y37008D02*
X213386D01*
X200000Y29921D02*
Y37008D01*
X201969Y29921D02*
Y37008D01*
X200000Y29921D02*
X201969D01*
X200000Y37008D02*
X201969D01*
Y30000D02*
X211417D01*
X201969Y36929D02*
X211417D01*
X181004Y18409D02*
X189075Y18411D01*
X181004Y18409D02*
X189075Y18411D01*
X181004Y24896D02*
X189075Y24898D01*
X181004D02*
X189075D01*
X191437Y18406D02*
Y24902D01*
X189075D02*
X191437D01*
X189075Y18406D02*
Y24902D01*
Y18406D02*
X191437D01*
X178642Y24902D02*
X181004D01*
Y18406D02*
Y24902D01*
X178642Y18406D02*
Y24902D01*
Y18406D02*
X181004D01*
X202658Y24896D02*
X210728Y24898D01*
X202658Y24896D02*
X210728Y24898D01*
X202658Y18409D02*
X210728Y18411D01*
X202658Y18409D02*
X210728D01*
X200295Y18406D02*
Y24902D01*
Y18406D02*
X202658D01*
Y24902D01*
X200295D02*
X202658D01*
X210728Y18406D02*
X213090D01*
X210728D02*
Y24902D01*
X213090Y18406D02*
Y24902D01*
X210728D02*
X213090D01*
X224311Y18409D02*
X232382Y18411D01*
X224311Y18409D02*
X232382Y18411D01*
X224311Y24896D02*
X232382Y24898D01*
X224311D02*
X232382D01*
X234744Y18406D02*
Y24902D01*
X232382D02*
X234744D01*
X232382Y18406D02*
Y24902D01*
Y18406D02*
X234744D01*
X221949Y24902D02*
X224311D01*
Y18406D02*
Y24902D01*
X221949Y18406D02*
Y24902D01*
Y18406D02*
X224311D01*
Y30220D02*
X232382Y30222D01*
X224311Y30220D02*
X232382Y30222D01*
X224311Y36707D02*
X232382Y36709D01*
X224311D02*
X232382D01*
X234744Y30217D02*
Y36713D01*
X232382D02*
X234744D01*
X232382Y30217D02*
Y36713D01*
Y30217D02*
X234744D01*
X221949Y36713D02*
X224311D01*
Y30217D02*
Y36713D01*
X221949Y30217D02*
Y36713D01*
Y30217D02*
X224311D01*
X267618Y12504D02*
X275689Y12506D01*
X267618Y12504D02*
X275689Y12506D01*
X267618Y18990D02*
X275689Y18992D01*
X267618D02*
X275689D01*
X278051Y12500D02*
Y18996D01*
X275689D02*
X278051D01*
X275689Y12500D02*
Y18996D01*
Y12500D02*
X278051D01*
X265256Y18996D02*
X267618D01*
Y12500D02*
Y18996D01*
X265256Y12500D02*
Y18996D01*
Y12500D02*
X267618D01*
X242520Y127067D02*
Y132776D01*
X241339Y127067D02*
Y132776D01*
Y127067D02*
X242520D01*
X241339Y132776D02*
X242520D01*
X233858Y127067D02*
X235039D01*
X233858Y132776D02*
X235039D01*
X233858Y127067D02*
Y132776D01*
X235039Y127067D02*
Y132776D01*
Y127146D02*
X241339D01*
X235039Y132697D02*
X241339D01*
X241441Y70883D02*
X241519Y70903D01*
X241693Y70942D01*
X241912Y70986D01*
X242130Y71025D01*
X242530Y71088D01*
X242864Y71136D01*
X243134Y71174D01*
X243470Y71220D01*
X243864Y71273D01*
X244272Y71325D01*
X244627Y71371D01*
X244904Y71408D01*
X245090Y71437D01*
X245204Y71458D01*
X245290Y71478D01*
X245381Y71502D01*
X245501Y71542D01*
X245648Y71616D01*
X245793Y71726D01*
X245919Y71864D01*
X246020Y72016D01*
X246112Y72224D01*
X246194Y72526D01*
X246245Y72897D01*
X248750Y77049D02*
X249595Y77213D01*
X247997Y76925D02*
X248750Y77049D01*
X247355Y76855D02*
X247997Y76925D01*
X246833Y76841D02*
X247355Y76855D01*
X246432Y76878D02*
X246833Y76841D01*
X246240Y76921D02*
X246432Y76878D01*
X246091Y76974D02*
X246240Y76921D01*
X245895Y77092D02*
X246091Y76974D01*
X245787Y77211D02*
X245895Y77092D01*
X245722Y77333D02*
X245787Y77211D01*
X245657Y77530D02*
X245722Y77333D01*
X245606Y77810D02*
X245657Y77530D01*
X245584Y78096D02*
X245606Y77810D01*
X245583Y78335D02*
X245584Y78096D01*
X245583Y78335D02*
X245595Y78616D01*
X245621Y78939D01*
X245659Y79226D01*
X245706Y79504D01*
X245747Y79731D01*
X245789Y79946D01*
X245829Y80147D01*
X245883Y80400D01*
X245959Y80723D01*
X246027Y80993D01*
X246095Y81254D01*
X246154Y81474D01*
X246196Y81632D01*
X246213Y81712D01*
X246208Y81726D02*
X246213Y81712D01*
X246193Y81721D02*
X246208Y81726D01*
X246185Y81750D02*
X246193Y81721D01*
X245134Y81912D02*
X245135Y81921D01*
X245106Y81804D02*
X245134Y81912D01*
X245053Y81606D02*
X245106Y81804D01*
X244988Y81358D02*
X245053Y81606D01*
X244921Y81089D02*
X244988Y81358D01*
X244855Y80811D02*
X244921Y81089D01*
X244787Y80515D02*
X244855Y80811D01*
X244665Y79923D02*
X244787Y80515D01*
X244577Y79354D02*
X244665Y79923D01*
X244514Y78748D02*
X244577Y79354D01*
X244497Y78473D02*
X244514Y78748D01*
X244493Y78177D02*
X244497Y78473D01*
X244493Y78177D02*
X244510Y77832D01*
X244563Y77430D01*
X244611Y77224D01*
X244654Y77081D01*
X244703Y76948D01*
X244799Y76746D01*
X244929Y76543D01*
X245137Y76311D01*
X245455Y76077D01*
X245891Y75888D01*
X246441Y75775D01*
X247115Y75748D01*
X247921Y75813D01*
X248863Y75959D01*
X249931Y76165D01*
X245086Y81763D02*
X245086Y81735D01*
X245086Y81730D01*
X240953Y70677D02*
X240983Y70677D01*
X241088Y70693D01*
X241324Y70776D01*
X241525Y70960D01*
X241638Y71219D01*
X241682Y71482D01*
X241681Y71789D02*
X241682Y71482D01*
X241623Y72166D02*
X241681Y71789D01*
X241526Y72529D02*
X241623Y72166D01*
X198897Y76177D02*
X199879Y76150D01*
X200764Y76165D01*
X201549Y76251D01*
X202065Y76371D01*
X202511Y76543D01*
X202870Y76750D01*
X203131Y76963D01*
X203304Y77153D01*
X203417Y77306D01*
X203622Y77685D01*
X203758Y78090D01*
X203843Y78501D01*
X203872Y78708D01*
X203893Y78915D01*
X203913Y79187D01*
X203927Y79530D01*
X203931Y79781D01*
X203930Y79868D02*
X203931Y79781D01*
X203930Y79947D02*
X203930Y79868D01*
X203928Y80080D02*
X203930Y79947D01*
X203923Y80266D02*
X203928Y80080D01*
X203914Y80474D02*
X203923Y80266D01*
X203901Y80717D02*
X203914Y80474D01*
X203884Y80985D02*
X203901Y80717D01*
X203871Y81186D02*
X203884Y80985D01*
X203862Y81369D02*
X203871Y81186D01*
X203857Y81516D02*
X203862Y81369D01*
X203857Y81624D02*
X203857Y81516D01*
X203857Y81624D02*
X203863Y81723D01*
X203874Y81745D01*
X203876Y81745D01*
X202781Y81630D02*
X202786Y81604D01*
X202776Y81577D02*
X202781Y81630D01*
X202775Y81485D02*
X202776Y81577D01*
X202775Y81485D02*
X202777Y81347D01*
X202784Y81156D01*
X202794Y80938D01*
X202803Y80724D01*
X202811Y80533D01*
X202816Y80377D01*
X202820Y80251D01*
X202824Y80072D01*
X202825Y79869D01*
X202818Y79529D02*
X202825Y79869D01*
X202797Y79139D02*
X202818Y79529D01*
X202769Y78875D02*
X202797Y79139D01*
X202734Y78637D02*
X202769Y78875D01*
X202688Y78417D02*
X202734Y78637D01*
X202642Y78256D02*
X202688Y78417D01*
X202595Y78116D02*
X202642Y78256D01*
X202527Y77961D02*
X202595Y78116D01*
X202392Y77785D02*
X202527Y77961D01*
X202163Y77608D02*
X202392Y77785D01*
X201795Y77447D02*
X202163Y77608D01*
X201273Y77330D02*
X201795Y77447D01*
X200613Y77271D02*
X201273Y77330D01*
X199827Y77264D02*
X200613Y77271D01*
X198936Y77290D02*
X199827Y77264D01*
X207091Y73105D02*
X207136Y73162D01*
X206966Y72976D02*
X207091Y73105D01*
X206788Y72836D02*
X206966Y72976D01*
X206611Y72723D02*
X206788Y72836D01*
X206470Y72651D02*
X206611Y72723D01*
X206353Y72605D02*
X206470Y72651D01*
X206210Y72557D02*
X206353Y72605D01*
X206023Y72507D02*
X206210Y72557D01*
X205787Y72472D02*
X206023Y72507D01*
X205475Y72478D02*
X205787Y72472D01*
X205218Y72501D02*
X205475Y72478D01*
X205018Y72515D02*
X205218Y72501D01*
X204852Y72515D02*
X205018Y72515D01*
X204704Y72531D02*
X204852Y72515D01*
X204527Y72565D02*
X204704Y72531D01*
X204258Y72601D02*
X204527Y72565D01*
X204017Y72627D02*
X204258Y72601D01*
X203779Y72654D02*
X204017Y72627D01*
X203554Y72673D02*
X203779Y72654D01*
X203373Y72675D02*
X203554Y72673D01*
X203229Y72657D02*
X203373Y72675D01*
X203119Y72620D02*
X203229Y72657D01*
X203059Y72584D02*
X203119Y72620D01*
X203054Y72571D02*
X203059Y72584D01*
X249902Y76182D02*
X249932Y76165D01*
X249860Y76243D02*
X249902Y76182D01*
X249809Y76344D02*
X249860Y76243D01*
X249754Y76475D02*
X249809Y76344D01*
X249700Y76626D02*
X249754Y76475D01*
X249652Y76782D02*
X249700Y76626D01*
X249613Y76930D02*
X249652Y76782D01*
X249588Y77056D02*
X249613Y76930D01*
X249578Y77150D02*
X249588Y77056D01*
X249578Y77150D02*
X249585Y77203D01*
X249608Y77210D01*
X249644Y77171D01*
X249691Y77089D01*
X249744Y76972D01*
X249799Y76829D01*
X249851Y76674D01*
X249895Y76521D01*
X249928Y76382D01*
X249945Y76270D01*
X249947Y76196D01*
X249932Y76165D02*
X249947Y76196D01*
X198893Y76512D02*
X198897Y76664D01*
X198890Y76346D02*
X198893Y76512D01*
X198890Y76346D02*
X198891Y76250D01*
X198894Y76188D01*
X198899Y76181D01*
X198907Y76233D01*
X198915Y76333D01*
X198922Y76457D01*
X198931Y76645D01*
X198936Y76802D01*
X198940Y76954D01*
X198943Y77120D01*
X198942Y77216D02*
X198943Y77120D01*
X198939Y77278D02*
X198942Y77216D01*
X198934Y77285D02*
X198939Y77278D01*
X198926Y77233D02*
X198934Y77285D01*
X198918Y77133D02*
X198926Y77233D01*
X198911Y77009D02*
X198918Y77133D01*
X198902Y76821D02*
X198911Y77009D01*
X198897Y76664D02*
X198902Y76821D01*
X203884Y72642D02*
Y72897D01*
X203883Y81722D02*
X203884Y80984D01*
X202782Y72064D02*
Y72897D01*
X198909Y71772D02*
X200809Y71772D01*
X198897Y76177D02*
X198909Y71772D01*
X200809Y71772D02*
Y75247D01*
X198909D02*
X200809D01*
X248009Y71772D02*
X249909Y71772D01*
X248009Y75247D02*
X249909D01*
Y71772D02*
X249931Y76165D01*
X248009Y71772D02*
Y75247D01*
X200809Y78247D02*
Y81772D01*
X198909Y78247D02*
X200809D01*
X198909Y76975D02*
Y81772D01*
X200809Y81772D01*
X248009D02*
X249909Y81772D01*
Y76464D02*
Y81772D01*
X248009Y78247D02*
X249909D01*
X248009D02*
Y81772D01*
X242035Y72897D02*
X248009D01*
X242035D02*
X242059Y80647D01*
X242035Y80647D02*
X244817D01*
X245941D02*
X248009D01*
X242035Y72897D02*
Y75833D01*
Y77711D02*
Y80647D01*
X206760Y80647D02*
X206785Y72897D01*
X200809D02*
X206785D01*
X203905Y80647D02*
X206785D01*
X200809D02*
X202806D01*
X206785Y77711D02*
Y80647D01*
Y72897D02*
Y75833D01*
X232072Y58272D02*
X244409Y68487D01*
X228284Y58272D02*
X228285Y59552D01*
X244409Y68487D02*
Y71343D01*
Y72442D02*
Y72897D01*
X228284Y95272D02*
X228285Y93991D01*
X232072Y95272D02*
X244409Y85056D01*
Y80647D02*
Y85056D01*
X204409Y80647D02*
Y85056D01*
X216746Y95272D01*
X232072D01*
X220534Y93991D02*
X220534Y95272D01*
X220534Y59552D02*
X220534Y58272D01*
X216746D02*
X232072D01*
X204409Y68487D02*
X216746Y58272D01*
X204409Y72581D02*
Y72897D01*
Y68487D02*
Y71480D01*
X203543Y46457D02*
Y48031D01*
X213779Y46457D02*
Y48031D01*
X204108Y46457D02*
Y48031D01*
X213215Y46457D02*
Y48031D01*
X212122D02*
X213779D01*
X212122Y46457D02*
X213779D01*
X213032D02*
Y48031D01*
X212244Y46457D02*
Y48031D01*
X204291Y46457D02*
Y48031D01*
X203543D02*
X205201D01*
X203543Y46457D02*
X205201D01*
X205079D02*
Y48031D01*
X205361Y44829D02*
Y49659D01*
X205118Y48031D02*
Y49902D01*
X205201Y46457D02*
Y48031D01*
X205118Y44587D02*
Y46457D01*
X205361Y44829D02*
X207480D01*
X205118Y44587D02*
X205361Y44829D01*
X205118Y44587D02*
X212205D01*
X205118Y49902D02*
X212205D01*
X205118D02*
X205361Y49659D01*
X207480D01*
Y44829D02*
Y49659D01*
X211961Y49658D01*
X207480Y44829D02*
X211961Y44830D01*
X212205Y48031D02*
Y49902D01*
X211961Y49658D02*
X212205Y49902D01*
X211961Y44830D02*
Y49658D01*
Y44830D02*
X212205Y44587D01*
Y46457D01*
X212122D02*
Y48031D01*
D102*
X152612Y106539D02*
Y119839D01*
X158412D01*
Y106539D02*
Y119839D01*
X152612Y106539D02*
X158412D01*
X163439D02*
Y119839D01*
X169239D01*
Y106539D02*
Y119839D01*
X163439Y106539D02*
X169239D01*
X135082Y28491D02*
X148382D01*
Y22691D02*
Y28491D01*
X135082Y22691D02*
X148382D01*
X135082D02*
Y28491D01*
Y16680D02*
X148382D01*
Y10880D02*
Y16680D01*
X135082Y10880D02*
X148382D01*
X135082D02*
Y16680D01*
X243350Y12848D02*
X256650D01*
X243350D02*
Y18648D01*
X256650D01*
Y12848D02*
Y18648D01*
M02*
