G04*
G04 #@! TF.GenerationSoftware,Altium Limited,Altium Designer,19.1.5 (86)*
G04*
G04 Layer_Physical_Order=2*
G04 Layer_Color=16711680*
%FSLAX25Y25*%
%MOIN*%
G70*
G01*
G75*
%ADD10C,0.01000*%
G04:AMPARAMS|DCode=60|XSize=23.62mil|YSize=39.37mil|CornerRadius=2.95mil|HoleSize=0mil|Usage=FLASHONLY|Rotation=0.000|XOffset=0mil|YOffset=0mil|HoleType=Round|Shape=RoundedRectangle|*
%AMROUNDEDRECTD60*
21,1,0.02362,0.03347,0,0,0.0*
21,1,0.01772,0.03937,0,0,0.0*
1,1,0.00591,0.00886,-0.01673*
1,1,0.00591,-0.00886,-0.01673*
1,1,0.00591,-0.00886,0.01673*
1,1,0.00591,0.00886,0.01673*
%
%ADD60ROUNDEDRECTD60*%
G04:AMPARAMS|DCode=61|XSize=70.87mil|YSize=51.18mil|CornerRadius=6.4mil|HoleSize=0mil|Usage=FLASHONLY|Rotation=180.000|XOffset=0mil|YOffset=0mil|HoleType=Round|Shape=RoundedRectangle|*
%AMROUNDEDRECTD61*
21,1,0.07087,0.03839,0,0,180.0*
21,1,0.05807,0.05118,0,0,180.0*
1,1,0.01280,-0.02904,0.01919*
1,1,0.01280,0.02904,0.01919*
1,1,0.01280,0.02904,-0.01919*
1,1,0.01280,-0.02904,-0.01919*
%
%ADD61ROUNDEDRECTD61*%
%ADD83C,0.03000*%
%ADD85O,0.07874X0.39370*%
%ADD86C,0.06000*%
%ADD87C,0.12598*%
%ADD88R,0.06000X0.06000*%
%ADD89C,0.07087*%
%ADD90O,0.19685X0.09843*%
%ADD91C,0.03937*%
%ADD92R,0.03937X0.03937*%
%ADD93C,0.05512*%
%ADD94C,0.07874*%
%ADD95C,0.05906*%
%ADD96R,0.05906X0.05906*%
%ADD97C,0.21654*%
%ADD98C,0.05000*%
G36*
X344488Y1969D02*
X1969D01*
Y368110D01*
X344488D01*
Y1969D01*
D02*
G37*
%LPC*%
G36*
X331024Y362638D02*
X329403Y362479D01*
X327844Y362006D01*
X326408Y361238D01*
X325149Y360205D01*
X324116Y358946D01*
X323348Y357510D01*
X322875Y355951D01*
X322716Y354331D01*
X322875Y352710D01*
X323348Y351151D01*
X324116Y349715D01*
X325149Y348456D01*
X326408Y347423D01*
X327844Y346655D01*
X329403Y346183D01*
X331024Y346023D01*
X332644Y346183D01*
X334203Y346655D01*
X335639Y347423D01*
X336898Y348456D01*
X337931Y349715D01*
X338699Y351151D01*
X339172Y352710D01*
X339331Y354331D01*
X339172Y355951D01*
X338699Y357510D01*
X337931Y358946D01*
X336898Y360205D01*
X335639Y361238D01*
X334203Y362006D01*
X332644Y362479D01*
X331024Y362638D01*
D02*
G37*
G36*
X31496D02*
X29875Y362479D01*
X28317Y362006D01*
X26880Y361238D01*
X25622Y360205D01*
X24588Y358946D01*
X23821Y357510D01*
X23348Y355951D01*
X23188Y354331D01*
X23348Y352710D01*
X23821Y351151D01*
X24588Y349715D01*
X25622Y348456D01*
X26880Y347423D01*
X28317Y346655D01*
X29875Y346183D01*
X31496Y346023D01*
X33117Y346183D01*
X34675Y346655D01*
X36112Y347423D01*
X37370Y348456D01*
X38404Y349715D01*
X39171Y351151D01*
X39644Y352710D01*
X39804Y354331D01*
X39644Y355951D01*
X39171Y357510D01*
X38404Y358946D01*
X37370Y360205D01*
X36112Y361238D01*
X34675Y362006D01*
X33117Y362479D01*
X31496Y362638D01*
D02*
G37*
G36*
X61580Y345929D02*
X60422Y345815D01*
X59309Y345478D01*
X58283Y344929D01*
X57384Y344191D01*
X56959Y343673D01*
X37598D01*
X37244Y344134D01*
X36699Y344552D01*
X36065Y344815D01*
X35384Y344904D01*
X29577D01*
X28896Y344815D01*
X28261Y344552D01*
X27716Y344134D01*
X27299Y343589D01*
X27036Y342954D01*
X26946Y342274D01*
Y338435D01*
X27036Y337754D01*
X27299Y337120D01*
X27716Y336575D01*
X28261Y336157D01*
X28896Y335894D01*
X29577Y335804D01*
X35384D01*
X36065Y335894D01*
X36699Y336157D01*
X37244Y336575D01*
X37322Y336676D01*
X56664D01*
X57384Y335799D01*
X58283Y335061D01*
X59309Y334513D01*
X60422Y334175D01*
X61580Y334061D01*
X62737Y334175D01*
X63851Y334513D01*
X64877Y335061D01*
X65776Y335799D01*
X66514Y336698D01*
X67062Y337724D01*
X67400Y338837D01*
X67514Y339995D01*
X67400Y341153D01*
X67062Y342266D01*
X66514Y343292D01*
X65776Y344191D01*
X64877Y344929D01*
X63851Y345478D01*
X62737Y345815D01*
X61580Y345929D01*
D02*
G37*
G36*
X88027D02*
X86869Y345815D01*
X85756Y345478D01*
X84730Y344929D01*
X83831Y344191D01*
X83093Y343292D01*
X82544Y342266D01*
X82207Y341153D01*
X82092Y339995D01*
X82207Y338837D01*
X82544Y337724D01*
X83093Y336698D01*
X83831Y335799D01*
X84730Y335061D01*
X85756Y334513D01*
X86869Y334175D01*
X88027Y334061D01*
X89184Y334175D01*
X90298Y334513D01*
X91323Y335061D01*
X92223Y335799D01*
X92961Y336698D01*
X93509Y337724D01*
X93847Y338837D01*
X93961Y339995D01*
X93847Y341153D01*
X93509Y342266D01*
X92961Y343292D01*
X92223Y344191D01*
X91323Y344929D01*
X90298Y345478D01*
X89184Y345815D01*
X88027Y345929D01*
D02*
G37*
G36*
X283465Y347875D02*
X281844Y347715D01*
X280285Y347242D01*
X278849Y346475D01*
X277590Y345441D01*
X276557Y344182D01*
X275789Y342746D01*
X275317Y341188D01*
X275157Y339567D01*
X275317Y337946D01*
X275789Y336388D01*
X276557Y334951D01*
X277590Y333693D01*
X278849Y332659D01*
X280285Y331892D01*
X281844Y331419D01*
X283465Y331259D01*
X285085Y331419D01*
X286644Y331892D01*
X288080Y332659D01*
X289339Y333693D01*
X290372Y334951D01*
X291140Y336388D01*
X291613Y337946D01*
X291772Y339567D01*
X291613Y341188D01*
X291140Y342746D01*
X290372Y344182D01*
X289339Y345441D01*
X288080Y346475D01*
X286644Y347242D01*
X285085Y347715D01*
X283465Y347875D01*
D02*
G37*
G36*
X35384Y332528D02*
X32980D01*
Y329437D01*
X37056D01*
Y330856D01*
X36928Y331496D01*
X36566Y332038D01*
X36024Y332401D01*
X35384Y332528D01*
D02*
G37*
G36*
X31980D02*
X29577D01*
X28937Y332401D01*
X28395Y332038D01*
X28032Y331496D01*
X27905Y330856D01*
Y329437D01*
X31980D01*
Y332528D01*
D02*
G37*
G36*
X17095Y337685D02*
X7158D01*
Y327748D01*
X17095D01*
Y337685D01*
D02*
G37*
G36*
X37056Y328437D02*
X32980D01*
Y325346D01*
X35384D01*
X36024Y325473D01*
X36566Y325835D01*
X36928Y326378D01*
X37056Y327018D01*
Y328437D01*
D02*
G37*
G36*
X31980D02*
X27905D01*
Y327018D01*
X28032Y326378D01*
X28395Y325835D01*
X28937Y325473D01*
X29577Y325346D01*
X31980D01*
Y328437D01*
D02*
G37*
G36*
X12626Y326685D02*
Y323217D01*
X16095D01*
X16023Y323761D01*
X15620Y324734D01*
X14979Y325569D01*
X14143Y326210D01*
X13170Y326614D01*
X12626Y326685D01*
D02*
G37*
G36*
X11626Y326685D02*
X11082Y326614D01*
X10109Y326210D01*
X9273Y325569D01*
X8632Y324734D01*
X8229Y323761D01*
X8157Y323217D01*
X11626D01*
Y326685D01*
D02*
G37*
G36*
X56102Y332706D02*
X54945Y332592D01*
X53831Y332254D01*
X52806Y331706D01*
X51906Y330968D01*
X51168Y330068D01*
X50620Y329043D01*
X50282Y327929D01*
X50168Y326772D01*
X50257Y325873D01*
X46386Y322002D01*
X34709D01*
X34249Y322310D01*
X33366Y322485D01*
X31594D01*
X30711Y322310D01*
X29962Y321809D01*
X29462Y321060D01*
X29286Y320177D01*
Y319857D01*
X29101Y319409D01*
X28982Y318504D01*
X29101Y317599D01*
X29286Y317151D01*
Y316831D01*
X29462Y315947D01*
X29962Y315199D01*
X30711Y314698D01*
X31594Y314523D01*
X33366D01*
X34249Y314698D01*
X34709Y315005D01*
X47835D01*
X48740Y315125D01*
X49584Y315474D01*
X50308Y316030D01*
X55204Y320926D01*
X56102Y320838D01*
X57260Y320952D01*
X58373Y321289D01*
X59399Y321838D01*
X60298Y322576D01*
X61036Y323475D01*
X61585Y324501D01*
X61922Y325614D01*
X62036Y326772D01*
X61922Y327929D01*
X61585Y329043D01*
X61036Y330068D01*
X60298Y330968D01*
X59399Y331706D01*
X58373Y332254D01*
X57260Y332592D01*
X56102Y332706D01*
D02*
G37*
G36*
X93504D02*
X92346Y332592D01*
X91233Y332254D01*
X90207Y331706D01*
X89308Y330968D01*
X88570Y330068D01*
X88022Y329043D01*
X87684Y327929D01*
X87570Y326772D01*
X87684Y325614D01*
X88022Y324501D01*
X88570Y323475D01*
X89308Y322576D01*
X90207Y321838D01*
X91233Y321289D01*
X92346Y320952D01*
X93504Y320838D01*
X94662Y320952D01*
X95775Y321289D01*
X96801Y321838D01*
X97700Y322576D01*
X98438Y323475D01*
X98986Y324501D01*
X99324Y325614D01*
X99438Y326772D01*
X99324Y327929D01*
X98986Y329043D01*
X98438Y330068D01*
X97700Y330968D01*
X96801Y331706D01*
X95775Y332254D01*
X94662Y332592D01*
X93504Y332706D01*
D02*
G37*
G36*
X16095Y322217D02*
X12626D01*
Y318748D01*
X13170Y318819D01*
X14143Y319222D01*
X14979Y319864D01*
X15620Y320699D01*
X16023Y321672D01*
X16095Y322217D01*
D02*
G37*
G36*
X11626D02*
X8157D01*
X8229Y321672D01*
X8632Y320699D01*
X9273Y319864D01*
X10109Y319222D01*
X11082Y318819D01*
X11626Y318748D01*
Y322217D01*
D02*
G37*
G36*
X29626Y312443D02*
X29240D01*
Y309949D01*
X30947D01*
Y311122D01*
X30846Y311627D01*
X30560Y312056D01*
X30131Y312342D01*
X29626Y312443D01*
D02*
G37*
G36*
X28240D02*
X27854D01*
X27349Y312342D01*
X26921Y312056D01*
X26634Y311627D01*
X26534Y311122D01*
Y309949D01*
X28240D01*
Y312443D01*
D02*
G37*
G36*
X88027Y319482D02*
X86869Y319368D01*
X85756Y319031D01*
X84730Y318482D01*
X83831Y317744D01*
X83093Y316845D01*
X82544Y315819D01*
X82207Y314706D01*
X82092Y313548D01*
X82207Y312390D01*
X82544Y311277D01*
X83093Y310251D01*
X83831Y309352D01*
X84730Y308614D01*
X85756Y308066D01*
X86869Y307728D01*
X88027Y307614D01*
X89184Y307728D01*
X90298Y308066D01*
X91323Y308614D01*
X92223Y309352D01*
X92961Y310251D01*
X93509Y311277D01*
X93847Y312390D01*
X93961Y313548D01*
X93847Y314706D01*
X93509Y315819D01*
X92961Y316845D01*
X92223Y317744D01*
X91323Y318482D01*
X90298Y319031D01*
X89184Y319368D01*
X88027Y319482D01*
D02*
G37*
G36*
X30947Y308949D02*
X29240D01*
Y306455D01*
X29626D01*
X30131Y306556D01*
X30560Y306842D01*
X30846Y307270D01*
X30947Y307776D01*
Y308949D01*
D02*
G37*
G36*
X28240D02*
X26534D01*
Y307776D01*
X26634Y307270D01*
X26921Y306842D01*
X27349Y306556D01*
X27854Y306455D01*
X28240D01*
Y308949D01*
D02*
G37*
G36*
X61580Y319482D02*
X60422Y319368D01*
X59309Y319031D01*
X58283Y318482D01*
X57384Y317744D01*
X56646Y316845D01*
X56097Y315819D01*
X55760Y314706D01*
X55646Y313548D01*
X55760Y312390D01*
X56097Y311277D01*
X56646Y310251D01*
X57384Y309352D01*
X58283Y308614D01*
X59309Y308066D01*
X60108Y307823D01*
X60209Y307270D01*
X59805Y306961D01*
X59291Y306290D01*
X42938D01*
X39414Y309814D01*
Y311122D01*
X39239Y312005D01*
X38738Y312754D01*
X37990Y313254D01*
X37106Y313430D01*
X35335D01*
X34451Y313254D01*
X33703Y312754D01*
X33202Y312005D01*
X33026Y311122D01*
Y307776D01*
X33202Y306892D01*
X33703Y306143D01*
X34451Y305643D01*
X35335Y305468D01*
X36642D01*
X40116Y301994D01*
X40933Y301448D01*
X41896Y301257D01*
X59291D01*
X59805Y300587D01*
X60739Y299870D01*
X61826Y299420D01*
X62992Y299267D01*
X64159Y299420D01*
X65246Y299870D01*
X66179Y300587D01*
X66895Y301520D01*
X67346Y302607D01*
X67499Y303773D01*
X67346Y304940D01*
X66895Y306027D01*
X66179Y306961D01*
X65246Y307677D01*
X64647Y307925D01*
X64620Y308477D01*
X64877Y308614D01*
X65776Y309352D01*
X66514Y310251D01*
X67062Y311277D01*
X67400Y312390D01*
X67514Y313548D01*
X67400Y314706D01*
X67062Y315819D01*
X66514Y316845D01*
X65776Y317744D01*
X64877Y318482D01*
X63851Y319031D01*
X62737Y319368D01*
X61580Y319482D01*
D02*
G37*
G36*
X237047Y324457D02*
X235608Y324268D01*
X234268Y323712D01*
X233116Y322829D01*
X232233Y321677D01*
X231677Y320337D01*
X231488Y318898D01*
X231677Y317459D01*
X232233Y316118D01*
X233116Y314967D01*
X234123Y314194D01*
X234164Y314059D01*
Y313737D01*
X234123Y313602D01*
X233116Y312829D01*
X232233Y311677D01*
X231677Y310336D01*
X231488Y308898D01*
X231677Y307459D01*
X232233Y306118D01*
X233116Y304967D01*
X234268Y304083D01*
X235327Y303644D01*
Y303103D01*
X234756Y302866D01*
X233807Y302138D01*
X233079Y301189D01*
X232621Y300084D01*
X232531Y299398D01*
X237047D01*
X241564D01*
X241474Y300084D01*
X241016Y301189D01*
X240288Y302138D01*
X239338Y302866D01*
X238767Y303103D01*
Y303644D01*
X239827Y304083D01*
X240978Y304967D01*
X241862Y306118D01*
X242417Y307459D01*
X242607Y308898D01*
X242417Y310336D01*
X241862Y311677D01*
X240978Y312829D01*
X239971Y313602D01*
X239931Y313737D01*
Y314059D01*
X239971Y314194D01*
X240978Y314967D01*
X241862Y316118D01*
X242417Y317459D01*
X242607Y318898D01*
X242417Y320337D01*
X241862Y321677D01*
X240978Y322829D01*
X239827Y323712D01*
X238486Y324268D01*
X237047Y324457D01*
D02*
G37*
G36*
X241564Y298398D02*
X237047D01*
X232531D01*
X232621Y297712D01*
X233079Y296606D01*
X233807Y295657D01*
X234756Y294929D01*
X235327Y294692D01*
Y294151D01*
X234268Y293712D01*
X233116Y292829D01*
X232233Y291677D01*
X231677Y290336D01*
X231488Y288898D01*
X231677Y287459D01*
X232233Y286118D01*
X233116Y284967D01*
X234268Y284083D01*
X235608Y283528D01*
X237047Y283338D01*
X238486Y283528D01*
X239827Y284083D01*
X240978Y284967D01*
X241862Y286118D01*
X242417Y287459D01*
X242607Y288898D01*
X242417Y290336D01*
X241862Y291677D01*
X240978Y292829D01*
X239827Y293712D01*
X238767Y294151D01*
Y294692D01*
X239338Y294929D01*
X240288Y295657D01*
X241016Y296606D01*
X241474Y297712D01*
X241564Y298398D01*
D02*
G37*
G36*
X122047Y334457D02*
X120608Y334268D01*
X119268Y333712D01*
X118116Y332829D01*
X117233Y331677D01*
X116677Y330336D01*
X116488Y328898D01*
X116677Y327459D01*
X117233Y326118D01*
X118116Y324967D01*
X119123Y324194D01*
X119164Y324059D01*
Y323737D01*
X119123Y323602D01*
X118116Y322829D01*
X117233Y321677D01*
X116677Y320337D01*
X116488Y318898D01*
X116677Y317459D01*
X117233Y316118D01*
X118116Y314967D01*
X119123Y314194D01*
X119164Y314059D01*
Y313737D01*
X119123Y313602D01*
X118116Y312829D01*
X117233Y311677D01*
X116677Y310336D01*
X116488Y308898D01*
X116677Y307459D01*
X117233Y306118D01*
X118116Y304967D01*
X119123Y304194D01*
X119164Y304059D01*
Y303737D01*
X119123Y303602D01*
X118116Y302829D01*
X117233Y301677D01*
X116677Y300337D01*
X116488Y298898D01*
X116677Y297459D01*
X117233Y296118D01*
X118116Y294967D01*
X119123Y294194D01*
X119164Y294059D01*
Y293737D01*
X119123Y293602D01*
X118116Y292829D01*
X117233Y291677D01*
X116677Y290336D01*
X116488Y288898D01*
X116677Y287459D01*
X117233Y286118D01*
X118116Y284967D01*
X119268Y284083D01*
X120608Y283528D01*
X122047Y283338D01*
X123486Y283528D01*
X124827Y284083D01*
X125978Y284967D01*
X126862Y286118D01*
X127417Y287459D01*
X127607Y288898D01*
X127417Y290336D01*
X126862Y291677D01*
X125978Y292829D01*
X124971Y293602D01*
X124931Y293737D01*
Y294059D01*
X124971Y294194D01*
X125978Y294967D01*
X126862Y296118D01*
X127417Y297459D01*
X127607Y298898D01*
X127417Y300337D01*
X126862Y301677D01*
X125978Y302829D01*
X124971Y303602D01*
X124931Y303737D01*
Y304059D01*
X124971Y304194D01*
X125978Y304967D01*
X126862Y306118D01*
X127417Y307459D01*
X127607Y308898D01*
X127417Y310336D01*
X126862Y311677D01*
X125978Y312829D01*
X124971Y313602D01*
X124931Y313737D01*
Y314059D01*
X124971Y314194D01*
X125978Y314967D01*
X126862Y316118D01*
X127417Y317459D01*
X127607Y318898D01*
X127417Y320337D01*
X126862Y321677D01*
X125978Y322829D01*
X124971Y323602D01*
X124931Y323737D01*
Y324059D01*
X124971Y324194D01*
X125978Y324967D01*
X126862Y326118D01*
X127417Y327459D01*
X127607Y328898D01*
X127417Y330336D01*
X126862Y331677D01*
X125978Y332829D01*
X124827Y333712D01*
X123486Y334268D01*
X122047Y334457D01*
D02*
G37*
G36*
X94685Y281537D02*
X93452Y281374D01*
X92302Y280898D01*
X91316Y280141D01*
X90558Y279154D01*
X90082Y278005D01*
X89920Y276772D01*
X90082Y275538D01*
X90558Y274389D01*
X91316Y273402D01*
X92302Y272645D01*
X93452Y272169D01*
X94685Y272007D01*
X95918Y272169D01*
X97068Y272645D01*
X98054Y273402D01*
X98812Y274389D01*
X99288Y275538D01*
X99450Y276772D01*
X99288Y278005D01*
X98812Y279154D01*
X98054Y280141D01*
X97068Y280898D01*
X95918Y281374D01*
X94685Y281537D01*
D02*
G37*
G36*
X12126Y317728D02*
X10829Y317557D01*
X9620Y317056D01*
X8582Y316260D01*
X7786Y315222D01*
X7285Y314014D01*
X7115Y312717D01*
X7285Y311420D01*
X7786Y310211D01*
X8582Y309173D01*
X9620Y308377D01*
X10560Y307987D01*
Y307446D01*
X9620Y307056D01*
X8582Y306260D01*
X7786Y305222D01*
X7285Y304014D01*
X7115Y302716D01*
X7285Y301419D01*
X7786Y300211D01*
X8582Y299173D01*
X9620Y298377D01*
X10560Y297987D01*
Y297446D01*
X9620Y297057D01*
X8582Y296260D01*
X7786Y295222D01*
X7285Y294014D01*
X7115Y292717D01*
X7285Y291420D01*
X7786Y290211D01*
X8582Y289173D01*
X9620Y288377D01*
X10560Y287987D01*
Y287446D01*
X9620Y287056D01*
X8582Y286260D01*
X7786Y285222D01*
X7285Y284014D01*
X7115Y282716D01*
X7285Y281419D01*
X7786Y280211D01*
X8582Y279173D01*
X9620Y278377D01*
X10560Y277987D01*
Y277446D01*
X9620Y277057D01*
X8582Y276260D01*
X7786Y275222D01*
X7285Y274014D01*
X7115Y272716D01*
X7285Y271420D01*
X7786Y270211D01*
X8582Y269173D01*
X9620Y268377D01*
X10560Y267987D01*
Y267446D01*
X9620Y267056D01*
X8582Y266260D01*
X7786Y265222D01*
X7285Y264014D01*
X7115Y262717D01*
X7285Y261420D01*
X7786Y260211D01*
X8582Y259173D01*
X9620Y258377D01*
X10560Y257987D01*
Y257446D01*
X9620Y257056D01*
X8582Y256260D01*
X7786Y255222D01*
X7285Y254014D01*
X7115Y252716D01*
X7285Y251419D01*
X7786Y250211D01*
X8582Y249173D01*
X9620Y248377D01*
X10560Y247987D01*
Y247446D01*
X9620Y247057D01*
X8582Y246260D01*
X7786Y245222D01*
X7285Y244014D01*
X7115Y242717D01*
X7285Y241420D01*
X7786Y240211D01*
X8582Y239173D01*
X9620Y238377D01*
X10560Y237987D01*
Y237446D01*
X9620Y237056D01*
X8582Y236260D01*
X7786Y235222D01*
X7285Y234014D01*
X7115Y232716D01*
X7285Y231419D01*
X7786Y230211D01*
X8582Y229173D01*
X9620Y228377D01*
X10560Y227987D01*
Y227446D01*
X9620Y227057D01*
X8582Y226260D01*
X7786Y225222D01*
X7285Y224014D01*
X7115Y222716D01*
X7285Y221420D01*
X7786Y220211D01*
X8582Y219173D01*
X9620Y218377D01*
X10560Y217987D01*
Y217446D01*
X9620Y217056D01*
X8582Y216260D01*
X7786Y215222D01*
X7285Y214014D01*
X7115Y212717D01*
X7285Y211420D01*
X7786Y210211D01*
X8582Y209173D01*
X9620Y208377D01*
X10560Y207987D01*
Y207446D01*
X9620Y207056D01*
X8582Y206260D01*
X7786Y205222D01*
X7285Y204014D01*
X7115Y202716D01*
X7285Y201419D01*
X7786Y200211D01*
X8582Y199173D01*
X9620Y198377D01*
X10829Y197876D01*
X10860Y197872D01*
X10989Y197389D01*
X10593Y197085D01*
X9876Y196151D01*
X9426Y195064D01*
X9273Y193898D01*
X9426Y192731D01*
X9876Y191644D01*
X10593Y190711D01*
X11526Y189994D01*
X12613Y189544D01*
X13780Y189391D01*
X14946Y189544D01*
X16033Y189994D01*
X16816Y190595D01*
X17482Y189726D01*
X18416Y189010D01*
X19503Y188560D01*
X20669Y188406D01*
X21836Y188560D01*
X22923Y189010D01*
X23856Y189726D01*
X24573Y190660D01*
X25023Y191747D01*
X25176Y192913D01*
X25023Y194080D01*
X24573Y195167D01*
X23856Y196100D01*
X23186Y196615D01*
Y209587D01*
X46407Y232808D01*
X47244Y232698D01*
X48411Y232851D01*
X49498Y233301D01*
X50431Y234018D01*
X51147Y234951D01*
X51598Y236038D01*
X51751Y237205D01*
X51598Y238371D01*
X51147Y239458D01*
X50431Y240392D01*
X49498Y241108D01*
X48411Y241558D01*
X47244Y241712D01*
X46078Y241558D01*
X44991Y241108D01*
X44057Y240392D01*
X43341Y239458D01*
X42891Y238371D01*
X42737Y237205D01*
X42847Y236367D01*
X21680Y215200D01*
X21218Y215391D01*
Y262737D01*
X28602Y270121D01*
X37637D01*
X38152Y269451D01*
X39085Y268735D01*
X40172Y268284D01*
X41339Y268131D01*
X42505Y268284D01*
X43592Y268735D01*
X44526Y269451D01*
X45242Y270384D01*
X45294Y270511D01*
X45781Y270380D01*
X45690Y269685D01*
X45843Y268518D01*
X46294Y267431D01*
X47010Y266498D01*
X47943Y265782D01*
X49030Y265332D01*
X50197Y265178D01*
X51363Y265332D01*
X52450Y265782D01*
X53234Y266383D01*
X73263D01*
X73534Y266176D01*
X74621Y265725D01*
X75787Y265572D01*
X76954Y265725D01*
X77410Y265914D01*
X77845Y265553D01*
X77715Y264567D01*
X77877Y263334D01*
X78354Y262184D01*
X79111Y261197D01*
X80098Y260440D01*
X81247Y259964D01*
X82480Y259802D01*
X83714Y259964D01*
X84863Y260440D01*
X85850Y261197D01*
X86607Y262184D01*
X87083Y263334D01*
X87246Y264567D01*
X87083Y265800D01*
X86607Y266950D01*
X85850Y267936D01*
X84863Y268694D01*
X83714Y269170D01*
X82480Y269332D01*
X81247Y269170D01*
X80646Y268921D01*
X80188Y269272D01*
X80295Y270079D01*
X80141Y271245D01*
X79691Y272332D01*
X80057Y272676D01*
X80098Y272645D01*
X81247Y272169D01*
X82480Y272007D01*
X83714Y272169D01*
X84863Y272645D01*
X85850Y273402D01*
X86607Y274389D01*
X87083Y275538D01*
X87246Y276772D01*
X87083Y278005D01*
X86607Y279154D01*
X85850Y280141D01*
X84863Y280898D01*
X83714Y281374D01*
X82480Y281537D01*
X81247Y281374D01*
X80098Y280898D01*
X79111Y280141D01*
X78354Y279154D01*
X77877Y278005D01*
X77715Y276772D01*
X77877Y275538D01*
X78354Y274389D01*
X78385Y274348D01*
X78041Y273982D01*
X76954Y274432D01*
X75787Y274586D01*
X74621Y274432D01*
X73534Y273982D01*
X72750Y273380D01*
X52721D01*
X52450Y273588D01*
X51363Y274039D01*
X50197Y274192D01*
X49030Y274039D01*
X47943Y273588D01*
X47010Y272872D01*
X46294Y271939D01*
X46241Y271812D01*
X45754Y271943D01*
X45846Y272638D01*
X45692Y273804D01*
X45242Y274891D01*
X44526Y275825D01*
X43592Y276541D01*
X42505Y276991D01*
X41339Y277145D01*
X40172Y276991D01*
X39085Y276541D01*
X38152Y275825D01*
X37637Y275155D01*
X27559D01*
X26596Y274963D01*
X25779Y274417D01*
X16921Y265559D01*
X16873Y265487D01*
X16267Y265481D01*
X15670Y266260D01*
X14632Y267056D01*
X13691Y267446D01*
Y267987D01*
X14632Y268377D01*
X15670Y269173D01*
X16466Y270211D01*
X16967Y271420D01*
X17137Y272716D01*
X16967Y274014D01*
X16466Y275222D01*
X15670Y276260D01*
X14632Y277057D01*
X13691Y277446D01*
Y277987D01*
X14632Y278377D01*
X15670Y279173D01*
X16466Y280211D01*
X16967Y281419D01*
X17137Y282716D01*
X16967Y284014D01*
X16466Y285222D01*
X15670Y286260D01*
X14632Y287056D01*
X13691Y287446D01*
Y287987D01*
X14632Y288377D01*
X15670Y289173D01*
X16466Y290211D01*
X16967Y291420D01*
X17137Y292717D01*
X16967Y294014D01*
X16466Y295222D01*
X15670Y296260D01*
X14632Y297057D01*
X13691Y297446D01*
Y297987D01*
X14632Y298377D01*
X15670Y299173D01*
X16466Y300211D01*
X16967Y301419D01*
X17137Y302716D01*
X16967Y304014D01*
X16466Y305222D01*
X15670Y306260D01*
X14632Y307056D01*
X13691Y307446D01*
Y307987D01*
X14632Y308377D01*
X15670Y309173D01*
X16466Y310211D01*
X16967Y311420D01*
X17137Y312717D01*
X16967Y314014D01*
X16466Y315222D01*
X15670Y316260D01*
X14632Y317056D01*
X13423Y317557D01*
X12126Y317728D01*
D02*
G37*
G36*
X94685Y269332D02*
X93452Y269170D01*
X92302Y268694D01*
X91316Y267936D01*
X90558Y266950D01*
X90082Y265800D01*
X89920Y264567D01*
X90082Y263334D01*
X90558Y262184D01*
X91316Y261197D01*
X92302Y260440D01*
X93452Y259964D01*
X94685Y259802D01*
X95918Y259964D01*
X97068Y260440D01*
X98054Y261197D01*
X98812Y262184D01*
X99288Y263334D01*
X99450Y264567D01*
X99288Y265800D01*
X98812Y266950D01*
X98054Y267936D01*
X97068Y268694D01*
X95918Y269170D01*
X94685Y269332D01*
D02*
G37*
G36*
X298465Y256544D02*
X297026Y256354D01*
X295685Y255799D01*
X294533Y254915D01*
X293761Y253908D01*
X293625Y253868D01*
X293304D01*
X293168Y253908D01*
X292396Y254915D01*
X291244Y255799D01*
X289903Y256354D01*
X288465Y256544D01*
X287026Y256354D01*
X285685Y255799D01*
X284534Y254915D01*
X283761Y253908D01*
X283626Y253868D01*
X283304D01*
X283169Y253908D01*
X282396Y254915D01*
X281244Y255799D01*
X279903Y256354D01*
X278465Y256544D01*
X277026Y256354D01*
X275685Y255799D01*
X274534Y254915D01*
X273650Y253764D01*
X273211Y252704D01*
X272670D01*
X272433Y253275D01*
X271705Y254225D01*
X270756Y254953D01*
X269651Y255411D01*
X268965Y255501D01*
Y250984D01*
Y246468D01*
X269651Y246558D01*
X270756Y247016D01*
X271705Y247744D01*
X272433Y248693D01*
X272670Y249264D01*
X273211D01*
X273650Y248205D01*
X274534Y247053D01*
X275685Y246170D01*
X277026Y245614D01*
X278465Y245425D01*
X279903Y245614D01*
X281244Y246170D01*
X282396Y247053D01*
X283169Y248060D01*
X283304Y248101D01*
X283626D01*
X283761Y248060D01*
X284534Y247053D01*
X285685Y246170D01*
X287026Y245614D01*
X288465Y245425D01*
X289903Y245614D01*
X291244Y246170D01*
X292396Y247053D01*
X293168Y248060D01*
X293304Y248101D01*
X293625D01*
X293761Y248060D01*
X294533Y247053D01*
X295685Y246170D01*
X297026Y245614D01*
X298465Y245425D01*
X299903Y245614D01*
X301244Y246170D01*
X302396Y247053D01*
X303279Y248205D01*
X303835Y249545D01*
X304024Y250984D01*
X303835Y252423D01*
X303279Y253764D01*
X302396Y254915D01*
X301244Y255799D01*
X299903Y256354D01*
X298465Y256544D01*
D02*
G37*
G36*
X267965Y255501D02*
X267279Y255411D01*
X266173Y254953D01*
X265224Y254225D01*
X264496Y253275D01*
X264038Y252170D01*
X263948Y251484D01*
X267965D01*
Y255501D01*
D02*
G37*
G36*
X139764Y261648D02*
X129921D01*
X128571Y261514D01*
X127272Y261121D01*
X126075Y260481D01*
X125026Y259620D01*
X124165Y258571D01*
X123525Y257374D01*
X123131Y256075D01*
X122998Y254724D01*
X123131Y253374D01*
X123525Y252075D01*
X124165Y250878D01*
X125026Y249829D01*
X126075Y248968D01*
X127272Y248328D01*
X128571Y247934D01*
X129921Y247801D01*
X139764D01*
X141114Y247934D01*
X142413Y248328D01*
X143610Y248968D01*
X144659Y249829D01*
X145520Y250878D01*
X146160Y252075D01*
X146554Y253374D01*
X146687Y254724D01*
X146554Y256075D01*
X146160Y257374D01*
X145520Y258571D01*
X144659Y259620D01*
X143610Y260481D01*
X142413Y261121D01*
X141114Y261514D01*
X139764Y261648D01*
D02*
G37*
G36*
X332835Y287728D02*
X331538Y287557D01*
X330329Y287056D01*
X329291Y286260D01*
X328495Y285222D01*
X327994Y284014D01*
X327823Y282716D01*
X327994Y281419D01*
X328495Y280211D01*
X329291Y279173D01*
X330329Y278377D01*
X331228Y278004D01*
Y277463D01*
X330246Y277057D01*
X329208Y276260D01*
X328412Y275222D01*
X327911Y274014D01*
X327741Y272716D01*
X327911Y271420D01*
X328412Y270211D01*
X329208Y269173D01*
X330246Y268377D01*
X331228Y267970D01*
Y267429D01*
X330329Y267056D01*
X329291Y266260D01*
X328495Y265222D01*
X327994Y264014D01*
X327823Y262717D01*
X327994Y261420D01*
X328495Y260211D01*
X329291Y259173D01*
X330329Y258377D01*
X331228Y258004D01*
Y257463D01*
X330246Y257056D01*
X329208Y256260D01*
X328412Y255222D01*
X327911Y254014D01*
X327741Y252716D01*
X327911Y251419D01*
X328412Y250211D01*
X329208Y249173D01*
X330246Y248377D01*
X331455Y247876D01*
X332752Y247705D01*
X334049Y247876D01*
X335258Y248377D01*
X336296Y249173D01*
X337092Y250211D01*
X337593Y251419D01*
X337763Y252716D01*
X337593Y254014D01*
X337092Y255222D01*
X336296Y256260D01*
X335258Y257056D01*
X334359Y257429D01*
Y257970D01*
X335340Y258377D01*
X336378Y259173D01*
X337175Y260211D01*
X337675Y261420D01*
X337846Y262717D01*
X337675Y264014D01*
X337175Y265222D01*
X336378Y266260D01*
X335340Y267056D01*
X334359Y267463D01*
Y268004D01*
X335258Y268377D01*
X336296Y269173D01*
X337092Y270211D01*
X337593Y271420D01*
X337763Y272716D01*
X337593Y274014D01*
X337092Y275222D01*
X336296Y276260D01*
X335258Y277057D01*
X334359Y277429D01*
Y277970D01*
X335340Y278377D01*
X336378Y279173D01*
X337175Y280211D01*
X337675Y281419D01*
X337846Y282716D01*
X337675Y284014D01*
X337175Y285222D01*
X336378Y286260D01*
X335340Y287056D01*
X334132Y287557D01*
X332835Y287728D01*
D02*
G37*
G36*
X267965Y250484D02*
X263948D01*
X264038Y249798D01*
X264496Y248693D01*
X265224Y247744D01*
X266173Y247016D01*
X267279Y246558D01*
X267965Y246468D01*
Y250484D01*
D02*
G37*
G36*
X301575Y238236D02*
X300136Y238047D01*
X298795Y237492D01*
X297644Y236608D01*
X296871Y235601D01*
X296736Y235560D01*
X296414D01*
X296279Y235601D01*
X295506Y236608D01*
X294355Y237492D01*
X293014Y238047D01*
X291575Y238236D01*
X290136Y238047D01*
X288795Y237492D01*
X287644Y236608D01*
X286871Y235601D01*
X286736Y235560D01*
X286414D01*
X286279Y235601D01*
X285506Y236608D01*
X284354Y237492D01*
X283014Y238047D01*
X281575Y238236D01*
X280136Y238047D01*
X278795Y237492D01*
X277644Y236608D01*
X276871Y235601D01*
X276736Y235560D01*
X276414D01*
X276279Y235601D01*
X275506Y236608D01*
X274355Y237492D01*
X273014Y238047D01*
X271575Y238236D01*
X270136Y238047D01*
X268795Y237492D01*
X267644Y236608D01*
X266871Y235601D01*
X266736Y235560D01*
X266414D01*
X266279Y235601D01*
X265506Y236608D01*
X264354Y237492D01*
X263014Y238047D01*
X261575Y238236D01*
X260136Y238047D01*
X258795Y237492D01*
X257644Y236608D01*
X256871Y235601D01*
X256736Y235560D01*
X256414D01*
X256279Y235601D01*
X255506Y236608D01*
X254355Y237492D01*
X253014Y238047D01*
X251575Y238236D01*
X250136Y238047D01*
X248795Y237492D01*
X247644Y236608D01*
X246760Y235457D01*
X246205Y234116D01*
X246015Y232677D01*
X246205Y231238D01*
X246760Y229897D01*
X247644Y228746D01*
X248795Y227863D01*
X250136Y227307D01*
X251575Y227118D01*
X253014Y227307D01*
X254355Y227863D01*
X255506Y228746D01*
X256279Y229753D01*
X256414Y229794D01*
X256736D01*
X256871Y229753D01*
X257644Y228746D01*
X258795Y227863D01*
X260136Y227307D01*
X261575Y227118D01*
X263014Y227307D01*
X264354Y227863D01*
X265506Y228746D01*
X266279Y229753D01*
X266414Y229794D01*
X266736D01*
X266871Y229753D01*
X267644Y228746D01*
X268795Y227863D01*
X270136Y227307D01*
X271575Y227118D01*
X273014Y227307D01*
X274355Y227863D01*
X275506Y228746D01*
X276279Y229753D01*
X276414Y229794D01*
X276736D01*
X276871Y229753D01*
X277644Y228746D01*
X278795Y227863D01*
X280136Y227307D01*
X281575Y227118D01*
X283014Y227307D01*
X284354Y227863D01*
X285506Y228746D01*
X286279Y229753D01*
X286414Y229794D01*
X286736D01*
X286871Y229753D01*
X287644Y228746D01*
X288795Y227863D01*
X290136Y227307D01*
X291575Y227118D01*
X293014Y227307D01*
X294355Y227863D01*
X295506Y228746D01*
X296279Y229753D01*
X296414Y229794D01*
X296736D01*
X296871Y229753D01*
X297644Y228746D01*
X298795Y227863D01*
X300136Y227307D01*
X301575Y227118D01*
X303014Y227307D01*
X304355Y227863D01*
X305506Y228746D01*
X306389Y229897D01*
X306945Y231238D01*
X307134Y232677D01*
X306945Y234116D01*
X306389Y235457D01*
X305506Y236608D01*
X304355Y237492D01*
X303014Y238047D01*
X301575Y238236D01*
D02*
G37*
G36*
X90945Y230491D02*
X89778Y230338D01*
X88691Y229888D01*
X88164Y229483D01*
X68223D01*
X67504Y229781D01*
X66476Y229916D01*
X65913Y229842D01*
X65413Y229882D01*
X65413Y229882D01*
X65413Y229882D01*
X57539D01*
Y222008D01*
X58217D01*
X58556Y221508D01*
X58548Y221445D01*
X61476D01*
Y220445D01*
X58548D01*
X58584Y220170D01*
X58883Y219448D01*
X59139Y219114D01*
X58669Y218753D01*
X58037Y217930D01*
X57641Y216973D01*
X57505Y215945D01*
X57641Y214917D01*
X58037Y213959D01*
X58432Y213445D01*
X58037Y212930D01*
X57641Y211973D01*
X57505Y210945D01*
X57515Y210871D01*
X55929Y209285D01*
X55383Y208469D01*
X55192Y207505D01*
Y195386D01*
X54776Y195108D01*
X54316Y195298D01*
X53150Y195452D01*
X51983Y195298D01*
X50896Y194848D01*
X49963Y194132D01*
X49246Y193198D01*
X48796Y192111D01*
X48643Y190945D01*
X48796Y189778D01*
X49246Y188691D01*
X49963Y187758D01*
X50633Y187244D01*
Y158465D01*
X50824Y157501D01*
X51370Y156685D01*
X55643Y152412D01*
X55532Y151575D01*
X55686Y150408D01*
X56136Y149321D01*
X56852Y148388D01*
X57786Y147672D01*
X58873Y147221D01*
X60039Y147068D01*
X61206Y147221D01*
X62293Y147672D01*
X63226Y148388D01*
X63943Y149321D01*
X64393Y150408D01*
X64546Y151575D01*
X64393Y152741D01*
X63943Y153828D01*
X63226Y154762D01*
X62293Y155478D01*
X61206Y155928D01*
X60039Y156082D01*
X59202Y155972D01*
X55667Y159507D01*
Y186130D01*
X56166Y186337D01*
X64165Y178338D01*
X64982Y177793D01*
X65945Y177601D01*
X74803D01*
X75766Y177793D01*
X76583Y178338D01*
X78887Y180643D01*
X79724Y180532D01*
X80891Y180686D01*
X81978Y181136D01*
X82911Y181852D01*
X83628Y182786D01*
X84078Y183873D01*
X84232Y185039D01*
X84078Y186206D01*
X83628Y187293D01*
X82911Y188226D01*
X81978Y188943D01*
X80891Y189393D01*
X79724Y189546D01*
X78558Y189393D01*
X77471Y188943D01*
X76537Y188226D01*
X75821Y187293D01*
X75371Y186206D01*
X75217Y185039D01*
X75328Y184202D01*
X74620Y183494D01*
X74196Y183777D01*
X74235Y183873D01*
X74389Y185039D01*
X74235Y186206D01*
X73785Y187293D01*
X73069Y188226D01*
X72135Y188943D01*
X71048Y189393D01*
X69882Y189546D01*
X69045Y189436D01*
X63993Y194487D01*
Y202323D01*
X64442Y202544D01*
X64491Y202506D01*
X65449Y202109D01*
X66476Y201974D01*
X67504Y202109D01*
X68462Y202506D01*
X69284Y203137D01*
X69915Y203959D01*
X70312Y204917D01*
X70447Y205945D01*
X70312Y206973D01*
X69915Y207930D01*
X69520Y208445D01*
X69915Y208959D01*
X70312Y209917D01*
X70447Y210945D01*
X70312Y211973D01*
X69915Y212930D01*
X69520Y213445D01*
X69915Y213959D01*
X70312Y214917D01*
X70447Y215945D01*
X70312Y216973D01*
X69915Y217930D01*
X69284Y218753D01*
X68813Y219114D01*
X69069Y219448D01*
X69368Y220170D01*
X69405Y220445D01*
X66476D01*
Y221445D01*
X69405D01*
X69368Y221720D01*
X69258Y221986D01*
X69592Y222486D01*
X88164D01*
X88691Y222081D01*
X89778Y221631D01*
X90945Y221477D01*
X92111Y221631D01*
X93198Y222081D01*
X94132Y222797D01*
X94848Y223731D01*
X95298Y224818D01*
X95452Y225984D01*
X95298Y227151D01*
X94848Y228238D01*
X94132Y229171D01*
X93198Y229888D01*
X92111Y230338D01*
X90945Y230491D01*
D02*
G37*
G36*
X135433Y197421D02*
X134267Y197267D01*
X133179Y196817D01*
X132246Y196100D01*
X131732Y195430D01*
X105315D01*
X104352Y195239D01*
X103535Y194693D01*
X93357Y184515D01*
X92520Y184625D01*
X91353Y184472D01*
X90266Y184021D01*
X89333Y183305D01*
X88617Y182372D01*
X88166Y181285D01*
X88013Y180118D01*
X88166Y178952D01*
X88617Y177865D01*
X89333Y176931D01*
X90266Y176215D01*
X91353Y175765D01*
X92520Y175611D01*
X93686Y175765D01*
X94773Y176215D01*
X95707Y176931D01*
X96423Y177865D01*
X96873Y178952D01*
X97027Y180118D01*
X96917Y180956D01*
X106358Y190396D01*
X131732D01*
X132078Y189946D01*
X131864Y189413D01*
X131708Y189393D01*
X130621Y188943D01*
X130093Y188538D01*
X114986D01*
X114458Y188943D01*
X113371Y189393D01*
X112205Y189546D01*
X111038Y189393D01*
X109951Y188943D01*
X109018Y188226D01*
X108301Y187293D01*
X107851Y186206D01*
X107698Y185039D01*
X107851Y183873D01*
X108301Y182786D01*
X109018Y181852D01*
X109930Y181152D01*
X109937Y181067D01*
X109849Y180637D01*
X109070Y180535D01*
X107983Y180084D01*
X107049Y179368D01*
X107041Y179358D01*
X106541D01*
X106533Y179368D01*
X105600Y180084D01*
X104513Y180535D01*
X103347Y180688D01*
X102180Y180535D01*
X101093Y180084D01*
X100160Y179368D01*
X99443Y178435D01*
X98993Y177348D01*
X98839Y176181D01*
X98993Y175015D01*
X99443Y173928D01*
X100160Y172994D01*
X100830Y172480D01*
Y159603D01*
X101021Y158640D01*
X101567Y157824D01*
X105009Y154381D01*
X104899Y153543D01*
X105053Y152377D01*
X105503Y151290D01*
X106219Y150356D01*
X107153Y149640D01*
X108240Y149190D01*
X109406Y149036D01*
X110573Y149190D01*
X111660Y149640D01*
X112593Y150356D01*
X113310Y151290D01*
X113760Y152377D01*
X113913Y153543D01*
X113760Y154710D01*
X113310Y155797D01*
X112593Y156730D01*
X112344Y156921D01*
X112410Y157417D01*
X112644Y157514D01*
X113577Y158230D01*
X113585Y158241D01*
X114085D01*
X114093Y158230D01*
X115027Y157514D01*
X116114Y157064D01*
X117280Y156910D01*
X118447Y157064D01*
X119534Y157514D01*
X120467Y158230D01*
X120475Y158241D01*
X120975D01*
X120983Y158230D01*
X121917Y157514D01*
X123004Y157064D01*
X124170Y156910D01*
X125337Y157064D01*
X126424Y157514D01*
X127357Y158230D01*
X128073Y159164D01*
X128524Y160251D01*
X128677Y161417D01*
X128524Y162584D01*
X128073Y163671D01*
X127514Y164400D01*
Y173400D01*
X127919Y173927D01*
X128369Y175014D01*
X128523Y176181D01*
X128369Y177347D01*
X127919Y178434D01*
X127202Y179368D01*
X126269Y180084D01*
X125182Y180534D01*
X124015Y180688D01*
X122849Y180534D01*
X121762Y180084D01*
X120828Y179368D01*
X120821Y179358D01*
X120507D01*
X120241Y179423D01*
X119379Y180084D01*
X118292Y180535D01*
X117126Y180688D01*
X115960Y180535D01*
X114873Y180084D01*
X113939Y179368D01*
X113931Y179358D01*
X113431D01*
X113423Y179368D01*
X112511Y180068D01*
X112504Y180154D01*
X112592Y180583D01*
X113371Y180686D01*
X114458Y181136D01*
X114986Y181541D01*
X129376D01*
Y168307D01*
X129435Y167854D01*
X129495Y167402D01*
X129844Y166558D01*
X130400Y165833D01*
X138276Y157957D01*
X138363Y157298D01*
X138813Y156211D01*
X139530Y155278D01*
X140463Y154561D01*
X141550Y154111D01*
X142717Y153957D01*
X143883Y154111D01*
X144970Y154561D01*
X145904Y155278D01*
X146620Y156211D01*
X147070Y157298D01*
X147224Y158465D01*
X147070Y159631D01*
X146620Y160718D01*
X145904Y161652D01*
X144970Y162368D01*
X143883Y162818D01*
X143224Y162905D01*
X136372Y169756D01*
Y182258D01*
X136777Y182786D01*
X137227Y183873D01*
X137381Y185039D01*
X137227Y186206D01*
X136777Y187293D01*
X136229Y188007D01*
X136443Y188539D01*
X136600Y188560D01*
X137687Y189010D01*
X138620Y189726D01*
X139336Y190660D01*
X139787Y191747D01*
X139940Y192913D01*
X139787Y194080D01*
X139336Y195167D01*
X138620Y196100D01*
X137687Y196817D01*
X136600Y197267D01*
X135433Y197421D01*
D02*
G37*
G36*
X233268Y181672D02*
X232101Y181519D01*
X231014Y181069D01*
X230081Y180352D01*
X230072Y180341D01*
X229758D01*
X229493Y180407D01*
X228631Y181068D01*
X227544Y181518D01*
X226378Y181672D01*
X225211Y181518D01*
X224124Y181068D01*
X223190Y180352D01*
X222474Y179419D01*
X222024Y178331D01*
X221870Y177165D01*
X222024Y175998D01*
X222474Y174911D01*
X223190Y173978D01*
X223861Y173464D01*
Y167087D01*
X223191Y166573D01*
X222475Y165639D01*
X222024Y164552D01*
X221871Y163386D01*
X222024Y162219D01*
X222475Y161132D01*
X223191Y160199D01*
X224124Y159483D01*
X225211Y159032D01*
X226378Y158879D01*
X227544Y159032D01*
X228631Y159483D01*
X229565Y160199D01*
X229573Y160209D01*
X230073D01*
X230081Y160199D01*
X231014Y159483D01*
X232101Y159032D01*
X233268Y158879D01*
X234434Y159032D01*
X235521Y159483D01*
X236455Y160199D01*
X237171Y161132D01*
X237621Y162219D01*
X237775Y163386D01*
X237621Y164552D01*
X237171Y165639D01*
X236766Y166167D01*
Y174384D01*
X237171Y174912D01*
X237621Y175999D01*
X237775Y177165D01*
X237621Y178332D01*
X237171Y179419D01*
X236455Y180352D01*
X235521Y181069D01*
X234434Y181519D01*
X233268Y181672D01*
D02*
G37*
G36*
X331024Y189410D02*
X329403Y189250D01*
X327844Y188778D01*
X326408Y188010D01*
X325149Y186977D01*
X324116Y185718D01*
X323348Y184282D01*
X322875Y182723D01*
X322716Y181102D01*
X322875Y179482D01*
X323348Y177923D01*
X324116Y176487D01*
X325149Y175228D01*
X326408Y174195D01*
X327844Y173427D01*
X329403Y172954D01*
X331024Y172795D01*
X332644Y172954D01*
X334203Y173427D01*
X335639Y174195D01*
X336898Y175228D01*
X337931Y176487D01*
X338699Y177923D01*
X339172Y179482D01*
X339331Y181102D01*
X339172Y182723D01*
X338699Y184282D01*
X337931Y185718D01*
X336898Y186977D01*
X335639Y188010D01*
X334203Y188778D01*
X332644Y189250D01*
X331024Y189410D01*
D02*
G37*
G36*
X31496D02*
X29875Y189250D01*
X28317Y188778D01*
X26880Y188010D01*
X25622Y186977D01*
X24588Y185718D01*
X23821Y184282D01*
X23348Y182723D01*
X23188Y181102D01*
X23348Y179482D01*
X23821Y177923D01*
X24588Y176487D01*
X25622Y175228D01*
X26880Y174195D01*
X28317Y173427D01*
X29875Y172954D01*
X31496Y172795D01*
X33117Y172954D01*
X34675Y173427D01*
X36112Y174195D01*
X37370Y175228D01*
X38404Y176487D01*
X39171Y177923D01*
X39644Y179482D01*
X39804Y181102D01*
X39644Y182723D01*
X39171Y184282D01*
X38404Y185718D01*
X37370Y186977D01*
X36112Y188010D01*
X34675Y188778D01*
X33117Y189250D01*
X31496Y189410D01*
D02*
G37*
G36*
X83816Y161391D02*
X82649Y161237D01*
X81562Y160787D01*
X80629Y160071D01*
X79913Y159137D01*
X79462Y158051D01*
X79435Y157844D01*
X78894Y157565D01*
X78092Y157897D01*
X76926Y158050D01*
X75760Y157897D01*
X74673Y157447D01*
X73739Y156730D01*
X73023Y155797D01*
X72572Y154710D01*
X72419Y153543D01*
X72572Y152377D01*
X73023Y151290D01*
X73739Y150356D01*
X74673Y149640D01*
X75760Y149190D01*
X76926Y149036D01*
X77763Y149146D01*
X92863Y134047D01*
X93050Y133922D01*
X92898Y133422D01*
X78895D01*
X77931Y133231D01*
X77115Y132685D01*
X74811Y130381D01*
X73973Y130491D01*
X72807Y130338D01*
X71720Y129887D01*
X70786Y129171D01*
X70070Y128238D01*
X69620Y127151D01*
X69466Y125984D01*
X69620Y124818D01*
X70070Y123731D01*
X70786Y122797D01*
X71720Y122081D01*
X72807Y121631D01*
X73973Y121477D01*
X75140Y121631D01*
X76227Y122081D01*
X77160Y122797D01*
X77877Y123731D01*
X78327Y124818D01*
X78480Y125984D01*
X78370Y126822D01*
X79937Y128389D01*
X105551D01*
X106065Y127718D01*
X106998Y127002D01*
X108086Y126552D01*
X108897Y126445D01*
X109118Y125912D01*
X108637Y125285D01*
X108187Y124198D01*
X108033Y123031D01*
X108187Y121865D01*
X108637Y120778D01*
X109353Y119844D01*
X110287Y119128D01*
X111374Y118678D01*
X112540Y118524D01*
X113707Y118678D01*
X114794Y119128D01*
X115727Y119844D01*
X116444Y120778D01*
X116894Y121865D01*
X116981Y122524D01*
X135350Y140893D01*
X136009Y140980D01*
X137096Y141430D01*
X138030Y142147D01*
X138746Y143080D01*
X139196Y144167D01*
X139350Y145334D01*
X139196Y146500D01*
X138746Y147587D01*
X138030Y148521D01*
X137096Y149237D01*
X136009Y149687D01*
X134843Y149841D01*
X133676Y149687D01*
X132589Y149237D01*
X131656Y148521D01*
X130939Y147587D01*
X130489Y146500D01*
X130402Y145841D01*
X123881Y139319D01*
X123473Y139567D01*
X123450Y139596D01*
X123601Y140748D01*
X123448Y141914D01*
X122998Y143002D01*
X122282Y143935D01*
X121348Y144651D01*
X120261Y145101D01*
X119095Y145255D01*
X117928Y145101D01*
X116841Y144651D01*
X115908Y143935D01*
X115393Y143265D01*
X100994D01*
X88213Y156046D01*
X88323Y156884D01*
X88169Y158051D01*
X87719Y159137D01*
X87003Y160071D01*
X86069Y160787D01*
X84982Y161237D01*
X83816Y161391D01*
D02*
G37*
G36*
X267717Y160019D02*
X266550Y159865D01*
X265463Y159415D01*
X264530Y158699D01*
X263813Y157765D01*
X263363Y156678D01*
X263210Y155512D01*
X263320Y154674D01*
X252806Y144161D01*
X251969Y144271D01*
X250802Y144117D01*
X249715Y143667D01*
X248781Y142951D01*
X248065Y142017D01*
X247615Y140930D01*
X247462Y139764D01*
X247615Y138597D01*
X248065Y137510D01*
X248781Y136577D01*
X249715Y135861D01*
X250802Y135410D01*
X251969Y135257D01*
X253135Y135410D01*
X254222Y135861D01*
X255155Y136577D01*
X255872Y137510D01*
X256322Y138597D01*
X256476Y139764D01*
X256365Y140601D01*
X266879Y151115D01*
X267717Y151005D01*
X268883Y151158D01*
X269970Y151609D01*
X270903Y152325D01*
X271620Y153258D01*
X272070Y154345D01*
X272224Y155512D01*
X272070Y156678D01*
X271620Y157765D01*
X270903Y158699D01*
X269970Y159415D01*
X268883Y159865D01*
X267717Y160019D01*
D02*
G37*
G36*
X292461Y142807D02*
X291164Y142636D01*
X289955Y142135D01*
X288917Y141339D01*
X288121Y140301D01*
X287620Y139092D01*
X287449Y137795D01*
X287620Y136498D01*
X288121Y135290D01*
X288917Y134252D01*
X289955Y133455D01*
X291164Y132955D01*
X292461Y132784D01*
X293758Y132955D01*
X294966Y133455D01*
X296004Y134252D01*
X296801Y135290D01*
X297301Y136498D01*
X297472Y137795D01*
X297301Y139092D01*
X296801Y140301D01*
X296004Y141339D01*
X294966Y142135D01*
X293758Y142636D01*
X292461Y142807D01*
D02*
G37*
G36*
X262657D02*
X261360Y142636D01*
X260152Y142135D01*
X259114Y141339D01*
X258317Y140301D01*
X257817Y139092D01*
X257646Y137795D01*
X257817Y136498D01*
X258317Y135290D01*
X259114Y134252D01*
X260152Y133455D01*
X261360Y132955D01*
X262657Y132784D01*
X263954Y132955D01*
X265163Y133455D01*
X266201Y134252D01*
X266998Y135290D01*
X267498Y136498D01*
X267669Y137795D01*
X267498Y139092D01*
X266998Y140301D01*
X266201Y141339D01*
X265163Y142135D01*
X263954Y142636D01*
X262657Y142807D01*
D02*
G37*
G36*
X66099Y137381D02*
X64933Y137227D01*
X63846Y136777D01*
X62912Y136061D01*
X62196Y135127D01*
X61746Y134040D01*
X61592Y132874D01*
X61702Y132037D01*
X56445Y126780D01*
X55900Y125963D01*
X55708Y125000D01*
Y106161D01*
X55900Y105198D01*
X56445Y104382D01*
X61548Y99279D01*
X61438Y98442D01*
X61591Y97275D01*
X62042Y96188D01*
X62758Y95255D01*
X63691Y94538D01*
X64778Y94088D01*
X65945Y93935D01*
X67111Y94088D01*
X68198Y94538D01*
X69132Y95255D01*
X69848Y96188D01*
X70298Y97275D01*
X70452Y98442D01*
X70298Y99608D01*
X69848Y100695D01*
X69132Y101629D01*
X68198Y102345D01*
X67111Y102795D01*
X65945Y102949D01*
X65108Y102839D01*
X60742Y107204D01*
Y123958D01*
X65262Y128477D01*
X66099Y128367D01*
X67266Y128521D01*
X68353Y128971D01*
X69286Y129687D01*
X70003Y130621D01*
X70453Y131708D01*
X70606Y132874D01*
X70453Y134040D01*
X70003Y135127D01*
X69286Y136061D01*
X68353Y136777D01*
X67266Y137227D01*
X66099Y137381D01*
D02*
G37*
G36*
X237621Y123784D02*
X236455Y123630D01*
X235368Y123180D01*
X234434Y122464D01*
X233827Y121673D01*
X233471Y121602D01*
X232655Y121056D01*
X216477Y104879D01*
X214212D01*
X213649Y105612D01*
X212716Y106328D01*
X211629Y106779D01*
X210462Y106932D01*
X209296Y106779D01*
X208209Y106328D01*
X207275Y105612D01*
X206559Y104679D01*
X206109Y103592D01*
X205955Y102425D01*
X206109Y101259D01*
X206559Y100172D01*
X207275Y99238D01*
X208209Y98522D01*
X209296Y98072D01*
X210462Y97918D01*
X211629Y98072D01*
X212716Y98522D01*
X213649Y99238D01*
X214115Y99845D01*
X217520D01*
X218483Y100037D01*
X219299Y100583D01*
X234645Y115928D01*
X235368Y115374D01*
X236455Y114923D01*
X237621Y114770D01*
X238788Y114923D01*
X239875Y115374D01*
X240808Y116090D01*
X241524Y117023D01*
X241975Y118110D01*
X242128Y119277D01*
X241975Y120443D01*
X241524Y121530D01*
X240808Y122464D01*
X239875Y123180D01*
X238788Y123630D01*
X237621Y123784D01*
D02*
G37*
G36*
X291575Y98737D02*
X290136Y98547D01*
X288795Y97992D01*
X287644Y97108D01*
X286871Y96101D01*
X286736Y96061D01*
X286414D01*
X286279Y96101D01*
X285506Y97108D01*
X284354Y97992D01*
X283014Y98547D01*
X281575Y98737D01*
X280136Y98547D01*
X278795Y97992D01*
X277644Y97108D01*
X276871Y96101D01*
X276736Y96061D01*
X276414D01*
X276279Y96101D01*
X275506Y97108D01*
X274355Y97992D01*
X273014Y98547D01*
X271575Y98737D01*
X270136Y98547D01*
X268795Y97992D01*
X267644Y97108D01*
X266760Y95957D01*
X266321Y94897D01*
X265780D01*
X265543Y95468D01*
X264815Y96417D01*
X263866Y97146D01*
X262761Y97603D01*
X262075Y97694D01*
Y93177D01*
Y88661D01*
X262761Y88751D01*
X263866Y89209D01*
X264815Y89937D01*
X265543Y90886D01*
X265780Y91457D01*
X266321D01*
X266760Y90398D01*
X267644Y89246D01*
X268795Y88363D01*
X270136Y87807D01*
X271575Y87618D01*
X273014Y87807D01*
X274355Y88363D01*
X275506Y89246D01*
X276279Y90253D01*
X276414Y90294D01*
X276736D01*
X276871Y90253D01*
X277644Y89246D01*
X278795Y88363D01*
X280136Y87807D01*
X281575Y87618D01*
X283014Y87807D01*
X284354Y88363D01*
X285506Y89246D01*
X286279Y90253D01*
X286414Y90294D01*
X286736D01*
X286871Y90253D01*
X287644Y89246D01*
X288795Y88363D01*
X290136Y87807D01*
X291575Y87618D01*
X293014Y87807D01*
X294355Y88363D01*
X295506Y89246D01*
X296389Y90398D01*
X296945Y91738D01*
X297134Y93177D01*
X296945Y94616D01*
X296389Y95957D01*
X295506Y97108D01*
X294355Y97992D01*
X293014Y98547D01*
X291575Y98737D01*
D02*
G37*
G36*
X261075Y97694D02*
X260389Y97603D01*
X259284Y97146D01*
X258334Y96417D01*
X257606Y95468D01*
X257148Y94363D01*
X257058Y93677D01*
X261075D01*
Y97694D01*
D02*
G37*
G36*
Y92677D02*
X257058D01*
X257148Y91991D01*
X257606Y90886D01*
X258334Y89937D01*
X259284Y89209D01*
X260389Y88751D01*
X261075Y88661D01*
Y92677D01*
D02*
G37*
G36*
X139764Y101411D02*
X129921D01*
X128571Y101278D01*
X127272Y100884D01*
X126075Y100244D01*
X125026Y99384D01*
X124165Y98334D01*
X123525Y97137D01*
X123131Y95839D01*
X122998Y94488D01*
X123131Y93138D01*
X123525Y91839D01*
X124165Y90642D01*
X125026Y89593D01*
X126075Y88732D01*
X127272Y88092D01*
X128571Y87698D01*
X129921Y87565D01*
X139764D01*
X141114Y87698D01*
X142413Y88092D01*
X143610Y88732D01*
X144659Y89593D01*
X145520Y90642D01*
X146160Y91839D01*
X146554Y93138D01*
X146687Y94488D01*
X146554Y95839D01*
X146160Y97137D01*
X145520Y98334D01*
X144659Y99384D01*
X143610Y100244D01*
X142413Y100884D01*
X141114Y101278D01*
X139764Y101411D01*
D02*
G37*
G36*
X66099Y120649D02*
X64933Y120495D01*
X63846Y120045D01*
X62912Y119328D01*
X62196Y118395D01*
X61746Y117308D01*
X61592Y116141D01*
X61746Y114975D01*
X62196Y113888D01*
X62912Y112954D01*
X63846Y112238D01*
X64933Y111788D01*
X66099Y111634D01*
X66145Y111641D01*
X92245Y85540D01*
X92258Y85448D01*
X92708Y84361D01*
X93424Y83427D01*
X94358Y82711D01*
X95445Y82261D01*
X96611Y82107D01*
X97778Y82261D01*
X98865Y82711D01*
X99798Y83427D01*
X100514Y84361D01*
X100964Y85448D01*
X101118Y86614D01*
X100964Y87781D01*
X100514Y88868D01*
X99798Y89801D01*
X98865Y90517D01*
X97778Y90968D01*
X96611Y91121D01*
X96565Y91115D01*
X70465Y117216D01*
X70453Y117308D01*
X70002Y118395D01*
X69286Y119328D01*
X68353Y120045D01*
X67266Y120495D01*
X66099Y120649D01*
D02*
G37*
G36*
X33619Y105885D02*
X32452Y105731D01*
X31365Y105281D01*
X30432Y104565D01*
X29716Y103631D01*
X29265Y102544D01*
X29112Y101378D01*
X29265Y100211D01*
X29716Y99124D01*
X30432Y98191D01*
X31102Y97677D01*
Y92578D01*
X19254Y80730D01*
X18781Y80964D01*
X18898Y81850D01*
X18734Y83091D01*
X26726Y91083D01*
X27272Y91900D01*
X27463Y92863D01*
Y93803D01*
X28133Y94317D01*
X28850Y95250D01*
X29300Y96337D01*
X29453Y97504D01*
X29300Y98670D01*
X28850Y99757D01*
X28133Y100691D01*
X27200Y101407D01*
X26113Y101857D01*
X24946Y102011D01*
X23780Y101857D01*
X22693Y101407D01*
X21759Y100691D01*
X21043Y99757D01*
X20593Y98670D01*
X20439Y97504D01*
X20593Y96337D01*
X21043Y95250D01*
X21759Y94317D01*
X22071Y94078D01*
X22103Y93579D01*
X19254Y90730D01*
X18781Y90964D01*
X18898Y91850D01*
X18729Y93135D01*
X18233Y94332D01*
X17444Y95360D01*
X16416Y96149D01*
X15219Y96645D01*
X13934Y96814D01*
X12649Y96645D01*
X11452Y96149D01*
X10424Y95360D01*
X9635Y94332D01*
X9139Y93135D01*
X8970Y91850D01*
X9139Y90566D01*
X9635Y89368D01*
X10424Y88341D01*
X11452Y87552D01*
X12526Y87107D01*
X12526Y87106D01*
Y86595D01*
X12526Y86594D01*
X11452Y86149D01*
X10424Y85360D01*
X9635Y84332D01*
X9139Y83135D01*
X8970Y81850D01*
X9139Y80566D01*
X9635Y79369D01*
X10424Y78341D01*
X11452Y77552D01*
X12526Y77107D01*
X12526Y77106D01*
Y76595D01*
X12526Y76594D01*
X11452Y76149D01*
X10424Y75360D01*
X9635Y74332D01*
X9139Y73135D01*
X8970Y71850D01*
X9139Y70566D01*
X9635Y69368D01*
X10424Y68340D01*
X11452Y67552D01*
X12526Y67107D01*
X12526Y67106D01*
Y66595D01*
X12526Y66594D01*
X11452Y66149D01*
X10424Y65360D01*
X9635Y64332D01*
X9139Y63135D01*
X8970Y61850D01*
X9139Y60566D01*
X9635Y59368D01*
X10424Y58341D01*
X11452Y57552D01*
X12526Y57107D01*
X12526Y57106D01*
Y56595D01*
X12526Y56594D01*
X11452Y56149D01*
X10424Y55360D01*
X9635Y54332D01*
X9139Y53135D01*
X8970Y51850D01*
X9139Y50566D01*
X9635Y49369D01*
X10424Y48340D01*
X11452Y47552D01*
X12649Y47056D01*
X13934Y46887D01*
X15219Y47056D01*
X16416Y47552D01*
X17444Y48340D01*
X18233Y49369D01*
X18729Y50566D01*
X18898Y51850D01*
X18729Y53135D01*
X18233Y54332D01*
X17444Y55360D01*
X16416Y56149D01*
X15342Y56594D01*
X15342Y56595D01*
Y57106D01*
X15342Y57107D01*
X16416Y57552D01*
X17444Y58341D01*
X18233Y59368D01*
X18729Y60566D01*
X18898Y61850D01*
X18729Y63135D01*
X18233Y64332D01*
X17444Y65360D01*
X16416Y66149D01*
X15342Y66594D01*
X15342Y66595D01*
Y67106D01*
X15342Y67107D01*
X16416Y67552D01*
X17444Y68340D01*
X18233Y69368D01*
X18729Y70566D01*
X18898Y71850D01*
X18734Y73091D01*
X35399Y89756D01*
X35944Y90572D01*
X36136Y91535D01*
Y97677D01*
X36806Y98191D01*
X37522Y99124D01*
X37972Y100211D01*
X38126Y101378D01*
X37972Y102544D01*
X37522Y103631D01*
X36806Y104565D01*
X35873Y105281D01*
X34785Y105731D01*
X33619Y105885D01*
D02*
G37*
G36*
X174213Y93090D02*
X173046Y92936D01*
X171959Y92486D01*
X171026Y91770D01*
X170309Y90836D01*
X169859Y89749D01*
X169705Y88583D01*
X169859Y87416D01*
X170309Y86329D01*
X170714Y85802D01*
Y78076D01*
X170309Y77549D01*
X169859Y76462D01*
X169705Y75295D01*
X169859Y74129D01*
X170309Y73042D01*
X171026Y72108D01*
X171959Y71392D01*
X173046Y70942D01*
X174213Y70788D01*
X175379Y70942D01*
X176466Y71392D01*
X177400Y72108D01*
X178116Y73042D01*
X178566Y74129D01*
X178720Y75295D01*
X178566Y76462D01*
X178116Y77549D01*
X177711Y78076D01*
Y85802D01*
X178116Y86329D01*
X178566Y87416D01*
X178720Y88583D01*
X178566Y89749D01*
X178116Y90836D01*
X177400Y91770D01*
X176466Y92486D01*
X175379Y92936D01*
X174213Y93090D01*
D02*
G37*
G36*
X35827Y155688D02*
X34660Y155535D01*
X33573Y155084D01*
X32640Y154368D01*
X31923Y153435D01*
X31473Y152348D01*
X31320Y151181D01*
X31473Y150015D01*
X31923Y148928D01*
X32328Y148400D01*
Y120669D01*
X32448Y119764D01*
X32797Y118920D01*
X33353Y118195D01*
X43746Y107803D01*
Y74632D01*
X43341Y74104D01*
X42891Y73017D01*
X42737Y71850D01*
X42891Y70684D01*
X43341Y69597D01*
X44057Y68663D01*
X44991Y67947D01*
X46078Y67497D01*
X47244Y67343D01*
X48411Y67497D01*
X49498Y67947D01*
X50431Y68663D01*
X51147Y69597D01*
X51598Y70684D01*
X51751Y71850D01*
X51598Y73017D01*
X51147Y74104D01*
X50743Y74632D01*
Y109252D01*
X50623Y110157D01*
X50274Y111001D01*
X49718Y111726D01*
X39325Y122118D01*
Y148400D01*
X39730Y148928D01*
X40180Y150015D01*
X40334Y151181D01*
X40180Y152348D01*
X39730Y153435D01*
X39014Y154368D01*
X38080Y155084D01*
X36993Y155535D01*
X35827Y155688D01*
D02*
G37*
G36*
X17887Y45803D02*
X14434D01*
Y42350D01*
X17887D01*
Y45803D01*
D02*
G37*
G36*
X13434D02*
X9981D01*
Y42350D01*
X13434D01*
Y45803D01*
D02*
G37*
G36*
X17887Y41350D02*
X14434D01*
Y37898D01*
X17887D01*
Y41350D01*
D02*
G37*
G36*
X13434D02*
X9981D01*
Y37898D01*
X13434D01*
Y41350D01*
D02*
G37*
G36*
X257874Y71436D02*
X256708Y71283D01*
X255621Y70832D01*
X254687Y70116D01*
X253971Y69183D01*
X253520Y68096D01*
X253367Y66929D01*
X253520Y65763D01*
X253971Y64676D01*
X254687Y63742D01*
X255357Y63228D01*
Y57087D01*
X255549Y56124D01*
X256094Y55307D01*
X272759Y38642D01*
X272595Y37402D01*
X272764Y36117D01*
X273260Y34920D01*
X274049Y33892D01*
X275077Y33103D01*
X276274Y32607D01*
X277559Y32438D01*
X278844Y32607D01*
X280041Y33103D01*
X281069Y33892D01*
X281858Y34920D01*
X282354Y36117D01*
X282523Y37402D01*
X282354Y38686D01*
X281858Y39883D01*
X281069Y40911D01*
X280041Y41700D01*
X279063Y42105D01*
Y42647D01*
X280065Y43062D01*
X281103Y43858D01*
X281899Y44896D01*
X282400Y46104D01*
X282570Y47402D01*
X282400Y48699D01*
X281899Y49907D01*
X281103Y50945D01*
X280065Y51741D01*
X278856Y52242D01*
X277559Y52413D01*
X276262Y52242D01*
X275053Y51741D01*
X274015Y50945D01*
X273219Y49907D01*
X272718Y48699D01*
X272548Y47402D01*
X272657Y46570D01*
X272184Y46336D01*
X260391Y58129D01*
Y63228D01*
X261061Y63742D01*
X261777Y64676D01*
X262228Y65763D01*
X262381Y66929D01*
X262228Y68096D01*
X261777Y69183D01*
X261061Y70116D01*
X260128Y70832D01*
X259040Y71283D01*
X257874Y71436D01*
D02*
G37*
G36*
X278059Y31323D02*
Y27902D01*
X281480D01*
X281410Y28433D01*
X281012Y29395D01*
X280378Y30221D01*
X279553Y30854D01*
X278591Y31253D01*
X278059Y31323D01*
D02*
G37*
G36*
X277059D02*
X276527Y31253D01*
X275566Y30854D01*
X274740Y30221D01*
X274106Y29395D01*
X273708Y28433D01*
X273638Y27902D01*
X277059D01*
Y31323D01*
D02*
G37*
G36*
X295276Y68926D02*
X294118Y68812D01*
X293005Y68475D01*
X291979Y67926D01*
X291080Y67188D01*
X290342Y66289D01*
X289793Y65263D01*
X289456Y64150D01*
X289341Y62992D01*
Y31496D01*
X289430Y30598D01*
X271189Y12357D01*
X107112D01*
X106584Y12762D01*
X105497Y13212D01*
X104331Y13365D01*
X103164Y13212D01*
X102077Y12762D01*
X101144Y12045D01*
X100427Y11112D01*
X99977Y10025D01*
X99824Y8858D01*
X99977Y7692D01*
X100427Y6605D01*
X101144Y5671D01*
X102077Y4955D01*
X103164Y4505D01*
X104331Y4351D01*
X105497Y4505D01*
X106584Y4955D01*
X107112Y5360D01*
X272638D01*
X273091Y5419D01*
X273543Y5479D01*
X274387Y5829D01*
X275112Y6385D01*
X294377Y25650D01*
X295276Y25562D01*
X296433Y25676D01*
X297547Y26014D01*
X298572Y26562D01*
X299472Y27300D01*
X300210Y28199D01*
X300758Y29225D01*
X301096Y30338D01*
X301210Y31496D01*
Y62992D01*
X301096Y64150D01*
X300758Y65263D01*
X300210Y66289D01*
X299472Y67188D01*
X298572Y67926D01*
X297547Y68475D01*
X296433Y68812D01*
X295276Y68926D01*
D02*
G37*
G36*
X39370D02*
X38212Y68812D01*
X37099Y68475D01*
X36073Y67926D01*
X35174Y67188D01*
X34436Y66289D01*
X33888Y65263D01*
X33550Y64150D01*
X33436Y62992D01*
Y31496D01*
X33550Y30338D01*
X33888Y29225D01*
X34436Y28199D01*
X35174Y27300D01*
X36073Y26562D01*
X37099Y26014D01*
X38212Y25676D01*
X39370Y25562D01*
X40528Y25676D01*
X41641Y26014D01*
X42667Y26562D01*
X43566Y27300D01*
X44304Y28199D01*
X44853Y29225D01*
X45190Y30338D01*
X45304Y31496D01*
Y62992D01*
X45190Y64150D01*
X44853Y65263D01*
X44304Y66289D01*
X43566Y67188D01*
X42667Y67926D01*
X41641Y68475D01*
X40528Y68812D01*
X39370Y68926D01*
D02*
G37*
G36*
X281480Y26902D02*
X278059D01*
Y23481D01*
X278591Y23551D01*
X279553Y23949D01*
X280378Y24582D01*
X281012Y25408D01*
X281410Y26370D01*
X281480Y26902D01*
D02*
G37*
G36*
X277059D02*
X273638D01*
X273708Y26370D01*
X274106Y25408D01*
X274740Y24582D01*
X275566Y23949D01*
X276527Y23551D01*
X277059Y23481D01*
Y26902D01*
D02*
G37*
G36*
X327272Y31509D02*
Y20185D01*
X338596D01*
X338489Y21541D01*
X338054Y23351D01*
X337342Y25071D01*
X336369Y26658D01*
X335160Y28074D01*
X333745Y29283D01*
X332157Y30255D01*
X330438Y30968D01*
X328627Y31402D01*
X327272Y31509D01*
D02*
G37*
G36*
X326272D02*
X324916Y31402D01*
X323106Y30968D01*
X321386Y30255D01*
X319798Y29283D01*
X318383Y28074D01*
X317174Y26658D01*
X316201Y25071D01*
X315489Y23351D01*
X315054Y21541D01*
X314948Y20185D01*
X326272D01*
Y31509D01*
D02*
G37*
G36*
X20185D02*
Y20185D01*
X31509D01*
X31402Y21541D01*
X30968Y23351D01*
X30255Y25071D01*
X29283Y26658D01*
X28074Y28074D01*
X26658Y29283D01*
X25071Y30255D01*
X23351Y30968D01*
X21541Y31402D01*
X20185Y31509D01*
D02*
G37*
G36*
X19185D02*
X17829Y31402D01*
X16019Y30968D01*
X14299Y30255D01*
X12712Y29283D01*
X11296Y28074D01*
X10087Y26658D01*
X9115Y25071D01*
X8402Y23351D01*
X7968Y21541D01*
X7861Y20185D01*
X19185D01*
Y31509D01*
D02*
G37*
G36*
X338596Y19185D02*
X327272D01*
Y7861D01*
X328627Y7968D01*
X330438Y8402D01*
X332157Y9115D01*
X333745Y10087D01*
X335160Y11296D01*
X336369Y12712D01*
X337342Y14299D01*
X338054Y16019D01*
X338489Y17829D01*
X338596Y19185D01*
D02*
G37*
G36*
X326272D02*
X314948D01*
X315054Y17829D01*
X315489Y16019D01*
X316201Y14299D01*
X317174Y12712D01*
X318383Y11296D01*
X319798Y10087D01*
X321386Y9115D01*
X323106Y8402D01*
X324916Y7968D01*
X326272Y7861D01*
Y19185D01*
D02*
G37*
G36*
X31509D02*
X20185D01*
Y7861D01*
X21541Y7968D01*
X23351Y8402D01*
X25071Y9115D01*
X26658Y10087D01*
X28074Y11296D01*
X29283Y12712D01*
X30255Y14299D01*
X30968Y16019D01*
X31402Y17829D01*
X31509Y19185D01*
D02*
G37*
G36*
X19185D02*
X7861D01*
X7968Y17829D01*
X8402Y16019D01*
X9115Y14299D01*
X10087Y12712D01*
X11296Y11296D01*
X12712Y10087D01*
X14299Y9115D01*
X16019Y8402D01*
X17829Y7968D01*
X19185Y7861D01*
Y19185D01*
D02*
G37*
%LPD*%
G36*
X82649Y152531D02*
X83816Y152377D01*
X84653Y152487D01*
X98172Y138968D01*
X98359Y138844D01*
X98207Y138344D01*
X95685D01*
X81608Y152420D01*
X81891Y152844D01*
X82649Y152531D01*
D02*
G37*
D10*
X74803Y180118D02*
X79724Y185039D01*
X65945Y180118D02*
X74803D01*
X57709Y188354D02*
X65945Y180118D01*
X57709Y188354D02*
Y207505D01*
X234434Y119277D02*
X237621D01*
X217520Y102362D02*
X234434Y119277D01*
X18701Y198819D02*
Y263779D01*
X13780Y193898D02*
X18701Y198819D01*
X20669Y192913D02*
Y210630D01*
X47244Y237205D01*
X53150Y158465D02*
Y190945D01*
X251969Y139764D02*
X267717Y155512D01*
X105315Y192913D02*
X135433D01*
X92520Y180118D02*
X105315Y192913D01*
X53150Y158465D02*
X60039Y151575D01*
X103347Y159603D02*
Y176181D01*
X117126Y161572D02*
Y176181D01*
X61476Y193445D02*
X69882Y185039D01*
X61476Y193445D02*
Y205945D01*
X57709Y207505D02*
X61148Y210945D01*
X61476D01*
X103347Y159603D02*
X109406Y153543D01*
X73973Y125984D02*
X78895Y130905D01*
X109252D01*
X99952Y140748D02*
X119095D01*
X94643Y135827D02*
X114173D01*
X76926Y153543D02*
X94643Y135827D01*
X83816Y156884D02*
X99952Y140748D01*
X226378Y177165D02*
X226378Y177165D01*
Y163386D02*
Y177165D01*
Y163386D02*
X226378Y163386D01*
X27559Y272638D02*
X41339D01*
X18701Y263779D02*
X27559Y272638D01*
X24946Y92863D02*
Y97504D01*
X13934Y81850D02*
X24946Y92863D01*
X58225Y106161D02*
Y125000D01*
Y106161D02*
X65945Y98442D01*
X117126Y161572D02*
X117280Y161417D01*
X33619Y91535D02*
Y101378D01*
X13934Y71850D02*
X33619Y91535D01*
X41896Y303773D02*
X62992D01*
X36220Y309449D02*
X41896Y303773D01*
X58225Y125000D02*
X66099Y132874D01*
X210462Y102425D02*
X210525Y102362D01*
X217520D01*
X257874Y57087D02*
Y66929D01*
Y57087D02*
X277559Y37402D01*
D60*
X32480Y318504D02*
D03*
X28740Y309449D02*
D03*
X36220D02*
D03*
D61*
X32480Y340354D02*
D03*
Y328937D02*
D03*
D83*
X35827Y120669D02*
X47244Y109252D01*
X35827Y120669D02*
Y151181D01*
X112205Y185039D02*
X132874D01*
X174213Y75295D02*
Y88583D01*
X66516Y225984D02*
X90945D01*
X66476Y225945D02*
X66516Y225984D01*
X61476Y225945D02*
X66476D01*
X132874Y168307D02*
X142717Y158465D01*
X132874Y168307D02*
Y185039D01*
X110313Y161495D02*
Y176104D01*
X110236Y176181D02*
X110313Y176104D01*
X124015Y161572D02*
Y176181D01*
Y161572D02*
X124170Y161417D01*
X75590Y269882D02*
X75787Y270079D01*
X50394Y269882D02*
X75590D01*
X50197Y269685D02*
X50394Y269882D01*
X104331Y8858D02*
X272638D01*
X295276Y31496D01*
X112540Y123031D02*
X134843Y145334D01*
X47244Y71850D02*
Y109252D01*
X233268Y163386D02*
Y177165D01*
X110313Y161495D02*
X110391Y161417D01*
X96119Y86614D02*
X96611D01*
X66591Y116141D02*
X96119Y86614D01*
X295276Y31496D02*
Y47244D01*
X47835Y318504D02*
X56102Y326772D01*
X32480Y318504D02*
X47835D01*
X61400Y340175D02*
X61580Y339995D01*
X32660Y340175D02*
X61400D01*
X32480Y340354D02*
X32660Y340175D01*
X39370Y40267D02*
X41622Y38016D01*
X39370Y40267D02*
Y47244D01*
D85*
D03*
X295276D02*
D03*
D86*
X292461Y137795D02*
D03*
X262657D02*
D03*
X332835Y282716D02*
D03*
X332752Y272716D02*
D03*
X332835Y262717D02*
D03*
X332752Y252716D02*
D03*
X12126Y202716D02*
D03*
Y212717D02*
D03*
Y222716D02*
D03*
Y232716D02*
D03*
Y242717D02*
D03*
Y252716D02*
D03*
Y262717D02*
D03*
Y272716D02*
D03*
Y282716D02*
D03*
Y292717D02*
D03*
Y302716D02*
D03*
Y312717D02*
D03*
Y322716D02*
D03*
X277559Y47402D02*
D03*
D87*
X331024Y181102D02*
D03*
Y354331D02*
D03*
X31496Y181102D02*
D03*
Y354331D02*
D03*
X283465Y339567D02*
D03*
D88*
X12126Y332716D02*
D03*
D89*
X261575Y93177D02*
D03*
X271575D02*
D03*
X281575D02*
D03*
X291575D02*
D03*
X301575Y232677D02*
D03*
X291575D02*
D03*
X281575D02*
D03*
X271575D02*
D03*
X261575D02*
D03*
X251575D02*
D03*
X268465Y250984D02*
D03*
X288465D02*
D03*
X298465D02*
D03*
X278465D02*
D03*
X122047Y328898D02*
D03*
Y318898D02*
D03*
Y298898D02*
D03*
Y288898D02*
D03*
Y308898D02*
D03*
X237047Y298898D02*
D03*
Y308898D02*
D03*
Y318898D02*
D03*
Y288898D02*
D03*
D90*
X134843Y254724D02*
D03*
Y94488D02*
D03*
D91*
X61476Y205945D02*
D03*
Y210945D02*
D03*
Y215945D02*
D03*
Y220945D02*
D03*
X66476Y205945D02*
D03*
Y210945D02*
D03*
Y215945D02*
D03*
Y220945D02*
D03*
Y225945D02*
D03*
D92*
X61476D02*
D03*
D93*
X94685Y276772D02*
D03*
Y264567D02*
D03*
X82480D02*
D03*
Y276772D02*
D03*
D94*
X56102Y326772D02*
D03*
X61580Y339995D02*
D03*
X88027D02*
D03*
X93504Y326772D02*
D03*
X88027Y313548D02*
D03*
X61580D02*
D03*
D95*
X13934Y91850D02*
D03*
Y81850D02*
D03*
Y71850D02*
D03*
Y61850D02*
D03*
Y51850D02*
D03*
X277559Y37402D02*
D03*
Y27402D02*
D03*
D96*
X13934Y41850D02*
D03*
D97*
X19685Y19685D02*
D03*
X326772D02*
D03*
D98*
X117522Y65647D02*
D03*
X41339Y82677D02*
D03*
X64961D02*
D03*
X62992Y30512D02*
D03*
X40354Y243110D02*
D03*
Y212598D02*
D03*
X157210Y67913D02*
D03*
X135827Y57087D02*
D03*
X250984Y57087D02*
D03*
X26378Y143701D02*
D03*
X41732Y156693D02*
D03*
X35827Y151181D02*
D03*
X244488Y28346D02*
D03*
X79724Y185039D02*
D03*
X237621Y119277D02*
D03*
X52165Y55118D02*
D03*
X313976Y64961D02*
D03*
X47244Y237205D02*
D03*
X13780Y193898D02*
D03*
X20669Y192913D02*
D03*
X53150Y190945D02*
D03*
X112205Y185039D02*
D03*
X267717Y155512D02*
D03*
X174213Y75295D02*
D03*
Y88583D02*
D03*
X135433Y192913D02*
D03*
X90945Y225984D02*
D03*
X132874Y185039D02*
D03*
X101378Y254921D02*
D03*
X92520Y180118D02*
D03*
X124016Y264764D02*
D03*
X103347Y176181D02*
D03*
X110236D02*
D03*
X117126D02*
D03*
X124015Y176181D02*
D03*
X60039Y151575D02*
D03*
X69882Y185039D02*
D03*
X193130Y145453D02*
D03*
X50197Y269685D02*
D03*
X75787Y270079D02*
D03*
X104331Y8858D02*
D03*
X142717Y158465D02*
D03*
X112540Y123031D02*
D03*
X109252Y130905D02*
D03*
X119095Y140748D02*
D03*
X114173Y135827D02*
D03*
X134843Y145334D02*
D03*
X233268Y163386D02*
D03*
X226378Y177165D02*
D03*
X226378Y163386D02*
D03*
X41339Y272638D02*
D03*
X24946Y97504D02*
D03*
X47244Y299213D02*
D03*
X28543Y287402D02*
D03*
X65945Y98442D02*
D03*
X233268Y177165D02*
D03*
X47244Y71850D02*
D03*
X83816Y156884D02*
D03*
X33619Y101378D02*
D03*
X109406Y153543D02*
D03*
X53045Y131890D02*
D03*
X76926Y153543D02*
D03*
X117280Y161417D02*
D03*
X73973Y125984D02*
D03*
X110391Y161417D02*
D03*
X66099Y116141D02*
D03*
X87305Y106836D02*
D03*
X124170Y161417D02*
D03*
X66099Y132874D02*
D03*
X62992Y303773D02*
D03*
X96611Y86614D02*
D03*
X210462Y102425D02*
D03*
X251969Y139764D02*
D03*
X177165Y108268D02*
D03*
X183071Y122047D02*
D03*
X241732Y138189D02*
D03*
X257874Y66929D02*
D03*
X212598Y39370D02*
D03*
X159449Y41339D02*
D03*
X141732Y33465D02*
D03*
M02*
