G04*
G04 #@! TF.GenerationSoftware,Altium Limited,Altium Designer,19.1.5 (86)*
G04*
G04 Layer_Color=32896*
%FSLAX25Y25*%
%MOIN*%
G70*
G01*
G75*
%ADD10C,0.01000*%
%ADD12C,0.00500*%
%ADD13C,0.00787*%
%ADD15C,0.00630*%
%ADD99C,0.02000*%
%ADD100C,0.00591*%
D10*
X106299Y326772D02*
X106283Y327771D01*
X106236Y328769D01*
X106157Y329766D01*
X106046Y330759D01*
X105904Y331748D01*
X105730Y332732D01*
X105525Y333711D01*
X105290Y334682D01*
X105023Y335645D01*
X104727Y336599D01*
X104400Y337544D01*
X104043Y338478D01*
X103657Y339399D01*
X103242Y340308D01*
X102798Y341204D01*
X102326Y342085D01*
X101826Y342951D01*
X101299Y343800D01*
X100746Y344632D01*
X100166Y345446D01*
X99561Y346241D01*
X98931Y347017D01*
X98276Y347772D01*
X97598Y348506D01*
X96897Y349219D01*
X96174Y349908D01*
X95429Y350575D01*
X94663Y351217D01*
X93878Y351835D01*
X93073Y352428D01*
X92250Y352994D01*
X91409Y353535D01*
X90551Y354048D01*
X89678Y354534D01*
X88789Y354992D01*
X87887Y355421D01*
X86971Y355822D01*
X86044Y356194D01*
X85105Y356535D01*
X84155Y356847D01*
X83196Y357129D01*
X82229Y357380D01*
X81254Y357600D01*
X80272Y357789D01*
X79286Y357947D01*
X78294Y358074D01*
X77299Y358169D01*
X76302Y358232D01*
X75303Y358264D01*
X74303D01*
X73304Y358232D01*
X72307Y358169D01*
X71312Y358074D01*
X70321Y357947D01*
X69334Y357789D01*
X68353Y357600D01*
X67378Y357380D01*
X66410Y357129D01*
X65451Y356847D01*
X64502Y356535D01*
X63563Y356194D01*
X62635Y355822D01*
X61719Y355421D01*
X60817Y354992D01*
X59929Y354534D01*
X59055Y354048D01*
X58198Y353535D01*
X57357Y352994D01*
X56534Y352428D01*
X55729Y351835D01*
X54943Y351217D01*
X54178Y350575D01*
X53433Y349908D01*
X52710Y349219D01*
X52008Y348506D01*
X51330Y347772D01*
X50676Y347017D01*
X50046Y346241D01*
X49440Y345446D01*
X48861Y344632D01*
X48307Y343800D01*
X47780Y342951D01*
X47280Y342085D01*
X46808Y341204D01*
X46365Y340308D01*
X45949Y339399D01*
X45563Y338478D01*
X45206Y337544D01*
X44880Y336599D01*
X44583Y335645D01*
X44317Y334682D01*
X44081Y333711D01*
X43876Y332732D01*
X43703Y331748D01*
X43560Y330759D01*
X43450Y329766D01*
X43371Y328769D01*
X43323Y327771D01*
X43307Y326772D01*
X43323Y325772D01*
X43371Y324774D01*
X43450Y323778D01*
X43560Y322785D01*
X43703Y321795D01*
X43876Y320811D01*
X44081Y319833D01*
X44317Y318862D01*
X44583Y317898D01*
X44880Y316944D01*
X45206Y316000D01*
X45563Y315066D01*
X45949Y314144D01*
X46365Y313235D01*
X46808Y312339D01*
X47280Y311458D01*
X47780Y310593D01*
X48307Y309744D01*
X48860Y308912D01*
X49440Y308098D01*
X50046Y307302D01*
X50676Y306526D01*
X51330Y305771D01*
X52008Y305037D01*
X52709Y304325D01*
X53433Y303635D01*
X54177Y302969D01*
X54943Y302326D01*
X55729Y301708D01*
X56533Y301116D01*
X57357Y300549D01*
X58197Y300009D01*
X59055Y299495D01*
X59928Y299009D01*
X60817Y298552D01*
X61719Y298122D01*
X62635Y297721D01*
X63563Y297350D01*
X64502Y297008D01*
X65451Y296696D01*
X66410Y296414D01*
X67378Y296164D01*
X68352Y295943D01*
X69334Y295754D01*
X70321Y295596D01*
X71312Y295470D01*
X72307Y295375D01*
X73304Y295311D01*
X74303Y295280D01*
X75303Y295280D01*
X76302Y295311D01*
X77299Y295375D01*
X78294Y295470D01*
X79285Y295596D01*
X80272Y295754D01*
X81253Y295943D01*
X82228Y296163D01*
X83196Y296414D01*
X84155Y296696D01*
X85104Y297008D01*
X86043Y297350D01*
X86971Y297721D01*
X87887Y298122D01*
X88789Y298551D01*
X89678Y299009D01*
X90551Y299495D01*
X91408Y300009D01*
X92249Y300549D01*
X93072Y301116D01*
X93877Y301708D01*
X94663Y302326D01*
X95429Y302968D01*
X96173Y303635D01*
X96897Y304324D01*
X97598Y305037D01*
X98276Y305771D01*
X98930Y306526D01*
X99560Y307302D01*
X100166Y308097D01*
X100745Y308911D01*
X101299Y309743D01*
X101826Y310593D01*
X102326Y311458D01*
X102798Y312339D01*
X103242Y313234D01*
X103657Y314144D01*
X104043Y315065D01*
X104400Y315999D01*
X104727Y316944D01*
X105023Y317898D01*
X105290Y318861D01*
X105525Y319832D01*
X105730Y320811D01*
X105903Y321795D01*
X106046Y322784D01*
X106157Y323777D01*
X106236Y324774D01*
X106283Y325772D01*
X106299Y326771D01*
X303150Y11811D02*
Y19685D01*
X299213Y15748D02*
X307087D01*
X39370Y70866D02*
Y82677D01*
Y11811D02*
Y23622D01*
X295276Y70866D02*
Y82677D01*
Y11811D02*
Y23622D01*
X39370Y11811D02*
X295276D01*
X39370Y82677D02*
X295276D01*
X296575Y88177D02*
X321075D01*
X232075D02*
X256575D01*
X232075Y237677D02*
X246575D01*
X306575D02*
X321075D01*
X232075Y88177D02*
Y237677D01*
X296575Y88177D02*
Y98177D01*
X256575D02*
X296575D01*
X256575Y88177D02*
Y98177D01*
Y88177D02*
X296575D01*
X321075D02*
Y237677D01*
X246575Y227677D02*
X306575D01*
X246575D02*
Y237677D01*
X306575D01*
Y227677D02*
Y237677D01*
X52165Y196260D02*
Y235630D01*
X75787D01*
X40945Y101181D02*
X40945Y246850D01*
Y101181D02*
X229921D01*
X52165Y196260D02*
X75787D01*
Y235630D01*
X40945Y246850D02*
X229921D01*
X229921Y101181D02*
X229921Y247012D01*
X312638Y351772D02*
X313032Y351378D01*
X253976Y351772D02*
X312638D01*
X253976Y245079D02*
Y351772D01*
X313032Y245079D02*
Y351378D01*
X253976Y245079D02*
X313032D01*
X232047Y271969D02*
Y283898D01*
X127047Y271969D02*
X232047D01*
X127047D02*
Y283898D01*
X117047D02*
X127047D01*
X117047D02*
Y333898D01*
X127047D01*
Y350315D01*
X232047D01*
Y323898D02*
Y350315D01*
Y323898D02*
X242047D01*
Y283898D02*
Y323898D01*
X232047Y283898D02*
X242047D01*
D12*
X35980Y332646D02*
Y336646D01*
X28980Y332746D02*
Y336546D01*
X26730Y312976D02*
Y316476D01*
X38230Y312976D02*
Y316476D01*
X26730D02*
X29230D01*
X31730Y311476D02*
X33230D01*
X35730Y316476D02*
X38230D01*
D13*
X107087Y270669D02*
X107060Y271671D01*
X106978Y272670D01*
X106843Y273663D01*
X106654Y274647D01*
X106412Y275620D01*
X106118Y276578D01*
X105772Y277518D01*
X105376Y278439D01*
X104931Y279337D01*
X104438Y280209D01*
X103898Y281053D01*
X103314Y281867D01*
X102686Y282648D01*
X102016Y283394D01*
X101308Y284103D01*
X100562Y284772D01*
X99781Y285400D01*
X98967Y285985D01*
X98123Y286525D01*
X97250Y287018D01*
X96352Y287463D01*
X95432Y287859D01*
X94491Y288205D01*
X93533Y288499D01*
X92560Y288741D01*
X91576Y288930D01*
X90583Y289065D01*
X89584Y289146D01*
X88583Y289173D01*
X87581Y289146D01*
X86582Y289065D01*
X85589Y288930D01*
X84605Y288741D01*
X83632Y288499D01*
X82674Y288205D01*
X81734Y287859D01*
X80813Y287463D01*
X79915Y287018D01*
X79043Y286525D01*
X78198Y285985D01*
X77385Y285400D01*
X76604Y284772D01*
X75858Y284103D01*
X75149Y283394D01*
X74480Y282648D01*
X73852Y281867D01*
X73267Y281053D01*
X72727Y280209D01*
X72234Y279337D01*
X71789Y278439D01*
X71393Y277518D01*
X71047Y276578D01*
X70753Y275620D01*
X70511Y274647D01*
X70323Y273663D01*
X70187Y272670D01*
X70106Y271671D01*
X70079Y270669D01*
X70106Y269668D01*
X70187Y268669D01*
X70323Y267676D01*
X70511Y266691D01*
X70753Y265719D01*
X71047Y264761D01*
X71393Y263820D01*
X71789Y262900D01*
X72234Y262002D01*
X72728Y261129D01*
X73267Y260285D01*
X73852Y259471D01*
X74480Y258690D01*
X75149Y257944D01*
X75858Y257236D01*
X76604Y256566D01*
X77385Y255938D01*
X78199Y255354D01*
X79043Y254814D01*
X79915Y254321D01*
X80813Y253875D01*
X81734Y253480D01*
X82674Y253134D01*
X83632Y252840D01*
X84605Y252598D01*
X85589Y252409D01*
X86582Y252274D01*
X87581Y252192D01*
X88583Y252165D01*
X89584Y252192D01*
X90583Y252274D01*
X91576Y252409D01*
X92561Y252598D01*
X93533Y252840D01*
X94491Y253134D01*
X95432Y253480D01*
X96352Y253876D01*
X97250Y254321D01*
X98123Y254814D01*
X98967Y255354D01*
X99781Y255939D01*
X100562Y256566D01*
X101308Y257236D01*
X102016Y257944D01*
X102686Y258690D01*
X103314Y259471D01*
X103898Y260285D01*
X104438Y261130D01*
X104931Y262002D01*
X105376Y262900D01*
X105772Y263820D01*
X106118Y264761D01*
X106412Y265719D01*
X106654Y266692D01*
X106843Y267676D01*
X106978Y268669D01*
X107060Y269668D01*
X107087Y270669D01*
X227953Y355118D02*
Y359841D01*
X226378Y358267D01*
X224804Y359841D01*
Y355118D01*
X223230Y359841D02*
Y355118D01*
Y357480D01*
X220081D01*
Y359841D01*
Y355118D01*
X218507Y357480D02*
X215358D01*
X213784Y359841D02*
X210635D01*
Y359054D01*
X213784Y355905D01*
Y355118D01*
X210635D01*
X209061D02*
X207487D01*
X208274D01*
Y359841D01*
X209061Y359054D01*
X205125Y355905D02*
X204338Y355118D01*
X202764D01*
X201977Y355905D01*
Y359054D01*
X202764Y359841D01*
X204338D01*
X205125Y359054D01*
Y358267D01*
X204338Y357480D01*
X201977D01*
X200403Y359841D02*
Y355118D01*
X198041D01*
X197254Y355905D01*
Y356692D01*
X198041Y357480D01*
X200403D01*
X198041D01*
X197254Y358267D01*
Y359054D01*
X198041Y359841D01*
X200403D01*
D15*
X303150Y79920D02*
Y76772D01*
X301575D01*
X301051Y77296D01*
Y77821D01*
X301575Y78346D01*
X303150D01*
X301575D01*
X301051Y78871D01*
Y79396D01*
X301575Y79920D01*
X303150D01*
X300001Y76772D02*
X298952D01*
X299476D01*
Y79920D01*
X300001Y79396D01*
X195150Y233951D02*
X194625Y233426D01*
X193576D01*
X193051Y233951D01*
Y234476D01*
X193576Y235000D01*
X194625D01*
X195150Y235525D01*
Y236050D01*
X194625Y236575D01*
X193576D01*
X193051Y236050D01*
X198299Y233426D02*
X196200D01*
Y235000D01*
X197249Y234476D01*
X197774D01*
X198299Y235000D01*
Y236050D01*
X197774Y236575D01*
X196724D01*
X196200Y236050D01*
X265617Y345144D02*
X266142Y345668D01*
X267192D01*
X267717Y345144D01*
Y344619D01*
X267192Y344094D01*
X266142D01*
X265617Y343569D01*
Y343044D01*
X266142Y342520D01*
X267192D01*
X267717Y343044D01*
X262994Y342520D02*
Y345668D01*
X264568Y344094D01*
X262469D01*
X139633Y329081D02*
X140158Y329605D01*
X141208D01*
X141732Y329081D01*
Y328556D01*
X141208Y328031D01*
X140158D01*
X139633Y327506D01*
Y326981D01*
X140158Y326457D01*
X141208D01*
X141732Y326981D01*
X138584Y329081D02*
X138059Y329605D01*
X137009D01*
X136485Y329081D01*
Y328556D01*
X137009Y328031D01*
X137534D01*
X137009D01*
X136485Y327506D01*
Y326981D01*
X137009Y326457D01*
X138059D01*
X138584Y326981D01*
X74673Y350065D02*
X75197Y350589D01*
X76247D01*
X76772Y350065D01*
Y349540D01*
X76247Y349015D01*
X75197D01*
X74673Y348491D01*
Y347966D01*
X75197Y347441D01*
X76247D01*
X76772Y347966D01*
X71524Y347441D02*
X73623D01*
X71524Y349540D01*
Y350065D01*
X72049Y350589D01*
X73098D01*
X73623Y350065D01*
X86943Y283334D02*
X86418Y283859D01*
Y284908D01*
X86943Y285433D01*
X87468D01*
X87993Y284908D01*
Y283859D01*
X88517Y283334D01*
X89042D01*
X89567Y283859D01*
Y284908D01*
X89042Y285433D01*
X89567Y282284D02*
Y281235D01*
Y281760D01*
X86418D01*
X86943Y282284D01*
X25591Y333661D02*
Y336810D01*
X24016D01*
X23492Y336285D01*
Y335236D01*
X24016Y334711D01*
X25591D01*
X24541D02*
X23492Y333661D01*
X20343D02*
X22442D01*
X20343Y335760D01*
Y336285D01*
X20868Y336810D01*
X21917D01*
X22442Y336285D01*
X19293Y333661D02*
X18244D01*
X18769D01*
Y336810D01*
X19293Y336285D01*
X316929Y229331D02*
Y232479D01*
X315355D01*
X314830Y231955D01*
Y230905D01*
X315355Y230380D01*
X316929D01*
X313780Y231955D02*
X313256Y232479D01*
X312206D01*
X311682Y231955D01*
Y231430D01*
X312206Y230905D01*
X312731D01*
X312206D01*
X311682Y230380D01*
Y229855D01*
X312206Y229331D01*
X313256D01*
X313780Y229855D01*
X25591Y318898D02*
Y322046D01*
X24541Y320997D01*
X23492Y322046D01*
Y318898D01*
X22442Y322046D02*
X20343D01*
Y321521D01*
X22442Y319422D01*
Y318898D01*
D99*
X188976Y43307D02*
X184978D01*
X186977D01*
Y55303D01*
X188976Y53304D01*
X178980D02*
X176980Y55303D01*
X172982D01*
X170982Y53304D01*
Y51305D01*
X172982Y49305D01*
X170982Y47306D01*
Y45306D01*
X172982Y43307D01*
X176980D01*
X178980Y45306D01*
Y47306D01*
X176980Y49305D01*
X178980Y51305D01*
Y53304D01*
X176980Y49305D02*
X172982D01*
X158986Y55303D02*
X162985Y53304D01*
X166983Y49305D01*
Y45306D01*
X164984Y43307D01*
X160985D01*
X158986Y45306D01*
Y47306D01*
X160985Y49305D01*
X166983D01*
X146990Y55303D02*
X154987D01*
Y49305D01*
X150989Y51305D01*
X148989D01*
X146990Y49305D01*
Y45306D01*
X148989Y43307D01*
X152988D01*
X154987Y45306D01*
X142991Y53304D02*
X140992Y55303D01*
X136993D01*
X134994Y53304D01*
Y45306D01*
X136993Y43307D01*
X140992D01*
X142991Y45306D01*
Y53304D01*
D100*
X294881Y103936D02*
X295668Y103149D01*
Y101575D01*
X294881Y100787D01*
X294093D01*
X293306Y101575D01*
Y103149D01*
X292519Y103936D01*
X291732D01*
X290945Y103149D01*
Y101575D01*
X291732Y100787D01*
X294881Y108659D02*
X295668Y107872D01*
Y106297D01*
X294881Y105510D01*
X291732D01*
X290945Y106297D01*
Y107872D01*
X291732Y108659D01*
X295668Y110233D02*
X290945D01*
Y113382D01*
X283070Y103936D02*
X283857Y103149D01*
Y101575D01*
X283070Y100787D01*
X282282D01*
X281495Y101575D01*
Y103149D01*
X280708Y103936D01*
X279921D01*
X279134Y103149D01*
Y101575D01*
X279921Y100787D01*
X283857Y105510D02*
X279134D01*
Y107872D01*
X279921Y108659D01*
X283070D01*
X283857Y107872D01*
Y105510D01*
X279134Y110233D02*
X282282D01*
X283857Y111808D01*
X282282Y113382D01*
X279134D01*
X281495D01*
Y110233D01*
X274014Y100787D02*
X270866D01*
X269291Y102362D01*
X270866Y103936D01*
X274014D01*
X273227Y108659D02*
X274014Y107872D01*
Y106297D01*
X273227Y105510D01*
X270078D01*
X269291Y106297D01*
Y107872D01*
X270078Y108659D01*
X273227Y113382D02*
X274014Y112595D01*
Y111020D01*
X273227Y110233D01*
X270078D01*
X269291Y111020D01*
Y112595D01*
X270078Y113382D01*
X263385Y103936D02*
X264172Y103149D01*
Y101575D01*
X263385Y100787D01*
X260236D01*
X259449Y101575D01*
Y103149D01*
X260236Y103936D01*
X261810D01*
Y102362D01*
X259449Y105510D02*
X264172D01*
X259449Y108659D01*
X264172D01*
Y110233D02*
X259449D01*
Y112595D01*
X260236Y113382D01*
X263385D01*
X264172Y112595D01*
Y110233D01*
X253542Y216141D02*
X254329Y215354D01*
Y213779D01*
X253542Y212992D01*
X250393D01*
X249606Y213779D01*
Y215354D01*
X250393Y216141D01*
X251968D01*
Y214566D01*
X249606Y217715D02*
X254329D01*
X249606Y220864D01*
X254329D01*
Y222438D02*
X249606D01*
Y224799D01*
X250393Y225587D01*
X253542D01*
X254329Y224799D01*
Y222438D01*
X264172Y212992D02*
X261023D01*
X259449Y214566D01*
X261023Y216141D01*
X264172D01*
X263385Y220864D02*
X264172Y220076D01*
Y218502D01*
X263385Y217715D01*
X260236D01*
X259449Y218502D01*
Y220076D01*
X260236Y220864D01*
X263385Y225587D02*
X264172Y224799D01*
Y223225D01*
X263385Y222438D01*
X260236D01*
X259449Y223225D01*
Y224799D01*
X260236Y225587D01*
X273227Y216141D02*
X274014Y215354D01*
Y213779D01*
X273227Y212992D01*
X272440D01*
X271653Y213779D01*
Y215354D01*
X270866Y216141D01*
X270078D01*
X269291Y215354D01*
Y213779D01*
X270078Y212992D01*
X274014Y217715D02*
X269291D01*
Y220076D01*
X270078Y220864D01*
X273227D01*
X274014Y220076D01*
Y217715D01*
X269291Y222438D02*
X272440D01*
X274014Y224012D01*
X272440Y225587D01*
X269291D01*
X271653D01*
Y222438D01*
X283070Y216141D02*
X283857Y215354D01*
Y213779D01*
X283070Y212992D01*
X282282D01*
X281495Y213779D01*
Y215354D01*
X280708Y216141D01*
X279921D01*
X279134Y215354D01*
Y213779D01*
X279921Y212992D01*
X283070Y220864D02*
X283857Y220076D01*
Y218502D01*
X283070Y217715D01*
X279921D01*
X279134Y218502D01*
Y220076D01*
X279921Y220864D01*
X283857Y222438D02*
X279134D01*
Y225587D01*
X292912Y216141D02*
X293699Y215354D01*
Y213779D01*
X292912Y212992D01*
X292125D01*
X291338Y213779D01*
Y215354D01*
X290551Y216141D01*
X289763D01*
X288976Y215354D01*
Y213779D01*
X289763Y212992D01*
Y220864D02*
X292912D01*
X293699Y220076D01*
Y218502D01*
X292912Y217715D01*
X289763D01*
X288976Y218502D01*
Y220076D01*
X290551Y219289D02*
X288976Y220864D01*
Y220076D02*
X289763Y220864D01*
X293699Y222438D02*
X288976D01*
X290551Y224012D01*
X288976Y225587D01*
X293699D01*
X302755Y212992D02*
X303542Y213779D01*
Y215354D01*
X302755Y216141D01*
X301968D01*
X301180Y215354D01*
Y214566D01*
Y215354D01*
X300393Y216141D01*
X299606D01*
X298819Y215354D01*
Y213779D01*
X299606Y212992D01*
X298819Y220864D02*
Y217715D01*
X301968Y220864D01*
X302755D01*
X303542Y220076D01*
Y218502D01*
X302755Y217715D01*
X303542Y222438D02*
X298819D01*
X300393D01*
X303542Y225587D01*
X301180Y223225D01*
X298819Y225587D01*
X295907Y269094D02*
X298531D01*
X299843Y267783D01*
X298531Y266471D01*
X295907D01*
X296563Y262535D02*
X295907Y263191D01*
Y264503D01*
X296563Y265159D01*
X299187D01*
X299843Y264503D01*
Y263191D01*
X299187Y262535D01*
X296563Y258599D02*
X295907Y259255D01*
Y260567D01*
X296563Y261223D01*
X299187D01*
X299843Y260567D01*
Y259255D01*
X299187Y258599D01*
X286065Y273032D02*
X290001D01*
Y271064D01*
X289345Y270408D01*
X286721D01*
X286065Y271064D01*
Y273032D01*
X290001Y269096D02*
X287377D01*
X286065Y267784D01*
X287377Y266472D01*
X290001D01*
X288033D01*
Y269096D01*
X286065Y265160D02*
Y262537D01*
Y263849D01*
X290001D01*
Y261225D02*
X287377D01*
X286065Y259913D01*
X287377Y258601D01*
X290001D01*
X288033D01*
Y261225D01*
X267035Y266471D02*
X266379Y267127D01*
Y268439D01*
X267035Y269094D01*
X269659D01*
X270315Y268439D01*
Y267127D01*
X269659Y266471D01*
X268347D01*
Y267783D01*
X270315Y265159D02*
X266379D01*
X270315Y262535D01*
X266379D01*
Y261223D02*
X270315D01*
Y259255D01*
X269659Y258599D01*
X267035D01*
X266379Y259255D01*
Y261223D01*
X280157Y265158D02*
X276222D01*
X280157Y262534D01*
X276222D01*
X276878Y258598D02*
X276222Y259254D01*
Y260566D01*
X276878Y261222D01*
X279502D01*
X280157Y260566D01*
Y259254D01*
X279502Y258598D01*
X78150Y263518D02*
Y266142D01*
X75526Y263518D01*
X74870D01*
X74214Y264174D01*
Y265486D01*
X74870Y266142D01*
X78150Y277953D02*
Y276641D01*
Y277297D01*
X74214D01*
X74870Y277953D01*
X100460D02*
X99804Y277297D01*
Y275985D01*
X100460Y275329D01*
X101116D01*
X101772Y275985D01*
Y276641D01*
Y275985D01*
X102428Y275329D01*
X103084D01*
X103740Y275985D01*
Y277297D01*
X103084Y277953D01*
X103740Y264174D02*
X99804D01*
X101772Y266142D01*
Y263518D01*
X54135Y339173D02*
Y343896D01*
X56496Y341535D01*
X53347D01*
X47442Y330117D02*
X50591D01*
Y327755D01*
X49016Y328542D01*
X48229D01*
X47442Y327755D01*
Y326181D01*
X48229Y325394D01*
X49803D01*
X50591Y326181D01*
X53347Y316337D02*
X54922Y315550D01*
X56496Y313976D01*
Y312401D01*
X55709Y311614D01*
X54135D01*
X53347Y312401D01*
Y313189D01*
X54135Y313976D01*
X56496D01*
X97835Y315550D02*
X97048Y316337D01*
X95473D01*
X94686Y315550D01*
Y314763D01*
X95473Y313976D01*
X96260D01*
X95473D01*
X94686Y313189D01*
Y312401D01*
X95473Y311614D01*
X97048D01*
X97835Y312401D01*
X98623Y325394D02*
X101772D01*
X98623Y328542D01*
Y329329D01*
X99410Y330117D01*
X100985D01*
X101772Y329329D01*
X95866Y339173D02*
X94292D01*
X95079D01*
Y343896D01*
X95866Y343109D01*
X115748Y356299D02*
Y361022D01*
X114174Y359448D01*
X112599Y361022D01*
Y356299D01*
X107877Y357086D02*
Y360235D01*
X108664Y361022D01*
X110238D01*
X111025Y360235D01*
Y357086D01*
X110238Y356299D01*
X108664D01*
X109451Y357874D02*
X107877Y356299D01*
X108664D02*
X107877Y357086D01*
X106302Y358661D02*
X103154D01*
X101579Y356299D02*
X100005D01*
X100792D01*
Y361022D01*
X101579Y360235D01*
X97644D02*
X96856Y361022D01*
X95282D01*
X94495Y360235D01*
Y359448D01*
X95282Y358661D01*
X96069D01*
X95282D01*
X94495Y357874D01*
Y357086D01*
X95282Y356299D01*
X96856D01*
X97644Y357086D01*
X92921Y356299D02*
X91347D01*
X92134D01*
Y361022D01*
X92921Y360235D01*
M02*
