G04*
G04 #@! TF.GenerationSoftware,Altium Limited,Altium Designer,19.1.5 (86)*
G04*
G04 Layer_Physical_Order=1*
G04 Layer_Color=255*
%FSLAX25Y25*%
%MOIN*%
G70*
G01*
G75*
%ADD10C,0.01000*%
G04:AMPARAMS|DCode=57|XSize=70.87mil|YSize=51.18mil|CornerRadius=6.4mil|HoleSize=0mil|Usage=FLASHONLY|Rotation=270.000|XOffset=0mil|YOffset=0mil|HoleType=Round|Shape=RoundedRectangle|*
%AMROUNDEDRECTD57*
21,1,0.07087,0.03839,0,0,270.0*
21,1,0.05807,0.05118,0,0,270.0*
1,1,0.01280,-0.01919,-0.02904*
1,1,0.01280,-0.01919,0.02904*
1,1,0.01280,0.01919,0.02904*
1,1,0.01280,0.01919,-0.02904*
%
%ADD57ROUNDEDRECTD57*%
G04:AMPARAMS|DCode=58|XSize=23.62mil|YSize=39.37mil|CornerRadius=2.95mil|HoleSize=0mil|Usage=FLASHONLY|Rotation=90.000|XOffset=0mil|YOffset=0mil|HoleType=Round|Shape=RoundedRectangle|*
%AMROUNDEDRECTD58*
21,1,0.02362,0.03347,0,0,90.0*
21,1,0.01772,0.03937,0,0,90.0*
1,1,0.00591,0.01673,0.00886*
1,1,0.00591,0.01673,-0.00886*
1,1,0.00591,-0.01673,-0.00886*
1,1,0.00591,-0.01673,0.00886*
%
%ADD58ROUNDEDRECTD58*%
G04:AMPARAMS|DCode=59|XSize=55.12mil|YSize=39.37mil|CornerRadius=4.92mil|HoleSize=0mil|Usage=FLASHONLY|Rotation=0.000|XOffset=0mil|YOffset=0mil|HoleType=Round|Shape=RoundedRectangle|*
%AMROUNDEDRECTD59*
21,1,0.05512,0.02953,0,0,0.0*
21,1,0.04528,0.03937,0,0,0.0*
1,1,0.00984,0.02264,-0.01476*
1,1,0.00984,-0.02264,-0.01476*
1,1,0.00984,-0.02264,0.01476*
1,1,0.00984,0.02264,0.01476*
%
%ADD59ROUNDEDRECTD59*%
G04:AMPARAMS|DCode=60|XSize=23.62mil|YSize=39.37mil|CornerRadius=2.95mil|HoleSize=0mil|Usage=FLASHONLY|Rotation=0.000|XOffset=0mil|YOffset=0mil|HoleType=Round|Shape=RoundedRectangle|*
%AMROUNDEDRECTD60*
21,1,0.02362,0.03347,0,0,0.0*
21,1,0.01772,0.03937,0,0,0.0*
1,1,0.00591,0.00886,-0.01673*
1,1,0.00591,-0.00886,-0.01673*
1,1,0.00591,-0.00886,0.01673*
1,1,0.00591,0.00886,0.01673*
%
%ADD60ROUNDEDRECTD60*%
G04:AMPARAMS|DCode=61|XSize=70.87mil|YSize=51.18mil|CornerRadius=6.4mil|HoleSize=0mil|Usage=FLASHONLY|Rotation=180.000|XOffset=0mil|YOffset=0mil|HoleType=Round|Shape=RoundedRectangle|*
%AMROUNDEDRECTD61*
21,1,0.07087,0.03839,0,0,180.0*
21,1,0.05807,0.05118,0,0,180.0*
1,1,0.01280,-0.02904,0.01919*
1,1,0.01280,0.02904,0.01919*
1,1,0.01280,0.02904,-0.01919*
1,1,0.01280,-0.02904,-0.01919*
%
%ADD61ROUNDEDRECTD61*%
G04:AMPARAMS|DCode=62|XSize=39.37mil|YSize=23.62mil|CornerRadius=5.91mil|HoleSize=0mil|Usage=FLASHONLY|Rotation=0.000|XOffset=0mil|YOffset=0mil|HoleType=Round|Shape=RoundedRectangle|*
%AMROUNDEDRECTD62*
21,1,0.03937,0.01181,0,0,0.0*
21,1,0.02756,0.02362,0,0,0.0*
1,1,0.01181,0.01378,-0.00591*
1,1,0.01181,-0.01378,-0.00591*
1,1,0.01181,-0.01378,0.00591*
1,1,0.01181,0.01378,0.00591*
%
%ADD62ROUNDEDRECTD62*%
G04:AMPARAMS|DCode=63|XSize=19.68mil|YSize=98.43mil|CornerRadius=0mil|HoleSize=0mil|Usage=FLASHONLY|Rotation=225.000|XOffset=0mil|YOffset=0mil|HoleType=Round|Shape=Rectangle|*
%AMROTATEDRECTD63*
4,1,4,-0.02784,0.04176,0.04176,-0.02784,0.02784,-0.04176,-0.04176,0.02784,-0.02784,0.04176,0.0*
%
%ADD63ROTATEDRECTD63*%

G04:AMPARAMS|DCode=64|XSize=19.68mil|YSize=62.99mil|CornerRadius=0mil|HoleSize=0mil|Usage=FLASHONLY|Rotation=225.000|XOffset=0mil|YOffset=0mil|HoleType=Round|Shape=Rectangle|*
%AMROTATEDRECTD64*
4,1,4,-0.01531,0.02923,0.02923,-0.01531,0.01531,-0.02923,-0.02923,0.01531,-0.01531,0.02923,0.0*
%
%ADD64ROTATEDRECTD64*%

G04:AMPARAMS|DCode=65|XSize=55.12mil|YSize=39.37mil|CornerRadius=4.92mil|HoleSize=0mil|Usage=FLASHONLY|Rotation=135.000|XOffset=0mil|YOffset=0mil|HoleType=Round|Shape=RoundedRectangle|*
%AMROUNDEDRECTD65*
21,1,0.05512,0.02953,0,0,135.0*
21,1,0.04528,0.03937,0,0,135.0*
1,1,0.00984,-0.00557,0.02645*
1,1,0.00984,0.02645,-0.00557*
1,1,0.00984,0.00557,-0.02645*
1,1,0.00984,-0.02645,0.00557*
%
%ADD65ROUNDEDRECTD65*%
%ADD66R,0.09843X0.01968*%
%ADD67R,0.06299X0.01968*%
G04:AMPARAMS|DCode=68|XSize=50mil|YSize=50mil|CornerRadius=6.25mil|HoleSize=0mil|Usage=FLASHONLY|Rotation=90.000|XOffset=0mil|YOffset=0mil|HoleType=Round|Shape=RoundedRectangle|*
%AMROUNDEDRECTD68*
21,1,0.05000,0.03750,0,0,90.0*
21,1,0.03750,0.05000,0,0,90.0*
1,1,0.01250,0.01875,0.01875*
1,1,0.01250,0.01875,-0.01875*
1,1,0.01250,-0.01875,-0.01875*
1,1,0.01250,-0.01875,0.01875*
%
%ADD68ROUNDEDRECTD68*%
G04:AMPARAMS|DCode=69|XSize=17.72mil|YSize=64.96mil|CornerRadius=4.43mil|HoleSize=0mil|Usage=FLASHONLY|Rotation=315.000|XOffset=0mil|YOffset=0mil|HoleType=Round|Shape=RoundedRectangle|*
%AMROUNDEDRECTD69*
21,1,0.01772,0.05610,0,0,315.0*
21,1,0.00886,0.06496,0,0,315.0*
1,1,0.00886,-0.01670,-0.02297*
1,1,0.00886,-0.02297,-0.01670*
1,1,0.00886,0.01670,0.02297*
1,1,0.00886,0.02297,0.01670*
%
%ADD69ROUNDEDRECTD69*%
G04:AMPARAMS|DCode=70|XSize=17.72mil|YSize=64.96mil|CornerRadius=4.43mil|HoleSize=0mil|Usage=FLASHONLY|Rotation=45.000|XOffset=0mil|YOffset=0mil|HoleType=Round|Shape=RoundedRectangle|*
%AMROUNDEDRECTD70*
21,1,0.01772,0.05610,0,0,45.0*
21,1,0.00886,0.06496,0,0,45.0*
1,1,0.00886,0.02297,-0.01670*
1,1,0.00886,0.01670,-0.02297*
1,1,0.00886,-0.02297,0.01670*
1,1,0.00886,-0.01670,0.02297*
%
%ADD70ROUNDEDRECTD70*%
G04:AMPARAMS|DCode=71|XSize=70.87mil|YSize=45.28mil|CornerRadius=5.66mil|HoleSize=0mil|Usage=FLASHONLY|Rotation=0.000|XOffset=0mil|YOffset=0mil|HoleType=Round|Shape=RoundedRectangle|*
%AMROUNDEDRECTD71*
21,1,0.07087,0.03396,0,0,0.0*
21,1,0.05955,0.04528,0,0,0.0*
1,1,0.01132,0.02977,-0.01698*
1,1,0.01132,-0.02977,-0.01698*
1,1,0.01132,-0.02977,0.01698*
1,1,0.01132,0.02977,0.01698*
%
%ADD71ROUNDEDRECTD71*%
%ADD72R,0.07480X0.07480*%
%ADD73R,0.03937X0.05118*%
%ADD74R,0.05315X0.01575*%
%ADD75O,0.05906X0.01575*%
G04:AMPARAMS|DCode=76|XSize=50mil|YSize=50mil|CornerRadius=6.25mil|HoleSize=0mil|Usage=FLASHONLY|Rotation=0.000|XOffset=0mil|YOffset=0mil|HoleType=Round|Shape=RoundedRectangle|*
%AMROUNDEDRECTD76*
21,1,0.05000,0.03750,0,0,0.0*
21,1,0.03750,0.05000,0,0,0.0*
1,1,0.01250,0.01875,-0.01875*
1,1,0.01250,-0.01875,-0.01875*
1,1,0.01250,-0.01875,0.01875*
1,1,0.01250,0.01875,0.01875*
%
%ADD76ROUNDEDRECTD76*%
%ADD77O,0.02362X0.06299*%
G04:AMPARAMS|DCode=78|XSize=23.62mil|YSize=27.56mil|CornerRadius=2.95mil|HoleSize=0mil|Usage=FLASHONLY|Rotation=0.000|XOffset=0mil|YOffset=0mil|HoleType=Round|Shape=RoundedRectangle|*
%AMROUNDEDRECTD78*
21,1,0.02362,0.02165,0,0,0.0*
21,1,0.01772,0.02756,0,0,0.0*
1,1,0.00591,0.00886,-0.01083*
1,1,0.00591,-0.00886,-0.01083*
1,1,0.00591,-0.00886,0.01083*
1,1,0.00591,0.00886,0.01083*
%
%ADD78ROUNDEDRECTD78*%
G04:AMPARAMS|DCode=79|XSize=70.87mil|YSize=45.28mil|CornerRadius=5.66mil|HoleSize=0mil|Usage=FLASHONLY|Rotation=90.000|XOffset=0mil|YOffset=0mil|HoleType=Round|Shape=RoundedRectangle|*
%AMROUNDEDRECTD79*
21,1,0.07087,0.03396,0,0,90.0*
21,1,0.05955,0.04528,0,0,90.0*
1,1,0.01132,0.01698,0.02977*
1,1,0.01132,0.01698,-0.02977*
1,1,0.01132,-0.01698,-0.02977*
1,1,0.01132,-0.01698,0.02977*
%
%ADD79ROUNDEDRECTD79*%
G04:AMPARAMS|DCode=80|XSize=55.12mil|YSize=39.37mil|CornerRadius=4.92mil|HoleSize=0mil|Usage=FLASHONLY|Rotation=90.000|XOffset=0mil|YOffset=0mil|HoleType=Round|Shape=RoundedRectangle|*
%AMROUNDEDRECTD80*
21,1,0.05512,0.02953,0,0,90.0*
21,1,0.04528,0.03937,0,0,90.0*
1,1,0.00984,0.01476,0.02264*
1,1,0.00984,0.01476,-0.02264*
1,1,0.00984,-0.01476,-0.02264*
1,1,0.00984,-0.01476,0.02264*
%
%ADD80ROUNDEDRECTD80*%
G04:AMPARAMS|DCode=81|XSize=115mil|YSize=110mil|CornerRadius=13.75mil|HoleSize=0mil|Usage=FLASHONLY|Rotation=180.000|XOffset=0mil|YOffset=0mil|HoleType=Round|Shape=RoundedRectangle|*
%AMROUNDEDRECTD81*
21,1,0.11500,0.08250,0,0,180.0*
21,1,0.08750,0.11000,0,0,180.0*
1,1,0.02750,-0.04375,0.04125*
1,1,0.02750,0.04375,0.04125*
1,1,0.02750,0.04375,-0.04125*
1,1,0.02750,-0.04375,-0.04125*
%
%ADD81ROUNDEDRECTD81*%
G04:AMPARAMS|DCode=82|XSize=70.87mil|YSize=23.62mil|CornerRadius=5.91mil|HoleSize=0mil|Usage=FLASHONLY|Rotation=0.000|XOffset=0mil|YOffset=0mil|HoleType=Round|Shape=RoundedRectangle|*
%AMROUNDEDRECTD82*
21,1,0.07087,0.01181,0,0,0.0*
21,1,0.05906,0.02362,0,0,0.0*
1,1,0.01181,0.02953,-0.00591*
1,1,0.01181,-0.02953,-0.00591*
1,1,0.01181,-0.02953,0.00591*
1,1,0.01181,0.02953,0.00591*
%
%ADD82ROUNDEDRECTD82*%
%ADD83C,0.03000*%
%ADD84C,0.01500*%
%ADD85O,0.07874X0.39370*%
%ADD86C,0.06000*%
%ADD87C,0.12598*%
%ADD88R,0.06000X0.06000*%
%ADD89C,0.07087*%
%ADD90O,0.19685X0.09843*%
%ADD91C,0.03937*%
%ADD92R,0.03937X0.03937*%
%ADD93C,0.05512*%
%ADD94C,0.07874*%
%ADD95C,0.05906*%
%ADD96R,0.05906X0.05906*%
%ADD97C,0.21654*%
%ADD98C,0.05000*%
G36*
X49387Y294722D02*
Y289419D01*
X49477Y288738D01*
X49739Y288104D01*
X50157Y287559D01*
Y287244D01*
X49739Y286699D01*
X49477Y286065D01*
X49387Y285384D01*
Y279577D01*
X49477Y278896D01*
X49739Y278261D01*
X50157Y277716D01*
X50702Y277298D01*
X51337Y277036D01*
X51680Y276991D01*
Y269071D01*
X43984Y261375D01*
X31496D01*
X30533Y261184D01*
X29716Y260638D01*
X26764Y257685D01*
X26525Y257328D01*
X26414Y257291D01*
X25926Y257331D01*
X25630Y257716D01*
X25085Y258135D01*
X24451Y258397D01*
X23770Y258487D01*
X19931D01*
X19250Y258397D01*
X18616Y258135D01*
X18071Y257716D01*
X17653Y257172D01*
X17390Y256537D01*
X17300Y255856D01*
Y255233D01*
X16457D01*
X15670Y256260D01*
X14632Y257056D01*
X13423Y257557D01*
X12126Y257728D01*
X10829Y257557D01*
X9907Y257175D01*
X9407Y257496D01*
Y259196D01*
X9855Y259417D01*
X10109Y259223D01*
X11082Y258820D01*
X11626Y258748D01*
Y262717D01*
Y266685D01*
X11082Y266614D01*
X10215Y266254D01*
X9867Y266373D01*
X9671Y266505D01*
X9646Y266677D01*
X10843Y267874D01*
X12126Y267705D01*
X13423Y267876D01*
X14632Y268377D01*
X15670Y269173D01*
X16457Y270200D01*
X17300D01*
Y269734D01*
X17390Y269053D01*
X17653Y268419D01*
X18071Y267874D01*
X18616Y267456D01*
X19250Y267193D01*
X19931Y267104D01*
X23770D01*
X24451Y267193D01*
X25085Y267456D01*
X25630Y267874D01*
X26048Y268419D01*
X26311Y269053D01*
X26401Y269734D01*
Y275133D01*
X28718D01*
Y269734D01*
X28807Y269053D01*
X29070Y268419D01*
X29488Y267874D01*
X30033Y267456D01*
X30667Y267193D01*
X31348Y267104D01*
X35187D01*
X35868Y267193D01*
X36502Y267456D01*
X37047Y267874D01*
X37465Y268419D01*
X37728Y269053D01*
X37742Y269163D01*
X37872Y269254D01*
X38273Y269358D01*
X39085Y268735D01*
X40172Y268284D01*
X41339Y268131D01*
X42505Y268284D01*
X43592Y268735D01*
X44526Y269451D01*
X45242Y270384D01*
X45692Y271471D01*
X45846Y272638D01*
X45692Y273804D01*
X45242Y274891D01*
X44526Y275825D01*
X43716Y276446D01*
X43866Y276946D01*
X44439D01*
X45120Y277036D01*
X45754Y277298D01*
X46299Y277716D01*
X46717Y278261D01*
X46980Y278896D01*
X47070Y279577D01*
Y285384D01*
X46980Y286065D01*
X46717Y286699D01*
X46299Y287244D01*
Y287559D01*
X46717Y288104D01*
X46980Y288738D01*
X47070Y289419D01*
Y294553D01*
X47244Y294706D01*
X48411Y294859D01*
X48887Y295056D01*
X49387Y294722D01*
D02*
G37*
G36*
X344488Y1969D02*
X1969D01*
Y229550D01*
X2468Y229599D01*
X2596Y228958D01*
X3142Y228142D01*
X7283Y224000D01*
X7115Y222716D01*
X7285Y221420D01*
X7786Y220211D01*
X8582Y219173D01*
X9620Y218377D01*
X10560Y217987D01*
Y217446D01*
X9620Y217056D01*
X8582Y216260D01*
X7786Y215222D01*
X7285Y214014D01*
X7115Y212717D01*
X7285Y211420D01*
X7786Y210211D01*
X8582Y209173D01*
X9620Y208377D01*
X10560Y207987D01*
Y207446D01*
X9620Y207056D01*
X8582Y206260D01*
X7786Y205222D01*
X7285Y204014D01*
X7115Y202716D01*
X7285Y201419D01*
X7786Y200211D01*
X8582Y199173D01*
X9620Y198377D01*
X10829Y197876D01*
X10860Y197872D01*
X10989Y197389D01*
X10593Y197085D01*
X9876Y196151D01*
X9426Y195064D01*
X9273Y193898D01*
X9383Y193060D01*
X7031Y190709D01*
X6486Y189892D01*
X6294Y188929D01*
Y106346D01*
X6486Y105383D01*
X7031Y104567D01*
X14363Y97235D01*
X14142Y96787D01*
X13934Y96814D01*
X12649Y96645D01*
X11452Y96149D01*
X10424Y95360D01*
X9635Y94332D01*
X9139Y93135D01*
X8970Y91850D01*
X9139Y90566D01*
X9635Y89368D01*
X10424Y88341D01*
X11452Y87552D01*
X12526Y87107D01*
X12526Y87106D01*
Y86595D01*
X12526Y86594D01*
X11452Y86149D01*
X10424Y85360D01*
X9635Y84332D01*
X9139Y83135D01*
X8970Y81850D01*
X9139Y80566D01*
X9635Y79369D01*
X10424Y78341D01*
X11452Y77552D01*
X12526Y77107D01*
X12526Y77106D01*
Y76595D01*
X12526Y76594D01*
X11452Y76149D01*
X10424Y75360D01*
X9635Y74332D01*
X9139Y73135D01*
X8970Y71850D01*
X9139Y70566D01*
X9635Y69368D01*
X10424Y68340D01*
X11452Y67552D01*
X12526Y67107D01*
X12526Y67106D01*
Y66595D01*
X12526Y66594D01*
X11452Y66149D01*
X10424Y65360D01*
X9635Y64332D01*
X9139Y63135D01*
X8970Y61850D01*
X9139Y60566D01*
X9635Y59368D01*
X10424Y58341D01*
X11452Y57552D01*
X12649Y57056D01*
X13934Y56887D01*
X15219Y57056D01*
X16416Y57552D01*
X17444Y58341D01*
X18233Y59368D01*
X18729Y60566D01*
X18898Y61850D01*
X18734Y63091D01*
X36716Y81073D01*
X37207Y80976D01*
X37435Y80424D01*
X38152Y79490D01*
X38290Y79384D01*
Y78892D01*
X37880Y78357D01*
X37622Y77735D01*
X37534Y77067D01*
Y75886D01*
X37622Y75218D01*
X37880Y74595D01*
X38290Y74061D01*
X38824Y73650D01*
X39447Y73393D01*
X40115Y73305D01*
X42871D01*
X43539Y73393D01*
X44161Y73650D01*
X44696Y74061D01*
X45106Y74595D01*
X45364Y75218D01*
X45452Y75886D01*
Y77067D01*
X45364Y77735D01*
X45106Y78357D01*
X44696Y78892D01*
X44547Y79006D01*
X44604Y79593D01*
X45242Y80424D01*
X45692Y81511D01*
X45846Y82677D01*
X45692Y83844D01*
X45242Y84931D01*
X44526Y85864D01*
X43592Y86580D01*
X43113Y86779D01*
X42963Y87278D01*
X43256Y87726D01*
X43539Y87763D01*
X44161Y88021D01*
X44564Y88330D01*
X62044D01*
X62446Y88021D01*
X63069Y87763D01*
X63737Y87675D01*
X64856D01*
X64889Y87175D01*
X64559Y87131D01*
X63794Y87031D01*
X62707Y86580D01*
X61774Y85864D01*
X61057Y84931D01*
X60607Y83844D01*
X60454Y82677D01*
X60607Y81511D01*
X61057Y80424D01*
X61774Y79490D01*
X61912Y79384D01*
X61912Y78892D01*
X61502Y78357D01*
X61244Y77735D01*
X61156Y77067D01*
Y75886D01*
X61244Y75218D01*
X61502Y74595D01*
X61912Y74061D01*
X62446Y73650D01*
X63069Y73393D01*
X63737Y73305D01*
X66493D01*
X67161Y73393D01*
X67783Y73650D01*
X68318Y74061D01*
X68728Y74595D01*
X68986Y75218D01*
X69074Y75886D01*
Y76221D01*
X69266Y76288D01*
X69574Y76305D01*
X69888Y75836D01*
X70430Y75473D01*
X71070Y75346D01*
X73473D01*
Y78937D01*
Y82528D01*
X71070D01*
X70430Y82401D01*
X69888Y82038D01*
X69407Y82220D01*
X69468Y82677D01*
X69314Y83844D01*
X68864Y84931D01*
X68148Y85864D01*
X67214Y86580D01*
X66127Y87031D01*
X65362Y87131D01*
X65033Y87175D01*
X65065Y87675D01*
X66493D01*
X67161Y87763D01*
X67783Y88021D01*
X67970Y88164D01*
X68498Y87982D01*
X68529Y87754D01*
X68791Y87120D01*
X69209Y86575D01*
X69754Y86157D01*
X70389Y85894D01*
X71070Y85804D01*
X76877D01*
X77558Y85894D01*
X78192Y86157D01*
X78737Y86575D01*
X79155Y87120D01*
X79418Y87754D01*
X79508Y88435D01*
Y92274D01*
X79418Y92954D01*
X79155Y93589D01*
X78737Y94134D01*
X78192Y94552D01*
X77558Y94815D01*
X76877Y94904D01*
X72074D01*
X70124Y96854D01*
X70298Y97275D01*
X70452Y98442D01*
X70298Y99608D01*
X69848Y100695D01*
X69195Y101546D01*
X69135Y101659D01*
X69186Y102217D01*
X69584Y102615D01*
X70117Y103412D01*
X70304Y104353D01*
X70227Y104741D01*
X70438Y104882D01*
X70140Y105180D01*
X70117Y105294D01*
X69584Y106092D01*
X67601Y108076D01*
X67951Y108426D01*
X69935Y106443D01*
X70732Y105910D01*
X70847Y105887D01*
X71145Y105589D01*
X71286Y105800D01*
X71673Y105723D01*
X72614Y105910D01*
X73412Y106443D01*
X74038Y107069D01*
X74571Y107867D01*
X74758Y108808D01*
X74681Y109195D01*
X74892Y109336D01*
X74594Y109634D01*
X74571Y109749D01*
X74038Y110546D01*
X72055Y112530D01*
X72405Y112880D01*
X74389Y110897D01*
X75187Y110364D01*
X75301Y110341D01*
X75640Y110002D01*
X75811Y110019D01*
X76854Y108976D01*
X76437Y108353D01*
X76247Y107393D01*
X76363Y106810D01*
X75472Y105920D01*
X75250Y105875D01*
X74756Y105546D01*
X74066Y104855D01*
X76743Y102179D01*
X79419Y99502D01*
X80110Y100193D01*
X80439Y100686D01*
X80484Y100909D01*
X81374Y101799D01*
X81957Y101683D01*
X82917Y101874D01*
X83731Y102418D01*
X84596Y103283D01*
X85052Y102933D01*
X86139Y102483D01*
X87305Y102329D01*
X88472Y102483D01*
X89559Y102933D01*
X90492Y103649D01*
X91209Y104583D01*
X91659Y105670D01*
X91813Y106836D01*
X91659Y108003D01*
X91209Y109090D01*
X90492Y110023D01*
X89559Y110739D01*
X88472Y111190D01*
X87485Y111320D01*
X87468Y111826D01*
X87577Y111848D01*
X88394Y112393D01*
X104785Y128785D01*
X105286Y128729D01*
X105353Y128646D01*
X106065Y127718D01*
X106998Y127002D01*
X108086Y126552D01*
X109252Y126399D01*
X110418Y126552D01*
X111505Y127002D01*
X112439Y127718D01*
X112953Y128389D01*
X114115D01*
X140680Y101823D01*
X140453Y101343D01*
X139764Y101411D01*
X129921D01*
X128571Y101278D01*
X127272Y100884D01*
X126075Y100244D01*
X125026Y99384D01*
X124165Y98334D01*
X123525Y97137D01*
X123131Y95839D01*
X122998Y94488D01*
X123131Y93138D01*
X123525Y91839D01*
X124165Y90642D01*
X125026Y89593D01*
X126075Y88732D01*
X127272Y88092D01*
X128571Y87698D01*
X129921Y87565D01*
X139764D01*
X141114Y87698D01*
X142413Y88092D01*
X143610Y88732D01*
X144659Y89593D01*
X145520Y90642D01*
X146160Y91839D01*
X146554Y93138D01*
X146687Y94488D01*
X146619Y95178D01*
X147099Y95405D01*
X149795Y92708D01*
X150612Y92163D01*
X150966Y92092D01*
X151196Y91537D01*
X151064Y91339D01*
X150936Y90699D01*
Y89280D01*
X155512D01*
Y88279D01*
X150936D01*
Y86860D01*
X150969Y86695D01*
X150559Y86195D01*
X101978D01*
X101051Y87121D01*
X100964Y87781D01*
X100514Y88868D01*
X99798Y89801D01*
X98865Y90517D01*
X97778Y90968D01*
X96611Y91121D01*
X95445Y90968D01*
X94358Y90517D01*
X93424Y89801D01*
X92708Y88868D01*
X92258Y87781D01*
X92104Y86614D01*
X92258Y85448D01*
X92708Y84361D01*
X93424Y83427D01*
X94358Y82711D01*
X95445Y82261D01*
X96104Y82174D01*
X98055Y80223D01*
X98779Y79667D01*
X99623Y79318D01*
X100528Y79198D01*
X191949D01*
X192854Y79318D01*
X193698Y79667D01*
X194423Y80223D01*
X196031Y81831D01*
X196504Y81598D01*
X196412Y80897D01*
Y72647D01*
X196527Y71774D01*
X196864Y70960D01*
X197400Y70262D01*
X198098Y69726D01*
X198912Y69389D01*
X199784Y69274D01*
X206959D01*
X213848Y62385D01*
Y58166D01*
X211109Y55427D01*
X210553Y54702D01*
X210204Y53858D01*
X210084Y52953D01*
Y47244D01*
X210204Y46339D01*
X210492Y45642D01*
X210564Y45278D01*
X211065Y44529D01*
X211502Y44237D01*
X211449Y43850D01*
X211394Y43708D01*
X210345Y43273D01*
X209412Y42557D01*
X208695Y41624D01*
X208245Y40537D01*
X208091Y39370D01*
X208245Y38204D01*
X208545Y37479D01*
X208513Y37431D01*
X208316Y36442D01*
Y30487D01*
X208513Y29498D01*
X209073Y28660D01*
X209912Y28100D01*
X210901Y27903D01*
X214296D01*
X215285Y28100D01*
X216124Y28660D01*
X216684Y29498D01*
X216880Y30487D01*
Y36442D01*
X216684Y37431D01*
X216652Y37479D01*
X216952Y38204D01*
X217106Y39370D01*
X216952Y40537D01*
X216502Y41624D01*
X215785Y42557D01*
X214852Y43273D01*
X214613Y43372D01*
X214664Y43892D01*
X215352Y44029D01*
X216101Y44529D01*
X216601Y45278D01*
X216673Y45642D01*
X216962Y46339D01*
X217081Y47244D01*
Y51327D01*
X217559Y51556D01*
X219304Y49811D01*
X219423Y49215D01*
X219490Y49114D01*
X219423Y49013D01*
X219247Y48130D01*
Y46358D01*
X219423Y45475D01*
X219490Y45374D01*
X219423Y45273D01*
X219247Y44390D01*
Y42618D01*
X219423Y41735D01*
X219435Y41717D01*
Y38660D01*
X219403Y38646D01*
X218858Y38228D01*
X218440Y37683D01*
X218177Y37049D01*
X218088Y36368D01*
Y30561D01*
X218177Y29880D01*
X218440Y29246D01*
X218858Y28701D01*
X219403Y28283D01*
X220038Y28020D01*
X220719Y27930D01*
X222148D01*
X222345Y27681D01*
X222125Y27188D01*
X220719D01*
X220038Y27098D01*
X219403Y26835D01*
X218858Y26417D01*
X218440Y25872D01*
X218177Y25238D01*
X218166Y25152D01*
X216873D01*
X216862Y25238D01*
X216599Y25872D01*
X216181Y26417D01*
X215636Y26835D01*
X215002Y27098D01*
X214321Y27188D01*
X210482D01*
X209801Y27098D01*
X209167Y26835D01*
X208622Y26417D01*
X208204Y25872D01*
X207941Y25238D01*
X207852Y24557D01*
Y18750D01*
X207941Y18069D01*
X208204Y17435D01*
X208622Y16890D01*
X209167Y16472D01*
X209801Y16209D01*
X210482Y16119D01*
X214321D01*
X215002Y16209D01*
X215636Y16472D01*
X216181Y16890D01*
X216599Y17435D01*
X216862Y18069D01*
X216873Y18155D01*
X218166D01*
X218177Y18069D01*
X218440Y17435D01*
X218858Y16890D01*
X219403Y16472D01*
X220038Y16209D01*
X220719Y16119D01*
X224557D01*
X225238Y16209D01*
X225872Y16472D01*
X226417Y16890D01*
X226835Y17435D01*
X227098Y18069D01*
X227188Y18750D01*
Y22329D01*
X227650Y22521D01*
X228947Y21223D01*
X229505Y20795D01*
Y18750D01*
X229595Y18069D01*
X229857Y17435D01*
X230276Y16890D01*
X230820Y16472D01*
X231455Y16209D01*
X232136Y16119D01*
X235974D01*
X236655Y16209D01*
X237290Y16472D01*
X237835Y16890D01*
X238253Y17435D01*
X238515Y18069D01*
X238605Y18750D01*
Y24557D01*
X238515Y25238D01*
X238253Y25872D01*
X237835Y26417D01*
X237290Y26835D01*
X236655Y27098D01*
X235974Y27188D01*
X233052D01*
X233047Y27189D01*
X232861Y27409D01*
X232847Y27430D01*
X233099Y27930D01*
X235974D01*
X236655Y28020D01*
X237290Y28283D01*
X237835Y28701D01*
X238253Y29246D01*
X238515Y29880D01*
X238605Y30561D01*
Y31171D01*
X240393D01*
X240639Y30671D01*
X240585Y30600D01*
X240135Y29513D01*
X239981Y28346D01*
X240135Y27180D01*
X240585Y26093D01*
X241301Y25159D01*
X241971Y24645D01*
Y18597D01*
X241848Y18300D01*
X241759Y17623D01*
Y13873D01*
X241848Y13196D01*
X242039Y12735D01*
X241787Y12235D01*
X176965D01*
X145499Y43701D01*
X149521Y47723D01*
X150077Y48448D01*
X150426Y49291D01*
X150440Y49394D01*
X150940Y49361D01*
Y48524D01*
X151116Y47640D01*
X151616Y46891D01*
X152365Y46391D01*
X153248Y46216D01*
X155343D01*
X156430Y45129D01*
X156397Y44630D01*
X156262Y44526D01*
X155546Y43592D01*
X155095Y42505D01*
X154942Y41339D01*
X155095Y40172D01*
X155546Y39085D01*
X156262Y38152D01*
X157195Y37435D01*
X158282Y36985D01*
X159449Y36832D01*
X160615Y36985D01*
X161702Y37435D01*
X162636Y38152D01*
X163150Y38822D01*
X164869D01*
X165002Y38624D01*
X165751Y38124D01*
X166634Y37948D01*
X168405D01*
X169289Y38124D01*
X170038Y38624D01*
X170538Y39373D01*
X170714Y40256D01*
Y43602D01*
X170538Y44486D01*
X170038Y45234D01*
X169289Y45735D01*
X168405Y45911D01*
X166634D01*
X165751Y45735D01*
X165002Y45234D01*
X164501Y44486D01*
X164376Y43856D01*
X163150D01*
X162636Y44526D01*
X161966Y45040D01*
Y45669D01*
X161774Y46633D01*
X161229Y47449D01*
X158903Y49775D01*
Y50295D01*
X158727Y51179D01*
X158227Y51927D01*
X157478Y52428D01*
X156595Y52603D01*
X153248D01*
X152365Y52428D01*
X151616Y51927D01*
X151116Y51179D01*
X151046Y50827D01*
X150546Y50876D01*
Y51966D01*
X150873Y52102D01*
X151417Y52520D01*
X151835Y53065D01*
X151971Y53391D01*
X155071D01*
X155976Y53511D01*
X156424Y53696D01*
X156595D01*
X157478Y53872D01*
X158227Y54372D01*
X158727Y55121D01*
X158845Y55717D01*
X164591Y61462D01*
X174213D01*
X175030Y61570D01*
X175098D01*
X175982Y61746D01*
X176731Y62246D01*
X177231Y62995D01*
X177303Y63358D01*
X177592Y64055D01*
X177711Y64961D01*
X177592Y65866D01*
X177303Y66563D01*
X177231Y66927D01*
X176731Y67675D01*
X175982Y68176D01*
X175098Y68351D01*
X175030D01*
X174213Y68459D01*
X163142D01*
X162236Y68340D01*
X162070Y68271D01*
X161637Y68521D01*
X161563Y69080D01*
X161113Y70167D01*
X160397Y71100D01*
X159463Y71817D01*
X158376Y72267D01*
X157210Y72420D01*
X156043Y72267D01*
X154956Y71817D01*
X154300Y71313D01*
X151558D01*
X151417Y71496D01*
X150873Y71914D01*
X150238Y72177D01*
X149557Y72267D01*
X143750D01*
X143238Y72199D01*
X139636D01*
X139214Y72374D01*
X138533Y72464D01*
X134695D01*
X134014Y72374D01*
X133379Y72111D01*
X132835Y71693D01*
X132417Y71148D01*
X132154Y70514D01*
X132064Y69833D01*
Y64026D01*
X132154Y63345D01*
X132417Y62710D01*
X132835Y62165D01*
X133379Y61747D01*
X133737Y61599D01*
Y61058D01*
X133573Y60990D01*
X132640Y60274D01*
X131923Y59340D01*
X131518Y58360D01*
X131021Y58374D01*
X131011Y58376D01*
X130958Y58780D01*
X130755Y59268D01*
Y59842D01*
X130647Y60665D01*
X130330Y61431D01*
X129825Y62089D01*
X129254Y62527D01*
X129394Y62710D01*
X129657Y63345D01*
X129747Y64026D01*
Y69833D01*
X129657Y70514D01*
X129394Y71148D01*
X128976Y71693D01*
X128431Y72111D01*
X127797Y72374D01*
X127116Y72464D01*
X123278D01*
X122597Y72374D01*
X121962Y72111D01*
X121417Y71693D01*
X120999Y71148D01*
X120736Y70514D01*
X120647Y69833D01*
Y69447D01*
X120198Y69226D01*
X119776Y69550D01*
X118689Y70001D01*
X117522Y70154D01*
X116356Y70001D01*
X115269Y69550D01*
X114335Y68834D01*
X113619Y67901D01*
X113169Y66814D01*
X113015Y65647D01*
X113169Y64481D01*
X113619Y63394D01*
X113654Y63347D01*
X113463Y63019D01*
X113354Y62917D01*
X112579Y63019D01*
X111757Y62911D01*
X110990Y62594D01*
X110332Y62089D01*
X109828Y61431D01*
X109550Y60762D01*
X109245Y60704D01*
X109019Y60738D01*
X108892Y61045D01*
X108336Y61769D01*
X101991Y68114D01*
Y69636D01*
X101901Y70317D01*
X101638Y70951D01*
X101221Y71496D01*
X100676Y71914D01*
X100041Y72177D01*
X99360Y72267D01*
X93553D01*
X92872Y72177D01*
X92238Y71914D01*
X91693Y71496D01*
X91275Y70951D01*
X91012Y70317D01*
X90922Y69636D01*
Y65797D01*
X91012Y65116D01*
X91275Y64482D01*
X91693Y63937D01*
X92238Y63519D01*
X92872Y63256D01*
X93553Y63166D01*
X97044D01*
X98861Y61349D01*
X98654Y60849D01*
X93553D01*
X92872Y60760D01*
X92695Y60686D01*
X92270Y61240D01*
X89004Y64505D01*
X88280Y65061D01*
X87436Y65411D01*
X86983Y65470D01*
X86531Y65530D01*
X44710D01*
X44304Y66289D01*
X43566Y67188D01*
X42667Y67926D01*
X41641Y68475D01*
X40528Y68812D01*
X39370Y68926D01*
X38212Y68812D01*
X37099Y68475D01*
X36073Y67926D01*
X35174Y67188D01*
X34436Y66289D01*
X33888Y65263D01*
X33550Y64150D01*
X33436Y62992D01*
Y31496D01*
X33550Y30338D01*
X33888Y29225D01*
X34436Y28199D01*
X35174Y27300D01*
X36073Y26562D01*
X37099Y26014D01*
X38212Y25676D01*
X39370Y25562D01*
X40528Y25676D01*
X41641Y26014D01*
X42667Y26562D01*
X43566Y27300D01*
X44304Y28199D01*
X44853Y29225D01*
X45190Y30338D01*
X45304Y31496D01*
Y58533D01*
X48523D01*
X48770Y58033D01*
X48262Y57372D01*
X47812Y56285D01*
X47658Y55118D01*
X47812Y53952D01*
X48262Y52865D01*
X48978Y51931D01*
X49912Y51215D01*
X50999Y50765D01*
X52165Y50611D01*
X53332Y50765D01*
X54029Y51054D01*
X54575Y50738D01*
X54598Y50560D01*
X54876Y49890D01*
X55318Y49314D01*
X55894Y48872D01*
X56564Y48595D01*
X57284Y48500D01*
X61614D01*
X62193Y48576D01*
X62693Y48269D01*
Y34980D01*
X61826Y34865D01*
X60739Y34415D01*
X59805Y33699D01*
X59089Y32765D01*
X58639Y31678D01*
X58485Y30512D01*
X58639Y29345D01*
X59089Y28258D01*
X59805Y27325D01*
X59855Y27287D01*
X59788Y26708D01*
X59409Y26417D01*
X58991Y25872D01*
X58729Y25238D01*
X58639Y24557D01*
Y18750D01*
X58729Y18069D01*
X58991Y17435D01*
X59409Y16890D01*
X59954Y16472D01*
X60589Y16209D01*
X61270Y16119D01*
X65108D01*
X65789Y16209D01*
X66424Y16472D01*
X66969Y16890D01*
X67387Y17435D01*
X67649Y18069D01*
X67739Y18750D01*
Y24557D01*
X67649Y25238D01*
X67387Y25872D01*
X66969Y26417D01*
X66424Y26835D01*
X66326Y26876D01*
X66268Y27441D01*
X66895Y28258D01*
X67059Y28654D01*
X67128Y28675D01*
X68012Y28499D01*
X71358D01*
X71703Y28567D01*
X72089Y28250D01*
Y27109D01*
X72006Y27098D01*
X71372Y26835D01*
X70827Y26417D01*
X70409Y25872D01*
X70146Y25238D01*
X70056Y24557D01*
Y18750D01*
X70146Y18069D01*
X70409Y17435D01*
X70827Y16890D01*
X71372Y16472D01*
X72006Y16209D01*
X72687Y16119D01*
X76526D01*
X77206Y16209D01*
X77841Y16472D01*
X78386Y16890D01*
X78804Y17435D01*
X79067Y18069D01*
X79156Y18750D01*
Y24557D01*
X79067Y25238D01*
X78804Y25872D01*
X78386Y26417D01*
X77841Y26835D01*
X77206Y27098D01*
X77123Y27109D01*
Y28280D01*
X77623Y28623D01*
X78248Y28499D01*
X81595D01*
X82478Y28675D01*
X83227Y29175D01*
X83727Y29924D01*
X83903Y30807D01*
Y31935D01*
X98425D01*
X99331Y32054D01*
X100174Y32403D01*
X100899Y32959D01*
X104836Y36896D01*
X105392Y37621D01*
X105597Y38115D01*
X105741Y38465D01*
X105819Y39050D01*
X106346Y39230D01*
X108962Y36614D01*
X101857Y29509D01*
X101301Y28785D01*
X100952Y27941D01*
X100832Y27035D01*
Y11639D01*
X100427Y11112D01*
X99977Y10025D01*
X99824Y8858D01*
X99977Y7692D01*
X100427Y6605D01*
X101144Y5671D01*
X102077Y4955D01*
X103164Y4505D01*
X104331Y4351D01*
X105497Y4505D01*
X106584Y4955D01*
X107518Y5671D01*
X108234Y6605D01*
X108684Y7692D01*
X108838Y8858D01*
X108684Y10025D01*
X108234Y11112D01*
X107829Y11639D01*
Y25586D01*
X108177Y25934D01*
X108639Y25743D01*
Y23474D01*
X108729Y22794D01*
X108991Y22159D01*
X109409Y21614D01*
X109954Y21196D01*
X110589Y20933D01*
X111270Y20844D01*
X117077D01*
X117495Y20899D01*
X117728Y20425D01*
X115830Y18526D01*
X111270D01*
X110589Y18437D01*
X109954Y18174D01*
X109409Y17756D01*
X108991Y17211D01*
X108729Y16577D01*
X108639Y15896D01*
Y12057D01*
X108729Y11376D01*
X108991Y10742D01*
X109409Y10197D01*
X109954Y9779D01*
X110589Y9516D01*
X111270Y9426D01*
X117077D01*
X117758Y9516D01*
X118392Y9779D01*
X118937Y10197D01*
X119355Y10742D01*
X119618Y11376D01*
X119708Y12057D01*
Y14556D01*
X119957Y14754D01*
X120450Y14533D01*
Y12057D01*
X120540Y11376D01*
X120802Y10742D01*
X121221Y10197D01*
X121765Y9779D01*
X122400Y9516D01*
X123081Y9426D01*
X128888D01*
X129569Y9516D01*
X130203Y9779D01*
X130748Y10197D01*
X131166Y10742D01*
X131329Y11136D01*
X133618D01*
X133842Y10597D01*
X134258Y10055D01*
X134799Y9639D01*
X135430Y9378D01*
X136107Y9289D01*
X139857D01*
X140534Y9378D01*
X141165Y9639D01*
X141707Y10055D01*
X141758D01*
X142299Y9639D01*
X142930Y9378D01*
X143607Y9289D01*
X147357D01*
X148034Y9378D01*
X148665Y9639D01*
X149207Y10055D01*
X149623Y10597D01*
X149884Y11227D01*
X149973Y11904D01*
Y15654D01*
X149884Y16332D01*
X149623Y16962D01*
X149207Y17504D01*
X148981Y17678D01*
Y21692D01*
X149207Y21866D01*
X149623Y22408D01*
X149884Y23039D01*
X149973Y23716D01*
Y27466D01*
X149884Y28143D01*
X149623Y28773D01*
X149207Y29315D01*
X148665Y29731D01*
X148034Y29992D01*
X147981Y29999D01*
Y30617D01*
X148211Y30771D01*
X148469Y30835D01*
X173042Y6262D01*
X173767Y5706D01*
X174610Y5357D01*
X175516Y5238D01*
X286295D01*
X287201Y5357D01*
X288045Y5706D01*
X288769Y6262D01*
X295781Y13274D01*
X295781Y13274D01*
X311529Y29022D01*
X312085Y29747D01*
X312434Y30591D01*
X312554Y31496D01*
Y45327D01*
X316953Y49726D01*
X319240D01*
Y41929D01*
X326331D01*
Y37402D01*
X337748D01*
Y48819D01*
X327114D01*
Y50984D01*
X326548D01*
X326130Y51181D01*
Y53740D01*
Y56299D01*
Y58858D01*
Y61417D01*
Y66929D01*
X326548Y67126D01*
X327114D01*
Y69291D01*
X337748D01*
Y80709D01*
X326331D01*
Y76181D01*
X319240D01*
Y68459D01*
X316757D01*
X316230Y68864D01*
X315143Y69314D01*
X313976Y69468D01*
X312810Y69314D01*
X311723Y68864D01*
X310789Y68148D01*
X310073Y67214D01*
X309623Y66127D01*
X309565Y65691D01*
X309092Y65530D01*
X287181Y87441D01*
X286365Y87987D01*
X285402Y88178D01*
X284936D01*
X284766Y88678D01*
X285506Y89246D01*
X286279Y90253D01*
X286414Y90294D01*
X286736D01*
X286871Y90253D01*
X287644Y89246D01*
X288795Y88363D01*
X290136Y87807D01*
X291575Y87618D01*
X293014Y87807D01*
X294355Y88363D01*
X295506Y89246D01*
X296389Y90398D01*
X296945Y91738D01*
X297134Y93177D01*
X296945Y94616D01*
X296389Y95957D01*
X295506Y97108D01*
X294355Y97992D01*
X294092Y98101D01*
Y124764D01*
X294092Y124764D01*
X293900Y125727D01*
X293355Y126543D01*
X269164Y150734D01*
X269282Y151323D01*
X269970Y151609D01*
X270903Y152325D01*
X271620Y153258D01*
X272070Y154345D01*
X272224Y155512D01*
X272070Y156678D01*
X271620Y157765D01*
X270903Y158699D01*
X269970Y159415D01*
X268883Y159865D01*
X267717Y160019D01*
X266550Y159865D01*
X265463Y159415D01*
X264530Y158699D01*
X264175Y158676D01*
X249811Y173039D01*
X248995Y173585D01*
X248031Y173777D01*
X230040D01*
X229794Y174277D01*
X230281Y174911D01*
X230731Y175998D01*
X230885Y177165D01*
X230731Y178331D01*
X230281Y179419D01*
X229564Y180352D01*
X228894Y180866D01*
Y220414D01*
X248090Y239609D01*
X279606D01*
X280570Y239801D01*
X281386Y240346D01*
X286763Y245723D01*
X287026Y245614D01*
X288465Y245425D01*
X289903Y245614D01*
X291244Y246170D01*
X292396Y247053D01*
X293279Y248205D01*
X293718Y249264D01*
X294259D01*
X294496Y248693D01*
X295224Y247744D01*
X296173Y247016D01*
X297278Y246558D01*
X297965Y246468D01*
Y250984D01*
X298465D01*
D01*
X297965D01*
Y255501D01*
X297278Y255411D01*
X296173Y254953D01*
X295224Y254225D01*
X294496Y253275D01*
X294259Y252704D01*
X293718D01*
X293279Y253764D01*
X292396Y254915D01*
X291244Y255799D01*
X289903Y256354D01*
X288465Y256544D01*
X287026Y256354D01*
X285685Y255799D01*
X284534Y254915D01*
X283761Y253908D01*
X283626Y253868D01*
X283304D01*
X283169Y253908D01*
X282396Y254915D01*
X281244Y255799D01*
X279903Y256354D01*
X278465Y256544D01*
X277026Y256354D01*
X275685Y255799D01*
X274534Y254915D01*
X273761Y253908D01*
X273625Y253868D01*
X273304D01*
X273168Y253908D01*
X272396Y254915D01*
X271244Y255799D01*
X269903Y256354D01*
X268465Y256544D01*
X267026Y256354D01*
X265685Y255799D01*
X264533Y254915D01*
X263650Y253764D01*
X263095Y252423D01*
X262905Y250984D01*
X263095Y249545D01*
X263650Y248205D01*
X264533Y247053D01*
X265685Y246170D01*
X267026Y245614D01*
X268465Y245425D01*
X269903Y245614D01*
X271244Y246170D01*
X272396Y247053D01*
X273168Y248060D01*
X273304Y248101D01*
X273625D01*
X273761Y248060D01*
X274534Y247053D01*
X275685Y246170D01*
X277026Y245614D01*
X278465Y245425D01*
X278708Y245457D01*
X278929Y245008D01*
X278564Y244643D01*
X247047D01*
X246084Y244451D01*
X245268Y243906D01*
X224598Y223236D01*
X224052Y222419D01*
X223861Y221456D01*
Y180866D01*
X223190Y180352D01*
X222474Y179419D01*
X222024Y178331D01*
X221870Y177165D01*
X222024Y175998D01*
X222474Y174911D01*
X222961Y174277D01*
X222715Y173777D01*
X128398D01*
X128063Y174277D01*
X128369Y175014D01*
X128523Y176181D01*
X128369Y177347D01*
X127919Y178434D01*
X127514Y178962D01*
Y244291D01*
X127455Y244744D01*
X127395Y245197D01*
X127250Y245546D01*
X127046Y246041D01*
X126489Y246765D01*
X114525Y258730D01*
X114732Y259229D01*
X117864D01*
X118545Y259319D01*
X119179Y259582D01*
X119724Y260000D01*
X120142Y260545D01*
X120405Y261179D01*
X120417Y261265D01*
X121235D01*
X121762Y260861D01*
X122849Y260410D01*
X124016Y260257D01*
X125182Y260410D01*
X125220Y260426D01*
X125480Y259992D01*
X125026Y259620D01*
X124165Y258571D01*
X123525Y257374D01*
X123131Y256075D01*
X122998Y254724D01*
X123131Y253374D01*
X123525Y252075D01*
X124165Y250878D01*
X125026Y249829D01*
X126075Y248968D01*
X127272Y248328D01*
X128571Y247934D01*
X129921Y247801D01*
X139764D01*
X141114Y247934D01*
X142413Y248328D01*
X143610Y248968D01*
X144659Y249829D01*
X145520Y250878D01*
X146160Y252075D01*
X146554Y253374D01*
X146687Y254724D01*
X146554Y256075D01*
X146160Y257374D01*
X145520Y258571D01*
X144659Y259620D01*
X143610Y260481D01*
X142413Y261121D01*
X141114Y261514D01*
X139764Y261648D01*
X129921D01*
X128571Y261514D01*
X127515Y261194D01*
X127313Y261441D01*
X127248Y261636D01*
X127919Y262510D01*
X128369Y263597D01*
X128523Y264764D01*
X128369Y265930D01*
X127919Y267017D01*
X127203Y267951D01*
X126269Y268667D01*
X125182Y269117D01*
X124016Y269271D01*
X122849Y269117D01*
X121762Y268667D01*
X121235Y268262D01*
X120417D01*
X120405Y268348D01*
X120142Y268983D01*
X119724Y269528D01*
X119179Y269946D01*
X118545Y270209D01*
X117864Y270298D01*
X114026D01*
X113345Y270209D01*
X112710Y269946D01*
X112165Y269528D01*
X111747Y268983D01*
X111485Y268348D01*
X111395Y267667D01*
Y262567D01*
X110895Y262360D01*
X109078Y264177D01*
Y267667D01*
X108988Y268348D01*
X108725Y268983D01*
X108307Y269528D01*
X107762Y269946D01*
X107128Y270209D01*
X106447Y270298D01*
X102608D01*
X101927Y270209D01*
X101293Y269946D01*
X100748Y269528D01*
X100330Y268983D01*
X100067Y268348D01*
X100030Y268065D01*
X97887D01*
X97068Y268694D01*
X95918Y269170D01*
X94685Y269332D01*
X93452Y269170D01*
X92302Y268694D01*
X91316Y267936D01*
X90558Y266950D01*
X90082Y265800D01*
X89920Y264567D01*
X90082Y263334D01*
X90558Y262184D01*
X91316Y261197D01*
X92302Y260440D01*
X93452Y259964D01*
X94685Y259802D01*
X95918Y259964D01*
X97068Y260440D01*
X97887Y261069D01*
X100113D01*
X100330Y260545D01*
X100748Y260000D01*
X100915Y259872D01*
X100775Y259349D01*
X100211Y259275D01*
X99124Y258824D01*
X98191Y258108D01*
X97475Y257175D01*
X97025Y256088D01*
X96871Y254921D01*
X96950Y254319D01*
X96473Y254134D01*
X87105Y263501D01*
X87246Y264567D01*
X87083Y265800D01*
X86607Y266950D01*
X85850Y267936D01*
X84863Y268694D01*
X83714Y269170D01*
X82480Y269332D01*
X81247Y269170D01*
X80098Y268694D01*
X79111Y267936D01*
X78354Y266950D01*
X77877Y265800D01*
X77715Y264567D01*
X77877Y263334D01*
X78354Y262184D01*
X79111Y261197D01*
X80098Y260440D01*
X81247Y259964D01*
X82480Y259802D01*
X83546Y259942D01*
X92176Y251312D01*
Y248005D01*
X92061Y247832D01*
X91885Y246949D01*
Y245177D01*
X92061Y244294D01*
X92561Y243545D01*
X93310Y243045D01*
X94193Y242869D01*
X97539D01*
X98423Y243045D01*
X99172Y243545D01*
X99672Y244294D01*
X99848Y245177D01*
Y246949D01*
X99672Y247832D01*
X99172Y248581D01*
X98423Y249081D01*
X97539Y249257D01*
X97210D01*
Y252192D01*
X97703Y252370D01*
X98191Y251734D01*
X99124Y251018D01*
X100211Y250568D01*
X100940Y250472D01*
Y248917D01*
X101116Y248034D01*
X101616Y247285D01*
X102365Y246785D01*
X103248Y246609D01*
X106595D01*
X107478Y246785D01*
X108227Y247285D01*
X108727Y248034D01*
X108903Y248917D01*
Y250689D01*
X108727Y251572D01*
X108227Y252321D01*
X107478Y252821D01*
X106595Y252997D01*
X106176D01*
X106073Y253514D01*
X105761Y253981D01*
X105885Y254921D01*
X105731Y256088D01*
X105281Y257175D01*
X104633Y258019D01*
X105010Y258350D01*
X120517Y242842D01*
Y179841D01*
X120017Y179595D01*
X119643Y179882D01*
Y230118D01*
X119451Y231081D01*
X118906Y231898D01*
X108903Y241901D01*
Y243209D01*
X108727Y244092D01*
X108227Y244841D01*
X107478Y245341D01*
X106595Y245517D01*
X103248D01*
X102365Y245341D01*
X101616Y244841D01*
X101116Y244092D01*
X100940Y243209D01*
Y241437D01*
X101116Y240554D01*
X101616Y239805D01*
X102365Y239305D01*
X103248Y239129D01*
X104574D01*
X104610Y239075D01*
X114609Y229076D01*
Y179882D01*
X114011Y179423D01*
X114003Y179419D01*
X113762Y179413D01*
X113424Y179518D01*
X113266Y179899D01*
X112710Y180623D01*
X87160Y206173D01*
Y244094D01*
X87041Y245000D01*
X86691Y245844D01*
X86135Y246568D01*
X71491Y261213D01*
Y307136D01*
X71371Y308041D01*
X71022Y308885D01*
X70466Y309610D01*
X67425Y312650D01*
X67514Y313548D01*
X67425Y314446D01*
X72356Y319377D01*
X72912Y320101D01*
X73261Y320945D01*
X73380Y321850D01*
Y331693D01*
X73261Y332598D01*
X72912Y333442D01*
X72356Y334167D01*
X67425Y339097D01*
X67514Y339995D01*
X67400Y341153D01*
X67062Y342266D01*
X66514Y343292D01*
X65776Y344191D01*
X64877Y344929D01*
X63851Y345478D01*
X62737Y345815D01*
X61580Y345929D01*
X60422Y345815D01*
X59309Y345478D01*
X58283Y344929D01*
X57384Y344191D01*
X56646Y343292D01*
X56097Y342266D01*
X55760Y341153D01*
X55646Y339995D01*
X55760Y338837D01*
X56097Y337724D01*
X56646Y336698D01*
X57384Y335799D01*
X58283Y335061D01*
X59309Y334513D01*
X60422Y334175D01*
X61580Y334061D01*
X62478Y334150D01*
X66383Y330244D01*
Y323300D01*
X62478Y319394D01*
X61580Y319482D01*
X60422Y319368D01*
X59309Y319031D01*
X58283Y318482D01*
X57384Y317744D01*
X56646Y316845D01*
X56097Y315819D01*
X55854Y315016D01*
X55288Y314875D01*
X54842Y315321D01*
X54025Y315867D01*
X53062Y316058D01*
X37818D01*
Y318848D01*
X37728Y319529D01*
X37465Y320164D01*
X37047Y320709D01*
Y321024D01*
X37465Y321568D01*
X37728Y322203D01*
X37818Y322884D01*
Y328691D01*
X37728Y329372D01*
X37465Y330006D01*
X37047Y330551D01*
X36502Y330969D01*
X35868Y331232D01*
X35187Y331322D01*
X31348D01*
X31299Y331315D01*
X30126Y332488D01*
X29310Y333034D01*
X28346Y333225D01*
X19223D01*
X18260Y333034D01*
X17444Y332488D01*
X16588Y331633D01*
X16126Y331824D01*
Y332217D01*
X12626D01*
Y328716D01*
X13019D01*
X13210Y328255D01*
X12618Y327663D01*
X12126Y327728D01*
X10829Y327557D01*
X9620Y327057D01*
X8582Y326260D01*
X7786Y325222D01*
X7285Y324014D01*
X7115Y322716D01*
X7285Y321420D01*
X7786Y320211D01*
X8582Y319173D01*
X9620Y318377D01*
X10560Y317987D01*
Y317446D01*
X9620Y317056D01*
X8582Y316260D01*
X7786Y315222D01*
X7285Y314014D01*
X7115Y312717D01*
X7285Y311420D01*
X7786Y310211D01*
X8582Y309173D01*
X9620Y308377D01*
X10560Y307987D01*
Y307446D01*
X9620Y307056D01*
X8582Y306260D01*
X7786Y305222D01*
X7285Y304014D01*
X7115Y302716D01*
X7285Y301419D01*
X7786Y300211D01*
X8582Y299173D01*
X9620Y298377D01*
X10560Y297987D01*
Y297446D01*
X9620Y297057D01*
X8582Y296260D01*
X7786Y295222D01*
X7285Y294014D01*
X7115Y292717D01*
X7285Y291420D01*
X7786Y290211D01*
X8582Y289173D01*
X9620Y288377D01*
X10560Y287987D01*
Y287446D01*
X9620Y287056D01*
X8582Y286260D01*
X7786Y285222D01*
X7285Y284014D01*
X7115Y282716D01*
X7283Y281434D01*
X3142Y277291D01*
X2596Y276475D01*
X2468Y275834D01*
X1969Y275883D01*
Y368110D01*
X344488D01*
Y1969D01*
D02*
G37*
G36*
X56538Y266189D02*
Y254921D01*
X56730Y253958D01*
X57275Y253142D01*
X69147Y241270D01*
X68939Y240771D01*
X65797D01*
X65116Y240681D01*
X64482Y240418D01*
X63937Y240000D01*
X63519Y239455D01*
X63256Y238821D01*
X63166Y238140D01*
Y232333D01*
X63256Y231652D01*
X63519Y231017D01*
X63937Y230472D01*
X64482Y230054D01*
X65116Y229792D01*
X65797Y229702D01*
X69333D01*
Y227919D01*
X68834Y227749D01*
X68594Y228062D01*
X67973Y228538D01*
X67251Y228837D01*
X66976Y228873D01*
Y225945D01*
X65976D01*
Y228873D01*
X65701Y228837D01*
X64979Y228538D01*
X64893Y228472D01*
X64445Y228693D01*
Y228913D01*
X61976D01*
Y225945D01*
X60976D01*
Y228913D01*
X58508D01*
Y228913D01*
X58074Y229074D01*
Y229702D01*
X58218D01*
X58899Y229792D01*
X59534Y230054D01*
X60079Y230472D01*
X60497Y231017D01*
X60760Y231652D01*
X60849Y232333D01*
Y238140D01*
X60760Y238821D01*
X60497Y239455D01*
X60079Y240000D01*
X59534Y240418D01*
X58899Y240681D01*
X58218Y240771D01*
X54380D01*
X53699Y240681D01*
X53065Y240418D01*
X52520Y240000D01*
X52102Y239455D01*
X51896Y238958D01*
X51441Y238911D01*
X51367Y238928D01*
X51147Y239458D01*
X50431Y240392D01*
X49761Y240906D01*
Y245669D01*
X49569Y246633D01*
X49024Y247449D01*
X43080Y253393D01*
X42263Y253939D01*
X41300Y254130D01*
X37818D01*
Y255856D01*
X37803Y255965D01*
X38133Y256341D01*
X45027D01*
X45990Y256533D01*
X46807Y257079D01*
X55976Y266248D01*
X56038Y266341D01*
X56538Y266189D01*
D02*
G37*
G36*
X279058Y130769D02*
Y98101D01*
X278795Y97992D01*
X277644Y97108D01*
X276760Y95957D01*
X276321Y94897D01*
X275780D01*
X275543Y95468D01*
X274815Y96417D01*
X273866Y97146D01*
X272761Y97603D01*
X272075Y97694D01*
Y93177D01*
X271075D01*
Y97694D01*
X270389Y97603D01*
X269284Y97146D01*
X268335Y96417D01*
X267606Y95468D01*
X267370Y94897D01*
X266828D01*
X266389Y95957D01*
X265506Y97108D01*
X264354Y97992D01*
X263014Y98547D01*
X261575Y98737D01*
X260136Y98547D01*
X259873Y98438D01*
X259165Y99146D01*
X259228Y99790D01*
X259605Y100041D01*
X260105Y100790D01*
X260281Y101673D01*
Y103445D01*
X260105Y104328D01*
X259605Y105077D01*
X258856Y105577D01*
X257972Y105753D01*
X254626D01*
X253743Y105577D01*
X252994Y105077D01*
X252494Y104328D01*
X252318Y103445D01*
Y101673D01*
X252494Y100790D01*
X252994Y100041D01*
X253743Y99541D01*
X253782Y99533D01*
Y98453D01*
X253974Y97490D01*
X254520Y96673D01*
X256314Y94879D01*
X256205Y94616D01*
X256083Y93688D01*
X255555Y93509D01*
X243374Y105689D01*
X242558Y106235D01*
X241762Y106393D01*
X241557Y106783D01*
X241541Y106926D01*
X241599Y107002D01*
X241862Y107636D01*
X241952Y108317D01*
Y114124D01*
X241862Y114805D01*
X241599Y115439D01*
X241181Y115984D01*
X241176Y115988D01*
X241111Y116484D01*
X241524Y117023D01*
X241975Y118110D01*
X242128Y119277D01*
X241975Y120443D01*
X241524Y121530D01*
X240808Y122464D01*
X239875Y123180D01*
X238788Y123630D01*
X237621Y123784D01*
X236455Y123630D01*
X235368Y123180D01*
X234434Y122464D01*
X233718Y121530D01*
X233268Y120443D01*
X233114Y119277D01*
X233268Y118110D01*
X233718Y117023D01*
X233885Y116805D01*
X233787Y116111D01*
X233622Y115984D01*
X233204Y115439D01*
X232941Y114805D01*
X232852Y114124D01*
Y108317D01*
X232941Y107636D01*
X233204Y107002D01*
X233262Y106926D01*
X233015Y106426D01*
X219968D01*
X216100Y110294D01*
Y118939D01*
X215908Y119902D01*
X215362Y120718D01*
X210348Y125732D01*
X209532Y126278D01*
X208569Y126470D01*
X206376D01*
X206344Y126711D01*
X206086Y127334D01*
X205899Y127578D01*
X205717Y127953D01*
X205899Y128328D01*
X206086Y128572D01*
X206344Y129194D01*
X206432Y129862D01*
Y131043D01*
X206344Y131711D01*
X206086Y132334D01*
X205899Y132578D01*
X205717Y132953D01*
X205899Y133328D01*
X206086Y133572D01*
X206344Y134194D01*
X206432Y134862D01*
Y136043D01*
X206344Y136711D01*
X206086Y137334D01*
X205899Y137578D01*
X205717Y137953D01*
X205899Y138328D01*
X206086Y138572D01*
X206344Y139194D01*
X206432Y139862D01*
Y141043D01*
X206344Y141711D01*
X206086Y142334D01*
X205899Y142578D01*
X205717Y142953D01*
X205899Y143328D01*
X206086Y143572D01*
X206344Y144194D01*
X206432Y144862D01*
Y146043D01*
X206344Y146711D01*
X206086Y147334D01*
X205676Y147868D01*
X205142Y148279D01*
X204519Y148537D01*
X203851Y148624D01*
X202305D01*
X201804Y148832D01*
X200898Y148951D01*
X195911D01*
X195383Y149356D01*
X194296Y149806D01*
X193130Y149960D01*
X191963Y149806D01*
X190876Y149356D01*
X189943Y148640D01*
X189227Y147706D01*
X188776Y146619D01*
X188623Y145453D01*
X188776Y144286D01*
X189115Y143470D01*
X188803Y142970D01*
X176597D01*
Y143652D01*
X176508Y144332D01*
X176245Y144967D01*
X175827Y145512D01*
X175282Y145930D01*
X174647Y146193D01*
X173967Y146282D01*
X170128D01*
X169447Y146193D01*
X168813Y145930D01*
X168268Y145512D01*
X167850Y144967D01*
X167587Y144332D01*
X167497Y143652D01*
Y137845D01*
X167587Y137164D01*
X167651Y137010D01*
X167227Y136726D01*
X165180Y138773D01*
Y143652D01*
X165090Y144332D01*
X164828Y144967D01*
X164409Y145512D01*
X163865Y145930D01*
X163230Y146193D01*
X162549Y146282D01*
X158711D01*
X158030Y146193D01*
X157395Y145930D01*
X156850Y145512D01*
X156432Y144967D01*
X156169Y144332D01*
X156080Y143652D01*
Y143265D01*
X122796D01*
X122282Y143935D01*
X121354Y144647D01*
X121271Y144714D01*
X121215Y145215D01*
X136869Y160869D01*
X222677D01*
X223191Y160199D01*
X224124Y159483D01*
X225211Y159032D01*
X226378Y158879D01*
X227544Y159032D01*
X228631Y159483D01*
X229565Y160199D01*
X230281Y161132D01*
X230731Y162219D01*
X230885Y163386D01*
X230756Y164369D01*
X231082Y164869D01*
X244957D01*
X279058Y130769D01*
D02*
G37*
G36*
X37304Y156091D02*
X37379Y155526D01*
X37829Y154439D01*
X38545Y153506D01*
X39479Y152790D01*
X40566Y152339D01*
X40571Y152339D01*
X40863Y151932D01*
X40813Y151684D01*
X40929Y151101D01*
X40039Y150211D01*
X39817Y150167D01*
X39323Y149837D01*
X38633Y149147D01*
X41309Y146470D01*
X43986Y143794D01*
X44676Y144484D01*
X44843Y144734D01*
X45435Y144833D01*
X45460Y144825D01*
X47252Y143033D01*
X47237Y142860D01*
X47762Y142335D01*
X47785Y142220D01*
X48318Y141422D01*
X50301Y139439D01*
X49951Y139088D01*
X47967Y141072D01*
X47170Y141605D01*
X47055Y141628D01*
X46757Y141926D01*
X46616Y141715D01*
X46229Y141792D01*
X45288Y141604D01*
X44490Y141071D01*
X43864Y140445D01*
X43331Y139647D01*
X43143Y138707D01*
X43220Y138320D01*
X43009Y138179D01*
X43308Y137880D01*
X43330Y137766D01*
X43863Y136968D01*
X45847Y134984D01*
X45496Y134634D01*
X43513Y136617D01*
X42715Y137150D01*
X42601Y137173D01*
X42302Y137471D01*
X42162Y137260D01*
X41774Y137337D01*
X41609Y137305D01*
X41255Y137656D01*
X31511Y147400D01*
X30456Y146344D01*
X29957Y146377D01*
X29565Y146888D01*
X28778Y147491D01*
X28655Y148076D01*
X36831Y156251D01*
X37304Y156091D01*
D02*
G37*
G36*
X196005Y91795D02*
X196034Y91729D01*
X190500Y86195D01*
X171194D01*
X170842Y86695D01*
X170914Y87057D01*
Y88476D01*
X166339D01*
Y89476D01*
X170914D01*
Y90896D01*
X170800Y91471D01*
X170874Y91699D01*
X171020Y91971D01*
X194882D01*
X195739Y92142D01*
X196005Y91795D01*
D02*
G37*
%LPC*%
G36*
X12626Y266685D02*
Y263216D01*
X16095D01*
X16023Y263761D01*
X15620Y264734D01*
X14979Y265569D01*
X14143Y266211D01*
X13170Y266614D01*
X12626Y266685D01*
D02*
G37*
G36*
X16095Y262216D02*
X12626D01*
Y258748D01*
X13170Y258820D01*
X14143Y259223D01*
X14979Y259864D01*
X15620Y260699D01*
X16023Y261672D01*
X16095Y262216D01*
D02*
G37*
G36*
X331024Y362638D02*
X329403Y362479D01*
X327844Y362006D01*
X326408Y361238D01*
X325149Y360205D01*
X324116Y358946D01*
X323348Y357510D01*
X322875Y355951D01*
X322716Y354331D01*
X322875Y352710D01*
X323348Y351151D01*
X324116Y349715D01*
X325149Y348456D01*
X326408Y347423D01*
X327844Y346655D01*
X329403Y346183D01*
X331024Y346023D01*
X332644Y346183D01*
X334203Y346655D01*
X335639Y347423D01*
X336898Y348456D01*
X337931Y349715D01*
X338699Y351151D01*
X339172Y352710D01*
X339331Y354331D01*
X339172Y355951D01*
X338699Y357510D01*
X337931Y358946D01*
X336898Y360205D01*
X335639Y361238D01*
X334203Y362006D01*
X332644Y362479D01*
X331024Y362638D01*
D02*
G37*
G36*
X31496D02*
X29875Y362479D01*
X28317Y362006D01*
X26880Y361238D01*
X25622Y360205D01*
X24588Y358946D01*
X23821Y357510D01*
X23348Y355951D01*
X23188Y354331D01*
X23348Y352710D01*
X23821Y351151D01*
X24588Y349715D01*
X25622Y348456D01*
X26880Y347423D01*
X28317Y346655D01*
X29875Y346183D01*
X31496Y346023D01*
X33117Y346183D01*
X34675Y346655D01*
X36112Y347423D01*
X37370Y348456D01*
X38404Y349715D01*
X39171Y351151D01*
X39644Y352710D01*
X39804Y354331D01*
X39644Y355951D01*
X39171Y357510D01*
X38404Y358946D01*
X37370Y360205D01*
X36112Y361238D01*
X34675Y362006D01*
X33117Y362479D01*
X31496Y362638D01*
D02*
G37*
G36*
X88527Y344909D02*
Y340495D01*
X92940D01*
X92836Y341284D01*
X92339Y342485D01*
X91548Y343516D01*
X90516Y344308D01*
X89315Y344805D01*
X88527Y344909D01*
D02*
G37*
G36*
X87527Y344909D02*
X86738Y344805D01*
X85537Y344308D01*
X84505Y343516D01*
X83714Y342485D01*
X83217Y341284D01*
X83113Y340495D01*
X87527D01*
Y344909D01*
D02*
G37*
G36*
Y339495D02*
X83113D01*
X83217Y338706D01*
X83714Y337505D01*
X84505Y336474D01*
X85537Y335683D01*
X86738Y335185D01*
X87527Y335081D01*
Y339495D01*
D02*
G37*
G36*
X92940D02*
X88527D01*
Y335081D01*
X89315Y335185D01*
X90516Y335683D01*
X91548Y336474D01*
X92339Y337505D01*
X92836Y338706D01*
X92940Y339495D01*
D02*
G37*
G36*
X16126Y336717D02*
X12626D01*
Y333217D01*
X16126D01*
Y336717D01*
D02*
G37*
G36*
X11626D02*
X8126D01*
Y333217D01*
X11626D01*
Y336717D01*
D02*
G37*
G36*
X283465Y347875D02*
X281844Y347715D01*
X280285Y347242D01*
X278849Y346475D01*
X277590Y345441D01*
X276557Y344182D01*
X275789Y342746D01*
X275317Y341188D01*
X275157Y339567D01*
X275317Y337946D01*
X275789Y336388D01*
X276557Y334951D01*
X277590Y333693D01*
X278849Y332659D01*
X280285Y331892D01*
X281844Y331419D01*
X283465Y331259D01*
X285085Y331419D01*
X286644Y331892D01*
X288080Y332659D01*
X289339Y333693D01*
X290372Y334951D01*
X291140Y336388D01*
X291613Y337946D01*
X291772Y339567D01*
X291613Y341188D01*
X291140Y342746D01*
X290372Y344182D01*
X289339Y345441D01*
X288080Y346475D01*
X286644Y347242D01*
X285085Y347715D01*
X283465Y347875D01*
D02*
G37*
G36*
X11626Y332217D02*
X8126D01*
Y328716D01*
X11626D01*
Y332217D01*
D02*
G37*
G36*
X94004Y331685D02*
Y327272D01*
X98418D01*
X98314Y328061D01*
X97816Y329261D01*
X97025Y330293D01*
X95994Y331084D01*
X94793Y331582D01*
X94004Y331685D01*
D02*
G37*
G36*
X93004D02*
X92215Y331582D01*
X91014Y331084D01*
X89983Y330293D01*
X89192Y329261D01*
X88694Y328061D01*
X88590Y327272D01*
X93004D01*
Y331685D01*
D02*
G37*
G36*
X98418Y326272D02*
X94004D01*
Y321858D01*
X94793Y321962D01*
X95994Y322459D01*
X97025Y323251D01*
X97816Y324282D01*
X98314Y325483D01*
X98418Y326272D01*
D02*
G37*
G36*
X93004D02*
X88590D01*
X88694Y325483D01*
X89192Y324282D01*
X89983Y323251D01*
X91014Y322459D01*
X92215Y321962D01*
X93004Y321858D01*
Y326272D01*
D02*
G37*
G36*
X56102Y332706D02*
X54945Y332592D01*
X53831Y332254D01*
X52806Y331706D01*
X51906Y330968D01*
X51168Y330068D01*
X50620Y329043D01*
X50282Y327929D01*
X50168Y326772D01*
X50282Y325614D01*
X50620Y324501D01*
X51168Y323475D01*
X51906Y322576D01*
X52806Y321838D01*
X53831Y321289D01*
X54945Y320952D01*
X56102Y320838D01*
X57260Y320952D01*
X58373Y321289D01*
X59399Y321838D01*
X60298Y322576D01*
X61036Y323475D01*
X61585Y324501D01*
X61922Y325614D01*
X62036Y326772D01*
X61922Y327929D01*
X61585Y329043D01*
X61036Y330068D01*
X60298Y330968D01*
X59399Y331706D01*
X58373Y332254D01*
X57260Y332592D01*
X56102Y332706D01*
D02*
G37*
G36*
X88527Y318462D02*
Y314048D01*
X92940D01*
X92836Y314837D01*
X92339Y316038D01*
X91548Y317069D01*
X90516Y317861D01*
X89315Y318358D01*
X88527Y318462D01*
D02*
G37*
G36*
X87527Y318462D02*
X86738Y318358D01*
X85537Y317861D01*
X84505Y317069D01*
X83714Y316038D01*
X83217Y314837D01*
X83113Y314048D01*
X87527D01*
Y318462D01*
D02*
G37*
G36*
Y313048D02*
X83113D01*
X83217Y312259D01*
X83714Y311058D01*
X84505Y310027D01*
X85537Y309236D01*
X86738Y308738D01*
X87527Y308634D01*
Y313048D01*
D02*
G37*
G36*
X92940D02*
X88527D01*
Y308634D01*
X89315Y308738D01*
X90516Y309236D01*
X91548Y310027D01*
X92339Y311058D01*
X92836Y312259D01*
X92940Y313048D01*
D02*
G37*
G36*
X237047Y324457D02*
X235608Y324268D01*
X234268Y323712D01*
X233116Y322829D01*
X232233Y321677D01*
X231677Y320337D01*
X231488Y318898D01*
X231677Y317459D01*
X231786Y317196D01*
X133653Y219063D01*
X133108Y218247D01*
X132916Y217284D01*
Y196615D01*
X132246Y196100D01*
X131530Y195167D01*
X131080Y194080D01*
X130926Y192913D01*
X131080Y191747D01*
X131530Y190660D01*
X132246Y189726D01*
X133179Y189010D01*
X134267Y188560D01*
X135433Y188406D01*
X136600Y188560D01*
X137687Y189010D01*
X138620Y189726D01*
X139336Y190660D01*
X139787Y191747D01*
X139940Y192913D01*
X139787Y194080D01*
X139336Y195167D01*
X138620Y196100D01*
X137950Y196615D01*
Y216241D01*
X231071Y309363D01*
X231520Y309141D01*
X231488Y308898D01*
X231677Y307459D01*
X232233Y306118D01*
X233116Y304967D01*
X234123Y304194D01*
X234164Y304059D01*
Y303737D01*
X234123Y303602D01*
X233116Y302829D01*
X232233Y301677D01*
X231677Y300337D01*
X231488Y298898D01*
X231677Y297459D01*
X232233Y296118D01*
X233116Y294967D01*
X234268Y294083D01*
X235327Y293644D01*
Y293103D01*
X234756Y292866D01*
X233807Y292138D01*
X233079Y291189D01*
X232621Y290084D01*
X232531Y289398D01*
X237047D01*
X241564D01*
X241474Y290084D01*
X241016Y291189D01*
X240288Y292138D01*
X239338Y292866D01*
X238767Y293103D01*
Y293644D01*
X239827Y294083D01*
X240978Y294967D01*
X241862Y296118D01*
X242417Y297459D01*
X242607Y298898D01*
X242417Y300337D01*
X241862Y301677D01*
X240978Y302829D01*
X239971Y303602D01*
X239931Y303737D01*
Y304059D01*
X239971Y304194D01*
X240978Y304967D01*
X241862Y306118D01*
X242417Y307459D01*
X242607Y308898D01*
X242417Y310336D01*
X241862Y311677D01*
X240978Y312829D01*
X239971Y313602D01*
X239931Y313737D01*
Y314059D01*
X239971Y314194D01*
X240978Y314967D01*
X241862Y316118D01*
X242417Y317459D01*
X242607Y318898D01*
X242417Y320337D01*
X241862Y321677D01*
X240978Y322829D01*
X239827Y323712D01*
X238486Y324268D01*
X237047Y324457D01*
D02*
G37*
G36*
X241564Y288398D02*
X237547D01*
Y284381D01*
X238233Y284471D01*
X239338Y284929D01*
X240288Y285657D01*
X241016Y286606D01*
X241474Y287712D01*
X241564Y288398D01*
D02*
G37*
G36*
X236547D02*
X232531D01*
X232621Y287712D01*
X233079Y286606D01*
X233807Y285657D01*
X234756Y284929D01*
X235861Y284471D01*
X236547Y284381D01*
Y288398D01*
D02*
G37*
G36*
X122047Y334457D02*
X120608Y334268D01*
X119268Y333712D01*
X118116Y332829D01*
X117233Y331677D01*
X116677Y330336D01*
X116488Y328898D01*
X116677Y327459D01*
X117233Y326118D01*
X118116Y324967D01*
X119123Y324194D01*
X119164Y324059D01*
Y323737D01*
X119123Y323602D01*
X118116Y322829D01*
X117233Y321677D01*
X116677Y320337D01*
X116488Y318898D01*
X116677Y317459D01*
X117233Y316118D01*
X118116Y314967D01*
X119123Y314194D01*
X119164Y314059D01*
Y313737D01*
X119123Y313602D01*
X118116Y312829D01*
X117233Y311677D01*
X116677Y310336D01*
X116488Y308898D01*
X116677Y307459D01*
X117233Y306118D01*
X118116Y304967D01*
X119123Y304194D01*
X119164Y304059D01*
Y303737D01*
X119123Y303602D01*
X118116Y302829D01*
X117233Y301677D01*
X116677Y300337D01*
X116488Y298898D01*
X116677Y297459D01*
X117233Y296118D01*
X118116Y294967D01*
X119123Y294194D01*
X119164Y294059D01*
Y293737D01*
X119123Y293602D01*
X118116Y292829D01*
X117233Y291677D01*
X116677Y290336D01*
X116488Y288898D01*
X116677Y287459D01*
X117233Y286118D01*
X118116Y284967D01*
X119268Y284083D01*
X120608Y283528D01*
X122047Y283338D01*
X123486Y283528D01*
X124827Y284083D01*
X125978Y284967D01*
X126862Y286118D01*
X127417Y287459D01*
X127607Y288898D01*
X127417Y290336D01*
X126862Y291677D01*
X125978Y292829D01*
X124971Y293602D01*
X124931Y293737D01*
Y294059D01*
X124971Y294194D01*
X125978Y294967D01*
X126862Y296118D01*
X127417Y297459D01*
X127607Y298898D01*
X127417Y300337D01*
X126862Y301677D01*
X125978Y302829D01*
X124971Y303602D01*
X124931Y303737D01*
Y304059D01*
X124971Y304194D01*
X125978Y304967D01*
X126862Y306118D01*
X127417Y307459D01*
X127607Y308898D01*
X127417Y310336D01*
X126862Y311677D01*
X125978Y312829D01*
X124971Y313602D01*
X124931Y313737D01*
Y314059D01*
X124971Y314194D01*
X125978Y314967D01*
X126862Y316118D01*
X127417Y317459D01*
X127607Y318898D01*
X127417Y320337D01*
X126862Y321677D01*
X125978Y322829D01*
X124971Y323602D01*
X124931Y323737D01*
Y324059D01*
X124971Y324194D01*
X125978Y324967D01*
X126862Y326118D01*
X127417Y327459D01*
X127607Y328898D01*
X127417Y330336D01*
X126862Y331677D01*
X125978Y332829D01*
X124827Y333712D01*
X123486Y334268D01*
X122047Y334457D01*
D02*
G37*
G36*
X95185Y280494D02*
Y277272D01*
X98408D01*
X98344Y277752D01*
X97966Y278666D01*
X97364Y279450D01*
X96579Y280052D01*
X95666Y280431D01*
X95185Y280494D01*
D02*
G37*
G36*
X82980D02*
Y277272D01*
X86203D01*
X86140Y277752D01*
X85761Y278666D01*
X85159Y279450D01*
X84374Y280052D01*
X83461Y280431D01*
X82980Y280494D01*
D02*
G37*
G36*
X94185Y280494D02*
X93704Y280431D01*
X92791Y280052D01*
X92006Y279450D01*
X91404Y278666D01*
X91026Y277752D01*
X90962Y277272D01*
X94185D01*
Y280494D01*
D02*
G37*
G36*
X81980D02*
X81500Y280431D01*
X80586Y280052D01*
X79802Y279450D01*
X79199Y278666D01*
X78821Y277752D01*
X78758Y277272D01*
X81980D01*
Y280494D01*
D02*
G37*
G36*
X98408Y276272D02*
X95185D01*
Y273049D01*
X95666Y273112D01*
X96579Y273491D01*
X97364Y274093D01*
X97966Y274878D01*
X98344Y275791D01*
X98408Y276272D01*
D02*
G37*
G36*
X86203D02*
X82980D01*
Y273049D01*
X83461Y273112D01*
X84374Y273491D01*
X85159Y274093D01*
X85761Y274878D01*
X86140Y275791D01*
X86203Y276272D01*
D02*
G37*
G36*
X94185D02*
X90963D01*
X91026Y275791D01*
X91404Y274878D01*
X92006Y274093D01*
X92791Y273491D01*
X93704Y273112D01*
X94185Y273049D01*
Y276272D01*
D02*
G37*
G36*
X81980D02*
X78758D01*
X78821Y275791D01*
X79199Y274878D01*
X79802Y274093D01*
X80586Y273491D01*
X81500Y273112D01*
X81980Y273049D01*
Y276272D01*
D02*
G37*
G36*
X298965Y255501D02*
Y251484D01*
X302981D01*
X302891Y252170D01*
X302433Y253275D01*
X301705Y254225D01*
X300756Y254953D01*
X299651Y255411D01*
X298965Y255501D01*
D02*
G37*
G36*
X332835Y287728D02*
X331538Y287557D01*
X330329Y287056D01*
X329291Y286260D01*
X328495Y285222D01*
X327994Y284014D01*
X327823Y282716D01*
X327994Y281419D01*
X328495Y280211D01*
X329291Y279173D01*
X330329Y278377D01*
X331228Y278004D01*
Y277463D01*
X330246Y277057D01*
X329208Y276260D01*
X328412Y275222D01*
X327911Y274014D01*
X327741Y272716D01*
X327911Y271420D01*
X328412Y270211D01*
X329208Y269173D01*
X330246Y268377D01*
X331228Y267970D01*
Y267429D01*
X330329Y267056D01*
X329291Y266260D01*
X328495Y265222D01*
X327994Y264014D01*
X327823Y262717D01*
X327994Y261420D01*
X328495Y260211D01*
X329291Y259173D01*
X330329Y258377D01*
X331228Y258004D01*
Y257463D01*
X330246Y257056D01*
X329208Y256260D01*
X328412Y255222D01*
X327911Y254014D01*
X327741Y252716D01*
X327911Y251419D01*
X328412Y250211D01*
X329208Y249173D01*
X330246Y248377D01*
X331455Y247876D01*
X332752Y247705D01*
X334049Y247876D01*
X335258Y248377D01*
X336296Y249173D01*
X337092Y250211D01*
X337593Y251419D01*
X337763Y252716D01*
X337593Y254014D01*
X337092Y255222D01*
X336296Y256260D01*
X335258Y257056D01*
X334359Y257429D01*
Y257970D01*
X335340Y258377D01*
X336378Y259173D01*
X337175Y260211D01*
X337675Y261420D01*
X337846Y262717D01*
X337675Y264014D01*
X337175Y265222D01*
X336378Y266260D01*
X335340Y267056D01*
X334359Y267463D01*
Y268004D01*
X335258Y268377D01*
X336296Y269173D01*
X337092Y270211D01*
X337593Y271420D01*
X337763Y272716D01*
X337593Y274014D01*
X337092Y275222D01*
X336296Y276260D01*
X335258Y277057D01*
X334359Y277429D01*
Y277970D01*
X335340Y278377D01*
X336378Y279173D01*
X337175Y280211D01*
X337675Y281419D01*
X337846Y282716D01*
X337675Y284014D01*
X337175Y285222D01*
X336378Y286260D01*
X335340Y287056D01*
X334132Y287557D01*
X332835Y287728D01*
D02*
G37*
G36*
X302981Y250484D02*
X298965D01*
Y246468D01*
X299651Y246558D01*
X300756Y247016D01*
X301705Y247744D01*
X302433Y248693D01*
X302891Y249798D01*
X302981Y250484D01*
D02*
G37*
G36*
X301575Y238236D02*
X300136Y238047D01*
X298795Y237492D01*
X297644Y236608D01*
X296871Y235601D01*
X296736Y235560D01*
X296414D01*
X296279Y235601D01*
X295506Y236608D01*
X294355Y237492D01*
X293014Y238047D01*
X291575Y238236D01*
X290136Y238047D01*
X288795Y237492D01*
X287644Y236608D01*
X286871Y235601D01*
X286736Y235560D01*
X286414D01*
X286279Y235601D01*
X285506Y236608D01*
X284354Y237492D01*
X283014Y238047D01*
X281575Y238236D01*
X280136Y238047D01*
X278795Y237492D01*
X277644Y236608D01*
X276871Y235601D01*
X276736Y235560D01*
X276414D01*
X276279Y235601D01*
X275506Y236608D01*
X274355Y237492D01*
X273014Y238047D01*
X271575Y238236D01*
X270136Y238047D01*
X268795Y237492D01*
X267644Y236608D01*
X266871Y235601D01*
X266736Y235560D01*
X266414D01*
X266279Y235601D01*
X265506Y236608D01*
X264354Y237492D01*
X263014Y238047D01*
X261575Y238236D01*
X260136Y238047D01*
X258795Y237492D01*
X257644Y236608D01*
X256871Y235601D01*
X256736Y235560D01*
X256414D01*
X256279Y235601D01*
X255506Y236608D01*
X254355Y237492D01*
X253014Y238047D01*
X251575Y238236D01*
X250136Y238047D01*
X248795Y237492D01*
X247644Y236608D01*
X246760Y235457D01*
X246205Y234116D01*
X246015Y232677D01*
X246205Y231238D01*
X246760Y229897D01*
X247644Y228746D01*
X248795Y227863D01*
X250136Y227307D01*
X251575Y227118D01*
X253014Y227307D01*
X254355Y227863D01*
X255506Y228746D01*
X256279Y229753D01*
X256414Y229794D01*
X256736D01*
X256871Y229753D01*
X257644Y228746D01*
X258795Y227863D01*
X260136Y227307D01*
X261575Y227118D01*
X263014Y227307D01*
X264354Y227863D01*
X265506Y228746D01*
X266279Y229753D01*
X266414Y229794D01*
X266736D01*
X266871Y229753D01*
X267644Y228746D01*
X268795Y227863D01*
X270136Y227307D01*
X271575Y227118D01*
X273014Y227307D01*
X274355Y227863D01*
X275506Y228746D01*
X276279Y229753D01*
X276414Y229794D01*
X276736D01*
X276871Y229753D01*
X277644Y228746D01*
X278795Y227863D01*
X280136Y227307D01*
X281575Y227118D01*
X283014Y227307D01*
X284354Y227863D01*
X285506Y228746D01*
X286279Y229753D01*
X286414Y229794D01*
X286736D01*
X286871Y229753D01*
X287644Y228746D01*
X288795Y227863D01*
X290136Y227307D01*
X291575Y227118D01*
X293014Y227307D01*
X294355Y227863D01*
X295506Y228746D01*
X296279Y229753D01*
X296414Y229794D01*
X296736D01*
X296871Y229753D01*
X297644Y228746D01*
X298795Y227863D01*
X300136Y227307D01*
X301575Y227118D01*
X303014Y227307D01*
X304355Y227863D01*
X305506Y228746D01*
X306389Y229897D01*
X306945Y231238D01*
X307134Y232677D01*
X306945Y234116D01*
X306389Y235457D01*
X305506Y236608D01*
X304355Y237492D01*
X303014Y238047D01*
X301575Y238236D01*
D02*
G37*
G36*
X331024Y189410D02*
X329403Y189250D01*
X327844Y188778D01*
X326408Y188010D01*
X325149Y186977D01*
X324116Y185718D01*
X323348Y184282D01*
X322875Y182723D01*
X322716Y181102D01*
X322875Y179482D01*
X323348Y177923D01*
X324116Y176487D01*
X325149Y175228D01*
X326408Y174195D01*
X327844Y173427D01*
X329403Y172954D01*
X331024Y172795D01*
X332644Y172954D01*
X334203Y173427D01*
X335639Y174195D01*
X336898Y175228D01*
X337931Y176487D01*
X338699Y177923D01*
X339172Y179482D01*
X339331Y181102D01*
X339172Y182723D01*
X338699Y184282D01*
X337931Y185718D01*
X336898Y186977D01*
X335639Y188010D01*
X334203Y188778D01*
X332644Y189250D01*
X331024Y189410D01*
D02*
G37*
G36*
X292961Y141764D02*
Y138295D01*
X296429D01*
X296358Y138839D01*
X295955Y139813D01*
X295314Y140648D01*
X294478Y141289D01*
X293505Y141692D01*
X292961Y141764D01*
D02*
G37*
G36*
X291961Y141764D02*
X291416Y141692D01*
X290443Y141289D01*
X289608Y140648D01*
X288967Y139813D01*
X288564Y138839D01*
X288492Y138295D01*
X291961D01*
Y141764D01*
D02*
G37*
G36*
X296429Y137295D02*
X292961D01*
Y133827D01*
X293505Y133898D01*
X294478Y134301D01*
X295314Y134942D01*
X295955Y135778D01*
X296358Y136751D01*
X296429Y137295D01*
D02*
G37*
G36*
X291961D02*
X288492D01*
X288564Y136751D01*
X288967Y135778D01*
X289608Y134942D01*
X290443Y134301D01*
X291416Y133898D01*
X291961Y133827D01*
Y137295D01*
D02*
G37*
G36*
X73359Y104148D02*
X72669Y103458D01*
X72339Y102964D01*
X72223Y102382D01*
X72339Y101800D01*
X72669Y101306D01*
X73916Y100059D01*
X75682Y101825D01*
X73359Y104148D01*
D02*
G37*
G36*
X76389Y101118D02*
X74623Y99352D01*
X75870Y98105D01*
X76364Y97775D01*
X76946Y97659D01*
X77528Y97775D01*
X78022Y98105D01*
X78712Y98795D01*
X76389Y101118D01*
D02*
G37*
G36*
X76877Y82528D02*
X74473D01*
Y79437D01*
X78549D01*
Y80856D01*
X78421Y81496D01*
X78059Y82038D01*
X77517Y82401D01*
X76877Y82528D01*
D02*
G37*
G36*
X78549Y78437D02*
X74473D01*
Y75346D01*
X76877D01*
X77517Y75473D01*
X78059Y75836D01*
X78421Y76378D01*
X78549Y77018D01*
Y78437D01*
D02*
G37*
G36*
X184941Y67364D02*
X184555D01*
Y65461D01*
X186262D01*
Y66043D01*
X186161Y66549D01*
X185875Y66977D01*
X185446Y67263D01*
X184941Y67364D01*
D02*
G37*
G36*
X183555D02*
X183169D01*
X182664Y67263D01*
X182236Y66977D01*
X181949Y66549D01*
X181849Y66043D01*
Y65461D01*
X183555D01*
Y67364D01*
D02*
G37*
G36*
X186262Y64461D02*
X184555D01*
Y62557D01*
X184941D01*
X185446Y62658D01*
X185875Y62944D01*
X186161Y63373D01*
X186262Y63878D01*
Y64461D01*
D02*
G37*
G36*
X183555D02*
X181849D01*
Y63878D01*
X181949Y63373D01*
X182236Y62944D01*
X182664Y62658D01*
X183169Y62557D01*
X183555D01*
Y64461D01*
D02*
G37*
G36*
X175345Y58684D02*
X171506D01*
X170825Y58594D01*
X170191Y58331D01*
X169646Y57913D01*
X169228Y57368D01*
X168965Y56734D01*
X168875Y56053D01*
Y55667D01*
X167282D01*
X167282Y55668D01*
X166533Y56168D01*
X165650Y56344D01*
X162303D01*
X161420Y56168D01*
X160671Y55668D01*
X160171Y54919D01*
X159995Y54035D01*
Y52264D01*
X160171Y51380D01*
X160671Y50632D01*
X161420Y50131D01*
X162303Y49956D01*
X165650D01*
X166533Y50131D01*
X167282Y50632D01*
X167282Y50633D01*
X168875D01*
Y50246D01*
X168965Y49565D01*
X169228Y48931D01*
X169646Y48386D01*
X170191Y47968D01*
X170825Y47705D01*
X171506Y47615D01*
X172405D01*
Y45120D01*
X171982Y44486D01*
X171806Y43602D01*
Y40256D01*
X171982Y39373D01*
X172482Y38624D01*
X173231Y38124D01*
X174114Y37948D01*
X175886D01*
X176769Y38124D01*
X177518Y38624D01*
X178018Y39373D01*
X178194Y40256D01*
Y43602D01*
X178018Y44486D01*
X177518Y45234D01*
X177439Y45287D01*
Y48691D01*
X177623Y48931D01*
X177886Y49565D01*
X177975Y50246D01*
Y56053D01*
X177886Y56734D01*
X177623Y57368D01*
X177205Y57913D01*
X176660Y58331D01*
X176025Y58594D01*
X175345Y58684D01*
D02*
G37*
G36*
X14434Y55771D02*
Y52350D01*
X17855D01*
X17785Y52882D01*
X17387Y53844D01*
X16753Y54669D01*
X15927Y55303D01*
X14966Y55701D01*
X14434Y55771D01*
D02*
G37*
G36*
X13434D02*
X12902Y55701D01*
X11941Y55303D01*
X11115Y54669D01*
X10481Y53844D01*
X10083Y52882D01*
X10013Y52350D01*
X13434D01*
Y55771D01*
D02*
G37*
G36*
X17855Y51350D02*
X14434D01*
Y47929D01*
X14966Y47999D01*
X15927Y48398D01*
X16753Y49031D01*
X17387Y49857D01*
X17785Y50819D01*
X17855Y51350D01*
D02*
G37*
G36*
X13434D02*
X10013D01*
X10083Y50819D01*
X10481Y49857D01*
X11115Y49031D01*
X11941Y48398D01*
X12902Y47999D01*
X13434Y47929D01*
Y51350D01*
D02*
G37*
G36*
X187894Y44923D02*
X187508D01*
Y42429D01*
X189214D01*
Y43602D01*
X189114Y44108D01*
X188828Y44536D01*
X188399Y44822D01*
X187894Y44923D01*
D02*
G37*
G36*
X18855Y46772D02*
X9013D01*
Y36929D01*
X18855D01*
Y46772D01*
D02*
G37*
G36*
X186762Y58684D02*
X182923D01*
X182242Y58594D01*
X181608Y58331D01*
X181063Y57913D01*
X180645Y57368D01*
X180382Y56734D01*
X180292Y56053D01*
Y50246D01*
X180382Y49565D01*
X180554Y49150D01*
Y40551D01*
X180746Y39588D01*
X181291Y38772D01*
X182745Y37317D01*
X182554Y36855D01*
X182382D01*
X181499Y36680D01*
X180750Y36179D01*
X180250Y35430D01*
X180242Y35391D01*
X174286D01*
X174278Y35430D01*
X173778Y36179D01*
X173029Y36680D01*
X172146Y36855D01*
X170374D01*
X169491Y36680D01*
X168742Y36179D01*
X168242Y35430D01*
X168066Y34547D01*
Y31201D01*
X168242Y30318D01*
X168742Y29569D01*
X169491Y29068D01*
X170374Y28893D01*
X172146D01*
X173029Y29068D01*
X173778Y29569D01*
X174278Y30318D01*
X174286Y30357D01*
X177360D01*
X177503Y29857D01*
X177005Y29113D01*
X176814Y28150D01*
Y27109D01*
X176731Y27098D01*
X176096Y26835D01*
X175551Y26417D01*
X175133Y25872D01*
X174870Y25238D01*
X174781Y24557D01*
Y18750D01*
X174870Y18069D01*
X175133Y17435D01*
X175551Y16890D01*
X176096Y16472D01*
X176731Y16209D01*
X177411Y16119D01*
X181250D01*
X181931Y16209D01*
X182565Y16472D01*
X183110Y16890D01*
X183528Y17435D01*
X183791Y18069D01*
X183881Y18750D01*
Y24557D01*
X183791Y25238D01*
X183528Y25872D01*
X183110Y26417D01*
X182565Y26835D01*
X182366Y26918D01*
X182248Y27508D01*
X183633Y28893D01*
X184153D01*
X185037Y29068D01*
X185786Y29569D01*
X186286Y30318D01*
X186462Y31201D01*
Y32916D01*
X186898Y33102D01*
X187250Y32812D01*
Y32724D01*
X187369Y31819D01*
X187554Y31372D01*
Y31201D01*
X187730Y30318D01*
X188230Y29569D01*
X188979Y29068D01*
X189575Y28950D01*
X190875Y27650D01*
X190684Y27188D01*
X188829D01*
X188148Y27098D01*
X187513Y26835D01*
X186969Y26417D01*
X186550Y25872D01*
X186288Y25238D01*
X186198Y24557D01*
Y18750D01*
X186288Y18069D01*
X186550Y17435D01*
X186969Y16890D01*
X187513Y16472D01*
X188148Y16209D01*
X188829Y16119D01*
X192667D01*
X193348Y16209D01*
X193983Y16472D01*
X194528Y16890D01*
X194946Y17435D01*
X195208Y18069D01*
X195298Y18750D01*
Y19137D01*
X196434D01*
Y18750D01*
X196524Y18069D01*
X196787Y17435D01*
X197205Y16890D01*
X197750Y16472D01*
X198384Y16209D01*
X199065Y16119D01*
X202904D01*
X203584Y16209D01*
X204219Y16472D01*
X204764Y16890D01*
X205182Y17435D01*
X205445Y18069D01*
X205534Y18750D01*
Y24557D01*
X205445Y25238D01*
X205182Y25872D01*
X204764Y26417D01*
X204384Y26708D01*
Y28767D01*
X204873Y29498D01*
X205069Y30487D01*
Y36442D01*
X204873Y37431D01*
X204312Y38269D01*
X204286Y38287D01*
Y42842D01*
X205464Y44020D01*
X205509Y44029D01*
X206258Y44529D01*
X206758Y45278D01*
X206831Y45642D01*
X207119Y46339D01*
X207239Y47244D01*
X207119Y48149D01*
X206831Y48846D01*
X206758Y49210D01*
X206258Y49959D01*
X205509Y50459D01*
X204626Y50635D01*
X204558D01*
X203740Y50743D01*
X202923Y50635D01*
X202854D01*
X201971Y50459D01*
X201222Y49959D01*
X200722Y49210D01*
X200713Y49164D01*
X198314Y46765D01*
X197758Y46041D01*
X197408Y45197D01*
X197349Y44744D01*
X197289Y44291D01*
Y38287D01*
X197262Y38269D01*
X196702Y37431D01*
X196505Y36442D01*
Y32568D01*
X196044Y32376D01*
X193942Y34478D01*
Y34547D01*
X193766Y35430D01*
X193266Y36179D01*
X192517Y36680D01*
X191634Y36855D01*
X190326D01*
X188581Y38601D01*
X188671Y39217D01*
X188828Y39322D01*
X189114Y39750D01*
X189214Y40256D01*
Y41429D01*
X187008D01*
Y41929D01*
X186508D01*
Y44923D01*
X186122D01*
X186088Y44916D01*
X185588Y45327D01*
Y47615D01*
X186762D01*
X187443Y47705D01*
X188077Y47968D01*
X188622Y48386D01*
X189040Y48931D01*
X189303Y49565D01*
X189393Y50246D01*
Y50777D01*
X189449Y51060D01*
X189393Y51343D01*
Y56053D01*
X189303Y56734D01*
X189040Y57368D01*
X188622Y57913D01*
X188077Y58331D01*
X187443Y58594D01*
X186762Y58684D01*
D02*
G37*
G36*
X326772Y32520D02*
X324764Y32362D01*
X322806Y31892D01*
X320945Y31121D01*
X319228Y30069D01*
X317696Y28761D01*
X316388Y27229D01*
X315336Y25512D01*
X314565Y23651D01*
X314095Y21693D01*
X313937Y19685D01*
X314095Y17677D01*
X314565Y15719D01*
X315336Y13858D01*
X316388Y12141D01*
X317696Y10609D01*
X319228Y9301D01*
X320945Y8249D01*
X322806Y7478D01*
X324764Y7008D01*
X326772Y6850D01*
X328780Y7008D01*
X330738Y7478D01*
X332598Y8249D01*
X334316Y9301D01*
X335847Y10609D01*
X337155Y12141D01*
X338208Y13858D01*
X338978Y15719D01*
X339448Y17677D01*
X339606Y19685D01*
X339448Y21693D01*
X338978Y23651D01*
X338208Y25512D01*
X337155Y27229D01*
X335847Y28761D01*
X334316Y30069D01*
X332598Y31121D01*
X330738Y31892D01*
X328780Y32362D01*
X326772Y32520D01*
D02*
G37*
G36*
X19685D02*
X17677Y32362D01*
X15719Y31892D01*
X13858Y31121D01*
X12141Y30069D01*
X10609Y28761D01*
X9301Y27229D01*
X8249Y25512D01*
X7478Y23651D01*
X7008Y21693D01*
X6850Y19685D01*
X7008Y17677D01*
X7478Y15719D01*
X8249Y13858D01*
X9301Y12141D01*
X10609Y10609D01*
X12141Y9301D01*
X13858Y8249D01*
X15719Y7478D01*
X17677Y7008D01*
X19685Y6850D01*
X21693Y7008D01*
X23651Y7478D01*
X25512Y8249D01*
X27229Y9301D01*
X28761Y10609D01*
X30069Y12141D01*
X31121Y13858D01*
X31892Y15719D01*
X32362Y17677D01*
X32520Y19685D01*
X32362Y21693D01*
X31892Y23651D01*
X31121Y25512D01*
X30069Y27229D01*
X28761Y28761D01*
X27229Y30069D01*
X25512Y31121D01*
X23651Y31892D01*
X21693Y32362D01*
X19685Y32520D01*
D02*
G37*
G36*
X227251Y147665D02*
X224798D01*
Y145953D01*
X228873D01*
Y146043D01*
X228749Y146664D01*
X228398Y147190D01*
X227872Y147542D01*
X227251Y147665D01*
D02*
G37*
G36*
X223798D02*
X221346D01*
X220725Y147542D01*
X220199Y147190D01*
X219847Y146664D01*
X219724Y146043D01*
Y145953D01*
X223798D01*
Y147665D01*
D02*
G37*
G36*
X238484Y148273D02*
X236720D01*
Y145776D01*
X240006D01*
Y146752D01*
X239890Y147334D01*
X239560Y147828D01*
X239066Y148158D01*
X238484Y148273D01*
D02*
G37*
G36*
X235720D02*
X233957D01*
X233375Y148158D01*
X232881Y147828D01*
X232551Y147334D01*
X232435Y146752D01*
Y145776D01*
X235720D01*
Y148273D01*
D02*
G37*
G36*
X228873Y144953D02*
X219724D01*
Y144862D01*
X219847Y144242D01*
X220113Y143844D01*
X220066Y143387D01*
X220007Y143242D01*
X219521Y142868D01*
X219110Y142334D01*
X218852Y141711D01*
X218765Y141043D01*
Y139862D01*
X218852Y139194D01*
X219110Y138572D01*
X219298Y138328D01*
X219480Y137953D01*
X219298Y137578D01*
X219110Y137334D01*
X218852Y136711D01*
X218765Y136043D01*
Y134862D01*
X218852Y134194D01*
X219110Y133572D01*
X219298Y133328D01*
X219480Y132953D01*
X219298Y132578D01*
X219110Y132334D01*
X218852Y131711D01*
X218765Y131043D01*
Y129862D01*
X218852Y129194D01*
X219110Y128572D01*
X219298Y128328D01*
X219480Y127953D01*
X219298Y127578D01*
X219110Y127334D01*
X218852Y126711D01*
X218765Y126043D01*
Y124862D01*
X218852Y124194D01*
X219110Y123572D01*
X219298Y123328D01*
X219480Y122953D01*
X219298Y122578D01*
X219110Y122334D01*
X218852Y121711D01*
X218765Y121043D01*
Y119862D01*
X218852Y119194D01*
X219110Y118572D01*
X219298Y118328D01*
X219480Y117953D01*
X219298Y117578D01*
X219110Y117334D01*
X218852Y116711D01*
X218765Y116043D01*
Y114862D01*
X218852Y114194D01*
X219110Y113572D01*
X219298Y113328D01*
X219480Y112953D01*
X219298Y112578D01*
X219110Y112334D01*
X218852Y111711D01*
X218765Y111043D01*
Y109862D01*
X218852Y109194D01*
X219110Y108572D01*
X219521Y108037D01*
X220055Y107627D01*
X220678Y107369D01*
X221346Y107281D01*
X227251D01*
X227919Y107369D01*
X228542Y107627D01*
X229076Y108037D01*
X229486Y108572D01*
X229744Y109194D01*
X229832Y109862D01*
Y111043D01*
X229744Y111711D01*
X229486Y112334D01*
X229299Y112578D01*
X229117Y112953D01*
X229299Y113328D01*
X229486Y113572D01*
X229744Y114194D01*
X229832Y114862D01*
Y116043D01*
X229744Y116711D01*
X229486Y117334D01*
X229299Y117578D01*
X229117Y117953D01*
X229299Y118328D01*
X229486Y118572D01*
X229744Y119194D01*
X229832Y119862D01*
Y121043D01*
X229744Y121711D01*
X229486Y122334D01*
X229299Y122578D01*
X229117Y122953D01*
X229299Y123328D01*
X229486Y123572D01*
X229744Y124194D01*
X229832Y124862D01*
Y126043D01*
X229744Y126711D01*
X229486Y127334D01*
X229408Y127436D01*
X229655Y127936D01*
X230661D01*
Y127657D01*
X230851Y126697D01*
X231395Y125883D01*
X232209Y125340D01*
X233169Y125149D01*
X236122D01*
X237082Y125340D01*
X237885Y125876D01*
X238008Y125948D01*
X238370D01*
X238493Y125876D01*
X239296Y125340D01*
X240256Y125149D01*
X243209D01*
X244169Y125340D01*
X244983Y125883D01*
X245527Y126697D01*
X245718Y127657D01*
Y130364D01*
X245768Y130397D01*
X250787Y135416D01*
X250802Y135410D01*
X251969Y135257D01*
X253135Y135410D01*
X254222Y135861D01*
X255155Y136577D01*
X255872Y137510D01*
X256322Y138597D01*
X256476Y139764D01*
X256322Y140930D01*
X255872Y142017D01*
X255155Y142951D01*
X254222Y143667D01*
X253135Y144117D01*
X251969Y144271D01*
X250802Y144117D01*
X249715Y143667D01*
X248781Y142951D01*
X248065Y142017D01*
X247615Y140930D01*
X247462Y139764D01*
X247526Y139274D01*
X246708Y138457D01*
X246181Y138636D01*
X246086Y139356D01*
X245636Y140443D01*
X244919Y141376D01*
X243986Y142092D01*
X242899Y142543D01*
X241732Y142696D01*
X240566Y142543D01*
X240179Y142383D01*
X239764Y142660D01*
Y143028D01*
X239890Y143217D01*
X240006Y143799D01*
Y144776D01*
X232435D01*
Y143799D01*
X232551Y143217D01*
X232677Y143028D01*
Y141770D01*
X232183Y141439D01*
X231639Y140625D01*
X231448Y139665D01*
Y136713D01*
X231639Y135752D01*
X232142Y134999D01*
X232163Y134845D01*
X232072Y134411D01*
X231395Y133959D01*
X230851Y133145D01*
X230817Y132970D01*
X229655D01*
X229408Y133470D01*
X229486Y133572D01*
X229744Y134194D01*
X229832Y134862D01*
Y136043D01*
X229744Y136711D01*
X229486Y137334D01*
X229299Y137578D01*
X229117Y137953D01*
X229299Y138328D01*
X229486Y138572D01*
X229744Y139194D01*
X229832Y139862D01*
Y141043D01*
X229744Y141711D01*
X229486Y142334D01*
X229076Y142868D01*
X228589Y143242D01*
X228531Y143387D01*
X228484Y143844D01*
X228749Y144242D01*
X228873Y144862D01*
Y144953D01*
D02*
G37*
G36*
X250738Y116755D02*
X246900D01*
X246219Y116665D01*
X245584Y116402D01*
X245039Y115984D01*
X244621Y115439D01*
X244358Y114805D01*
X244269Y114124D01*
Y108317D01*
X244358Y107636D01*
X244621Y107002D01*
X245039Y106457D01*
X245584Y106039D01*
X246219Y105776D01*
X246900Y105686D01*
X250738D01*
X251419Y105776D01*
X252054Y106039D01*
X252598Y106457D01*
X253016Y107002D01*
X253029Y107033D01*
X253508Y107178D01*
X253743Y107021D01*
X254626Y106845D01*
X257972D01*
X258856Y107021D01*
X259605Y107521D01*
X260105Y108270D01*
X260281Y109153D01*
Y110925D01*
X260105Y111809D01*
X259605Y112557D01*
X258856Y113058D01*
X257972Y113233D01*
X254626D01*
X253869Y113083D01*
X253369Y113364D01*
Y114124D01*
X253279Y114805D01*
X253016Y115439D01*
X252598Y115984D01*
X252054Y116402D01*
X251419Y116665D01*
X250738Y116755D01*
D02*
G37*
G36*
X262657Y142807D02*
X261360Y142636D01*
X260152Y142135D01*
X259114Y141339D01*
X258317Y140301D01*
X257817Y139092D01*
X257646Y137795D01*
X257817Y136498D01*
X258317Y135290D01*
X259114Y134252D01*
X260152Y133455D01*
X261360Y132955D01*
X262657Y132784D01*
X262855Y132810D01*
X263231Y132480D01*
Y109404D01*
X262798Y109318D01*
X262049Y108817D01*
X261549Y108068D01*
X261373Y107185D01*
Y105413D01*
X261549Y104530D01*
X262049Y103781D01*
X262798Y103281D01*
X263681Y103105D01*
X267028D01*
X267911Y103281D01*
X268660Y103781D01*
X269160Y104530D01*
X269336Y105413D01*
Y107185D01*
X269160Y108068D01*
X268660Y108817D01*
X268265Y109081D01*
Y134843D01*
X268073Y135806D01*
X267528Y136622D01*
X267516Y136634D01*
X267669Y137795D01*
X267498Y139092D01*
X266998Y140301D01*
X266201Y141339D01*
X265163Y142135D01*
X263954Y142636D01*
X262657Y142807D01*
D02*
G37*
G36*
X37926Y148440D02*
X37236Y147749D01*
X36906Y147256D01*
X36790Y146673D01*
X36906Y146091D01*
X37236Y145598D01*
X38483Y144350D01*
X40249Y146116D01*
X37926Y148440D01*
D02*
G37*
G36*
X40956Y145409D02*
X39190Y143643D01*
X40437Y142396D01*
X40931Y142066D01*
X41513Y141951D01*
X42095Y142066D01*
X42588Y142396D01*
X43279Y143087D01*
X40956Y145409D01*
D02*
G37*
%LPD*%
D10*
X244485Y17513D02*
X244488Y17517D01*
X33268Y242126D02*
X34449Y243307D01*
X33268Y211614D02*
X34252Y212598D01*
X41339Y76631D02*
Y82677D01*
Y76631D02*
X41493Y76476D01*
X64961Y76631D02*
Y82677D01*
Y76631D02*
X65115Y76476D01*
X67468Y31693D02*
X69685D01*
X65210Y33951D02*
X67468Y31693D01*
X65210Y33951D02*
Y55736D01*
X62992Y21850D02*
Y30512D01*
Y21850D02*
X63189Y21654D01*
X35039Y243110D02*
X40354D01*
X34843Y242913D02*
X35039Y243110D01*
X34252Y212598D02*
X40354D01*
X19223Y330709D02*
X28346D01*
X12126Y323611D02*
X19223Y330709D01*
X12126Y322716D02*
Y323611D01*
X28346Y330709D02*
X33268Y325787D01*
X250984Y57087D02*
X252067D01*
X253157Y55996D01*
X254634D01*
X255315Y55315D01*
X66981Y189961D02*
X82677D01*
X22378Y145358D02*
X66981Y189961D01*
X22378Y138566D02*
Y145358D01*
X20669Y146653D02*
X77693Y203677D01*
Y242189D01*
X20669Y134843D02*
Y146653D01*
X75787Y204724D02*
Y241142D01*
X18504Y147441D02*
X75787Y204724D01*
X18504Y134055D02*
Y147441D01*
X73819Y205709D02*
Y240158D01*
X16535Y148425D02*
X73819Y205709D01*
X16535Y133071D02*
Y148425D01*
X32874Y232874D02*
X48228Y217520D01*
Y183071D02*
Y217520D01*
X14764Y149606D02*
X48228Y183071D01*
X14764Y131890D02*
Y149606D01*
X22378Y138566D02*
X40001Y120943D01*
X26378Y143068D02*
Y143701D01*
Y143068D02*
X31650Y137795D01*
X41732Y156693D02*
X42280D01*
X45967Y153006D01*
X244488Y17517D02*
Y28346D01*
X244485Y17513D02*
X246250Y15748D01*
X76896Y177487D02*
Y182211D01*
X75590Y176181D02*
X76896Y177487D01*
Y182211D02*
X79724Y185039D01*
X69882Y168307D02*
Y185039D01*
X54134Y152559D02*
X69882Y168307D01*
X64173Y166732D02*
Y176181D01*
X51181Y153740D02*
X64173Y166732D01*
X59055Y254921D02*
X73819Y240158D01*
X67716Y235236D02*
X71850Y231102D01*
Y225991D02*
Y231102D01*
X66805Y220945D02*
X71850Y225991D01*
X62992Y256890D02*
X77693Y242189D01*
X61024Y255906D02*
X75787Y241142D01*
X237402Y111221D02*
X237621Y111440D01*
Y119277D01*
X312008Y59055D02*
X321504D01*
X285402Y85661D02*
X312008Y59055D01*
X311738Y56496D02*
X321504D01*
X284573Y83661D02*
X311738Y56496D01*
X8811Y106346D02*
X21654Y93504D01*
X20000Y91850D02*
X21654Y93504D01*
X13934Y91850D02*
X20000D01*
X8811Y188929D02*
X13780Y193898D01*
X8811Y106346D02*
Y188929D01*
X33268Y251613D02*
X41300D01*
X24946Y97194D02*
X47978D01*
X24023D02*
Y98427D01*
X10827Y183071D02*
X20669Y192913D01*
X10827Y111624D02*
Y183071D01*
Y111624D02*
X24023Y98427D01*
X12795Y122202D02*
X33619Y101378D01*
X12795Y122202D02*
Y177165D01*
X27559Y191929D01*
X14764Y131890D02*
X37975Y108678D01*
X33619Y101069D02*
X47398D01*
X36614Y196850D02*
X41535Y201772D01*
X26772Y196850D02*
X36614D01*
X21850Y201772D02*
X26772Y196850D01*
X46260Y198819D02*
Y216997D01*
X39370Y191929D02*
X46260Y198819D01*
X27559Y191929D02*
X39370D01*
X34449Y243307D02*
X34843Y242913D01*
X41300Y251613D02*
X47244Y245669D01*
Y237205D02*
Y245669D01*
X35304Y227953D02*
X46260Y216997D01*
X30050Y227953D02*
X35304D01*
X28543Y229460D02*
X30050Y227953D01*
X33268Y251613D02*
Y251969D01*
X21850Y250984D02*
X26575Y246260D01*
X21850Y213583D02*
X26575Y218307D01*
Y246260D01*
X21850Y250984D02*
Y251969D01*
X21102Y252716D02*
X21850Y251969D01*
X12126Y252716D02*
X21102D01*
X21260Y242717D02*
X21850Y242126D01*
X12126Y242717D02*
X21260D01*
X21850Y212598D02*
Y213583D01*
X31496Y258858D02*
X45027D01*
X28543Y255906D02*
X31496Y258858D01*
X28543Y229460D02*
Y255906D01*
X45027Y258858D02*
X54197Y268028D01*
X53150Y190945D02*
Y202559D01*
X248031Y171260D02*
X263779Y155512D01*
X267717D01*
X40923Y88840D02*
Y90847D01*
X104227Y171260D02*
X248031D01*
X291575Y93177D02*
Y124764D01*
X247047Y169291D02*
X291575Y124764D01*
X106712Y169291D02*
X247047D01*
X281575Y93177D02*
Y131811D01*
X246000Y167386D02*
X281575Y131811D01*
X109261Y167386D02*
X246000D01*
X262795Y137795D02*
X265748Y134843D01*
Y106693D02*
Y134843D01*
X54197Y268028D02*
Y282221D01*
X151575Y94488D02*
X194882D01*
X115157Y130905D02*
X151575Y94488D01*
X109252Y130905D02*
X115157D01*
X247047Y242126D02*
X279606D01*
X226378Y221456D02*
X247047Y242126D01*
X226378Y177165D02*
Y221456D01*
X279606Y242126D02*
X288465Y250984D01*
X59055Y254921D02*
Y286221D01*
X61024Y255906D02*
Y297047D01*
X62992Y256890D02*
Y298117D01*
X64961Y257874D02*
X79724Y243110D01*
X64961Y257874D02*
Y301805D01*
X79724Y199803D02*
Y243110D01*
X42686Y114173D02*
X45672Y117159D01*
X41339Y114173D02*
X42686D01*
X20669Y134843D02*
X41339Y114173D01*
X40354Y112205D02*
X45171D01*
X18504Y134055D02*
X40354Y112205D01*
X47657Y110236D02*
X50126Y112705D01*
X39370Y110236D02*
X47657D01*
X16535Y133071D02*
X39370Y110236D01*
X37975Y108678D02*
X50553D01*
X166339Y100394D02*
Y109439D01*
X194882Y94488D02*
X202819Y102425D01*
X155512Y109439D02*
X155512Y109439D01*
X155512Y100197D02*
Y109439D01*
X135433Y192913D02*
Y217284D01*
X237047Y318898D01*
X101378Y254921D02*
X103748Y252551D01*
Y250484D02*
Y252551D01*
Y250484D02*
X104429Y249803D01*
X104921D01*
X82677Y189961D02*
X92520Y180118D01*
X92520D01*
X106390Y240854D02*
X117126Y230118D01*
X106390Y240854D02*
Y241642D01*
X105709Y242323D02*
X106390Y241642D01*
X104921Y242323D02*
X105709D01*
X117126Y176181D02*
Y230118D01*
X95374Y246063D02*
X95866D01*
X94693Y246744D02*
X95374Y246063D01*
X94693Y246744D02*
Y252354D01*
X82480Y264567D02*
X94693Y252354D01*
X79724Y199803D02*
X103347Y176181D01*
X62992Y303773D02*
X64961Y301805D01*
X58992Y302117D02*
X62992Y298117D01*
X52953Y305118D02*
X61024Y297047D01*
X53937Y291339D02*
X59055Y286221D01*
X66476Y220945D02*
X66805D01*
X55558Y216535D02*
Y234494D01*
X56299Y235236D01*
X55558Y216535D02*
X61148Y210945D01*
X61476D01*
X60049Y151575D02*
X65549Y146075D01*
X60039Y151575D02*
X60049D01*
X51181Y147117D02*
Y153740D01*
X54134Y148618D02*
Y152559D01*
X51181Y147117D02*
X54580Y143718D01*
X50553Y108678D02*
X52353Y110478D01*
X52953Y202756D02*
X53150Y202559D01*
X65549Y145945D02*
Y146075D01*
X54134Y148618D02*
X56807Y145945D01*
X41535Y201772D02*
Y202756D01*
X21850Y201772D02*
Y202756D01*
X53937Y282480D02*
X54197Y282221D01*
X45171Y112205D02*
X47899Y114932D01*
X240766Y101909D02*
X259014Y83661D01*
X218097Y101909D02*
X240766D01*
X218925Y103909D02*
X241595D01*
X213583Y109252D02*
X218925Y103909D01*
X211583Y108424D02*
X218097Y101909D01*
X119095Y140748D02*
X160630D01*
X154095Y135827D02*
X160630Y129292D01*
X114173Y135827D02*
X154095D01*
X135827Y163386D02*
X226378D01*
X86614Y114173D02*
X135827Y163386D01*
X79670Y114173D02*
X86614D01*
X160630Y140748D02*
X160630Y140748D01*
Y128937D02*
Y129292D01*
Y127953D02*
Y128937D01*
X202819Y102425D02*
X210462D01*
X53062Y313541D02*
X58992Y307611D01*
Y302117D02*
Y307611D01*
X21850Y306102D02*
Y307087D01*
X25697Y310933D02*
X37689D01*
X41535Y307087D01*
Y306102D02*
Y307087D01*
X21850Y304765D02*
Y307087D01*
X52953Y305118D02*
Y306102D01*
X21850Y307087D02*
X25697Y310933D01*
Y277650D02*
X38673D01*
X42520Y281496D01*
Y282480D01*
X21850Y281496D02*
Y282480D01*
Y281496D02*
X25697Y277650D01*
X53937Y291339D02*
Y292323D01*
X33268Y315590D02*
X35316Y313541D01*
X53062D01*
X42520Y292323D02*
Y293307D01*
X38673Y297153D02*
X42520Y293307D01*
X25697Y297153D02*
X38673D01*
X21850Y293307D02*
X25697Y297153D01*
X21850Y292717D02*
Y293307D01*
X33268Y272638D02*
X33268Y272638D01*
X41339D01*
X39173Y299213D02*
X47244D01*
X33268Y305118D02*
X39173Y299213D01*
X33268Y305118D02*
Y306102D01*
X19802Y302716D02*
X21850Y304765D01*
X12126Y302716D02*
X19802D01*
X21083Y315945D02*
X21850Y315177D01*
X15354Y315945D02*
X21083D01*
X12126Y312717D02*
X15354Y315945D01*
X21850Y315945D02*
Y324803D01*
Y315177D02*
Y315945D01*
X33268Y315590D02*
Y315945D01*
Y324803D02*
Y325787D01*
X40001Y120943D02*
X40547D01*
X41217Y121614D01*
X29255Y287402D02*
X29331D01*
X28543D02*
X29255D01*
X33268Y291414D01*
Y292323D01*
X29331Y287402D02*
X33268Y283465D01*
Y282480D02*
Y283465D01*
Y202756D02*
Y211614D01*
Y212598D01*
X33268Y292323D02*
X33268Y292323D01*
X4921Y275512D02*
X12126Y282716D01*
X4921Y229921D02*
Y275512D01*
Y229921D02*
X12126Y222716D01*
X6890Y267480D02*
X12126Y272716D01*
X6890Y247953D02*
Y267480D01*
Y247953D02*
X12126Y242717D01*
X21811Y202716D02*
X21850Y202756D01*
X12126Y202716D02*
X21811D01*
X33268Y212598D02*
Y222441D01*
Y271654D02*
Y272638D01*
X21732Y212717D02*
X21850Y212598D01*
X12126Y212717D02*
X21732D01*
X21850Y222441D02*
Y232283D01*
X21417Y232716D02*
X21850Y232283D01*
X12126Y232716D02*
X21417D01*
X84800Y117126D02*
X87753Y120079D01*
X81397Y117126D02*
X84800D01*
X79137Y119386D02*
X81397Y117126D01*
X78911Y119386D02*
X79137D01*
X74457Y114932D02*
X81400Y107989D01*
X66099Y114382D02*
Y116141D01*
X65945Y97474D02*
X73065Y90354D01*
X65945Y97474D02*
Y98442D01*
X73065Y90354D02*
X73973D01*
X47978Y97194D02*
X56807Y106024D01*
X21654Y93504D02*
X53029D01*
X41493Y90847D02*
X65115D01*
X65115Y76476D02*
X65115Y76476D01*
X65115Y76476D02*
Y76476D01*
X53029Y93504D02*
X65549Y106024D01*
X13934Y61850D02*
X40923Y88840D01*
Y90847D02*
X41493D01*
X65144Y90818D02*
X72525D01*
X65115Y90847D02*
X65144Y90818D01*
X72230Y139263D02*
X104227Y171260D01*
X74457Y137036D02*
X106712Y169291D01*
X76684Y134809D02*
X109261Y167386D01*
X76684Y117159D02*
X79670Y114173D01*
X50042Y125984D02*
X73973D01*
X83382Y121614D02*
X117280Y155512D01*
X88737Y132874D02*
X108343Y152480D01*
X47398Y101069D02*
X54580Y108251D01*
X70739Y141699D02*
X80926Y151886D01*
Y153994D01*
X83816Y156884D01*
X83658Y132874D02*
X88737D01*
X66099Y114382D02*
X70003Y110478D01*
X45967Y151128D02*
Y153006D01*
X66199Y132874D02*
X72230Y138905D01*
X81138Y121614D02*
X83382D01*
X117280Y155512D02*
Y161417D01*
X43872Y144972D02*
X49580Y139263D01*
X50126D01*
X67776Y143718D02*
X76926Y152868D01*
Y153543D01*
X47899Y137036D02*
X53045Y131890D01*
X78911Y132582D02*
X83140Y136811D01*
X83816D01*
X43445Y119386D02*
X50042Y125984D01*
X43872Y136609D02*
X45672Y134809D01*
X43872Y136609D02*
Y144972D01*
X81400Y106836D02*
X87305D01*
X67776Y108251D02*
X71192Y104835D01*
X29006Y135151D02*
X31790Y132367D01*
X38660D01*
X40672Y130355D01*
X41217D01*
X46524Y147320D02*
Y150571D01*
Y147320D02*
X52353Y141490D01*
X34295Y140440D02*
X40483Y134252D01*
X41774D01*
X43445Y132582D01*
X72230Y112705D02*
X75832Y109103D01*
X70003Y141490D02*
X70211Y141699D01*
X70739D01*
X81138Y130355D02*
X83658Y132874D01*
X72230Y138905D02*
Y139263D01*
X45967Y151128D02*
X46524Y150571D01*
X40956Y146116D02*
X42727D01*
X43872Y144972D01*
X75832Y102382D02*
Y109103D01*
Y102382D02*
X76389Y101825D01*
X73380Y104835D02*
X75832Y102382D01*
X71192Y104835D02*
X73380D01*
X160630Y139764D02*
X166339Y134055D01*
X108422Y153543D02*
X109406D01*
X21457Y292717D02*
X21850Y292323D01*
X12126Y292717D02*
X21457D01*
X21614Y282716D02*
X21850Y282480D01*
X12126Y282716D02*
X21614D01*
X21772Y272716D02*
X21850Y272638D01*
X12126Y272716D02*
X21772D01*
X207740Y121953D02*
X211583Y118110D01*
X204527Y121953D02*
X207740D01*
X203886Y121311D02*
X204527Y121953D01*
X203886Y121127D02*
Y121311D01*
X203212Y120453D02*
X203886Y121127D01*
X200898Y120453D02*
X203212D01*
X208569Y123953D02*
X213583Y118939D01*
X204527Y123953D02*
X208569D01*
X203886Y124594D02*
X204527Y123953D01*
X203886Y124594D02*
Y124779D01*
X203212Y125453D02*
X203886Y124779D01*
X200898Y125453D02*
X203212D01*
X211583Y108424D02*
Y118110D01*
X213583Y109252D02*
Y118939D01*
X259014Y83661D02*
X284573D01*
X241595Y103909D02*
X259842Y85661D01*
X285402D01*
X159449Y41339D02*
X166929D01*
X167520Y41929D01*
X173425Y53150D02*
X174922Y51652D01*
X163976Y53150D02*
X173425D01*
X250000Y110039D02*
X256299D01*
X248819Y111221D02*
X250000Y110039D01*
X265354Y106299D02*
X265748Y106693D01*
X256299Y98453D02*
X261575Y93177D01*
X256299Y98453D02*
Y102559D01*
X243988Y132177D02*
X251575Y139764D01*
X251969D01*
X243201Y132177D02*
X243988D01*
X241732Y130709D02*
X243201Y132177D01*
X241732Y129921D02*
Y130709D01*
X172343Y140453D02*
X200898D01*
X172047Y140748D02*
X172343Y140453D01*
X175004Y131894D02*
X178563Y135453D01*
X174096Y131894D02*
X175004D01*
X172047Y129846D02*
X174096Y131894D01*
X172047Y128937D02*
Y129846D01*
X178563Y135453D02*
X200898D01*
X155512Y116939D02*
Y122835D01*
X160630Y127953D01*
X166339Y116939D02*
Y134055D01*
X160630Y139764D02*
Y140748D01*
X177165Y108268D02*
X187008D01*
X272047Y60827D02*
X273819Y59055D01*
X272047Y60827D02*
Y68898D01*
X255315Y64370D02*
X257874Y66929D01*
X255315Y62795D02*
Y64370D01*
X273819Y59055D02*
X273819Y59055D01*
X264370Y59055D02*
X273819D01*
X277362Y15748D02*
X293307D01*
X253750Y15748D02*
X265945D01*
X265945Y15748D01*
X200886Y21654D02*
X200984D01*
X200886Y21654D02*
X200886Y21654D01*
X190748Y21654D02*
X200787D01*
X159449Y41339D02*
Y45669D01*
X155709Y49409D02*
X159449Y45669D01*
X154921Y49409D02*
X155709D01*
X141732Y33465D02*
X141732D01*
X234114Y130453D02*
X234646Y129921D01*
X224298Y130453D02*
X234114D01*
X200436Y129990D02*
X200898Y130453D01*
X189439Y129990D02*
X200436D01*
X188976Y129528D02*
X189439Y129990D01*
X187008Y112008D02*
X195091D01*
X198536Y115453D01*
X200898D01*
X200787Y108268D02*
Y110342D01*
X200898Y110453D01*
X197047Y104528D02*
X200787Y108268D01*
X187008Y104528D02*
X197047D01*
X184918Y51060D02*
X186932D01*
X183071Y49213D02*
X184918Y51060D01*
X183071Y40551D02*
Y49213D01*
Y40551D02*
X190748Y32874D01*
X184843Y53150D02*
X186932Y51060D01*
X174922Y42007D02*
Y51652D01*
Y42007D02*
X175000Y41929D01*
X179331Y21654D02*
Y28150D01*
X183268Y32087D01*
Y32874D01*
X171260D02*
X183268D01*
X74606Y21654D02*
Y33661D01*
X72835Y35433D02*
X74606Y33661D01*
X69685Y35433D02*
X72835D01*
X59449Y58957D02*
X61770D01*
X62474Y58473D02*
X65210Y55736D01*
X70177Y39173D02*
X70858Y39854D01*
Y50072D02*
X79633Y58847D01*
X70858Y39854D02*
Y50072D01*
X62254Y58473D02*
X62474D01*
X61770Y58957D02*
X62254Y58473D01*
X82174Y58847D02*
X82284Y58957D01*
X79633Y58847D02*
X82174D01*
X69685Y39173D02*
X70177D01*
D57*
X160630Y140748D02*
D03*
X172047D02*
D03*
X160630Y128937D02*
D03*
X172047D02*
D03*
X104528Y264764D02*
D03*
X115945D02*
D03*
X273819Y59055D02*
D03*
X285236D02*
D03*
X67716Y235236D02*
D03*
X56299D02*
D03*
X75590Y176181D02*
D03*
X64173D02*
D03*
X33268Y325787D02*
D03*
X21850D02*
D03*
Y315945D02*
D03*
X33268D02*
D03*
Y306102D02*
D03*
X21850D02*
D03*
X41535Y306102D02*
D03*
X52953D02*
D03*
X42520Y292323D02*
D03*
X53937D02*
D03*
X33268Y292323D02*
D03*
X21850D02*
D03*
X33268Y282480D02*
D03*
X21850D02*
D03*
X42520Y282480D02*
D03*
X53937D02*
D03*
X21850Y272638D02*
D03*
X33268D02*
D03*
X21850Y252953D02*
D03*
X33268D02*
D03*
Y243110D02*
D03*
X21850D02*
D03*
Y233268D02*
D03*
X33268D02*
D03*
Y222441D02*
D03*
X21850D02*
D03*
X33268Y212598D02*
D03*
X21850D02*
D03*
X33268Y202756D02*
D03*
X21850D02*
D03*
X41535Y202756D02*
D03*
X52953D02*
D03*
X248819Y111221D02*
D03*
X237402D02*
D03*
X63189Y21654D02*
D03*
X74606D02*
D03*
X136614Y66929D02*
D03*
X125197D02*
D03*
X173425Y53150D02*
D03*
X184843D02*
D03*
X179331Y21654D02*
D03*
X190748D02*
D03*
X212402Y21654D02*
D03*
X200984D02*
D03*
X222638Y21654D02*
D03*
X234055D02*
D03*
X222638Y33465D02*
D03*
X234055D02*
D03*
X265945Y15748D02*
D03*
X277362D02*
D03*
D58*
X95866Y246063D02*
D03*
X104921Y249803D02*
D03*
Y242323D02*
D03*
X154921Y56890D02*
D03*
Y49409D02*
D03*
X163976Y53150D02*
D03*
X255315Y62795D02*
D03*
Y55315D02*
D03*
X264370Y59055D02*
D03*
X256299Y110039D02*
D03*
Y102559D02*
D03*
X265354Y106299D02*
D03*
X233465Y47244D02*
D03*
Y43504D02*
D03*
X223228Y50984D02*
D03*
Y47244D02*
D03*
Y43504D02*
D03*
X233465Y50984D02*
D03*
X79921Y35433D02*
D03*
Y31693D02*
D03*
X69685Y39173D02*
D03*
Y35433D02*
D03*
Y31693D02*
D03*
X79921Y39173D02*
D03*
D59*
X236221Y138189D02*
D03*
Y145276D02*
D03*
X188976Y122441D02*
D03*
Y129528D02*
D03*
X96457Y41732D02*
D03*
Y48819D02*
D03*
X138779Y50787D02*
D03*
Y43701D02*
D03*
D60*
X272047Y68898D02*
D03*
X279528D02*
D03*
X275787Y77953D02*
D03*
X175000Y41929D02*
D03*
X167520D02*
D03*
X171260Y32874D02*
D03*
X183268D02*
D03*
X190748D02*
D03*
X187008Y41929D02*
D03*
D61*
X73973Y90354D02*
D03*
Y78937D02*
D03*
X155512Y100197D02*
D03*
Y88779D02*
D03*
X166339Y88976D02*
D03*
Y100394D02*
D03*
X96457Y56299D02*
D03*
Y67716D02*
D03*
X125984Y13976D02*
D03*
Y25394D02*
D03*
X114173Y13976D02*
D03*
Y25394D02*
D03*
X146653Y67716D02*
D03*
Y56299D02*
D03*
D62*
X65115Y76476D02*
D03*
Y90847D02*
D03*
X41493Y76476D02*
D03*
Y90847D02*
D03*
D63*
X34295Y140440D02*
D03*
X29006Y135151D02*
D03*
D64*
X31650Y137795D02*
D03*
D65*
X45967Y151128D02*
D03*
X40956Y146116D02*
D03*
X81400Y106836D02*
D03*
X76389Y101825D02*
D03*
D66*
X187008Y112008D02*
D03*
Y104528D02*
D03*
D67*
Y108268D02*
D03*
D68*
X155512Y109439D02*
D03*
Y116939D02*
D03*
X166339Y109439D02*
D03*
Y116939D02*
D03*
D69*
X65549Y145945D02*
D03*
X67776Y143718D02*
D03*
X70003Y141490D02*
D03*
X72230Y139263D02*
D03*
X74457Y137036D02*
D03*
X76684Y134809D02*
D03*
X78911Y132582D02*
D03*
X81138Y130355D02*
D03*
X56807Y106024D02*
D03*
X54580Y108251D02*
D03*
X52353Y110478D02*
D03*
X50126Y112705D02*
D03*
X47899Y114932D02*
D03*
X45672Y117159D02*
D03*
X43445Y119386D02*
D03*
X41217Y121614D02*
D03*
D70*
X81138D02*
D03*
X78911Y119386D02*
D03*
X76684Y117159D02*
D03*
X74457Y114932D02*
D03*
X72230Y112705D02*
D03*
X70003Y110478D02*
D03*
X67776Y108251D02*
D03*
X65549Y106024D02*
D03*
X41217Y130355D02*
D03*
X43445Y132582D02*
D03*
X45672Y134809D02*
D03*
X47899Y137036D02*
D03*
X50126Y139263D02*
D03*
X52353Y141490D02*
D03*
X54580Y143718D02*
D03*
X56807Y145945D02*
D03*
D71*
X244094Y35433D02*
D03*
Y47244D02*
D03*
D72*
X332039Y75000D02*
D03*
Y43110D02*
D03*
D73*
X323177Y71653D02*
D03*
Y46457D02*
D03*
D74*
X321504Y64173D02*
D03*
Y61614D02*
D03*
Y59055D02*
D03*
Y56496D02*
D03*
Y53937D02*
D03*
D75*
X82284Y51279D02*
D03*
Y53839D02*
D03*
Y56398D02*
D03*
Y58957D02*
D03*
X59449Y51279D02*
D03*
Y53839D02*
D03*
Y56398D02*
D03*
Y58957D02*
D03*
D76*
X137982Y25591D02*
D03*
X145482D02*
D03*
X137982Y13780D02*
D03*
X145482D02*
D03*
X253750Y15748D02*
D03*
X246250D02*
D03*
D77*
X112579Y36614D02*
D03*
X117579D02*
D03*
X122579D02*
D03*
X127579D02*
D03*
X112579Y57874D02*
D03*
X117579D02*
D03*
X122579D02*
D03*
X127579D02*
D03*
D78*
X174213Y64961D02*
D03*
X184055D02*
D03*
X203740Y47244D02*
D03*
X213583D02*
D03*
D79*
X212598Y33465D02*
D03*
X200787D02*
D03*
D80*
X241732Y129921D02*
D03*
X234646D02*
D03*
D81*
X244659Y76772D02*
D03*
X204159D02*
D03*
D82*
X224298Y110453D02*
D03*
Y115453D02*
D03*
Y120453D02*
D03*
Y125453D02*
D03*
Y130453D02*
D03*
Y135453D02*
D03*
Y140453D02*
D03*
Y145453D02*
D03*
X200898Y110453D02*
D03*
Y115453D02*
D03*
Y120453D02*
D03*
Y125453D02*
D03*
Y130453D02*
D03*
Y135453D02*
D03*
Y140453D02*
D03*
Y145453D02*
D03*
D83*
X117579Y57874D02*
Y65591D01*
X117522Y65647D02*
X117579Y65591D01*
X133335Y50787D02*
X139764D01*
X135827Y53937D02*
X138508Y51256D01*
X135827Y53937D02*
Y57087D01*
X127579Y56543D02*
X133335Y50787D01*
X157111Y67815D02*
X157210Y67913D01*
X147736Y67815D02*
X157111D01*
X147638Y67716D02*
X147736Y67815D01*
X35827Y151181D02*
X35936D01*
X40956Y146161D01*
X244094Y35433D02*
X244488Y35039D01*
Y28346D02*
Y35039D01*
X128912Y75295D02*
X174213D01*
X128420Y75787D02*
X128912Y75295D01*
X166929Y89567D02*
X167913Y88583D01*
X52165Y55118D02*
X59055D01*
X313976Y64961D02*
X320866D01*
X90945Y225984D02*
Y243701D01*
Y206299D02*
Y225984D01*
X110236Y176181D02*
Y178150D01*
X83661Y204724D02*
X110236Y178150D01*
X83661Y204724D02*
Y244094D01*
X90945Y206299D02*
X112205Y185039D01*
X233268Y158465D02*
Y163386D01*
X228165Y153362D02*
X233268Y158465D01*
X142871Y153362D02*
X228165D01*
X278543Y151575D02*
X292323Y137795D01*
X278543Y151575D02*
Y163386D01*
X264764Y177165D02*
X278543Y163386D01*
X271575Y93177D02*
Y137874D01*
X264173Y145276D02*
X271575Y137874D01*
X236221Y145276D02*
X264173D01*
X83661Y75787D02*
X128420D01*
X100528Y82697D02*
X191949D01*
X96611Y86614D02*
X100528Y82697D01*
X174213Y74803D02*
Y75295D01*
Y74803D02*
X184055Y64961D01*
X167913Y88583D02*
X174213D01*
X166339Y88976D02*
X166929Y89567D01*
X191949Y82697D02*
X205709Y96457D01*
X166240Y88878D02*
X166339Y88976D01*
X155610Y88878D02*
X166240D01*
X155512Y88779D02*
X155610Y88878D01*
X146653Y185039D02*
X237047Y275433D01*
X132874Y185039D02*
X146653D01*
X237047Y275433D02*
Y288898D01*
X82480Y276772D02*
X88027Y282318D01*
Y313548D01*
X75787Y258858D02*
X90945Y243701D01*
X124016Y176181D02*
Y244291D01*
X124015Y176181D02*
X124016Y176181D01*
X104528Y263779D02*
X124016Y244291D01*
X115945Y264764D02*
X124016D01*
X115945Y264764D02*
X115945Y264764D01*
X67992Y259764D02*
X83661Y244094D01*
X104528Y263779D02*
Y264764D01*
X94685Y264567D02*
X103543D01*
X75787Y258858D02*
Y270079D01*
X67992Y259764D02*
Y307136D01*
X61580Y313548D02*
X67992Y307136D01*
X75787Y270079D02*
X82480Y276772D01*
X94685D01*
X43228Y262717D02*
X50197Y269685D01*
X12126Y262717D02*
X43228D01*
X137673Y68701D02*
X144685D01*
X136614Y67642D02*
X137673Y68701D01*
X193130Y145453D02*
X200898D01*
X104331Y8858D02*
Y27035D01*
X240158Y96457D02*
X258661Y77953D01*
X205709Y96457D02*
X240158D01*
X142871Y153362D02*
Y158310D01*
X142717Y158465D02*
X142871Y158310D01*
X83661Y94553D02*
X112140Y123031D01*
X112540D01*
X134843Y145334D02*
X142871Y153362D01*
X76389Y101825D02*
X83661Y94553D01*
Y75787D02*
Y94553D01*
X258661Y77953D02*
X275787D01*
X79724Y71850D02*
X83661Y75787D01*
X264764Y177165D02*
X312008Y224409D01*
X233268Y177165D02*
X264764D01*
X47244Y71850D02*
X79724D01*
X33934Y71850D02*
X47244D01*
X13934Y51850D02*
X33934Y71850D01*
X40956Y146116D02*
Y146161D01*
X87753Y120079D02*
X123787Y156113D01*
X85603Y136811D02*
X110209Y161417D01*
X110391D01*
X123787Y156113D02*
Y161035D01*
X124170Y161417D01*
X83816Y136811D02*
X85603D01*
X96457Y48819D02*
Y56299D01*
X96457Y48819D02*
X96457Y48819D01*
Y67716D02*
X97441D01*
X105862Y59295D01*
Y44661D02*
Y59295D01*
Y44661D02*
X112579Y37945D01*
Y36614D02*
Y37945D01*
X104331Y27035D02*
X112260Y34965D01*
X136614Y66929D02*
Y67642D01*
X172366Y53224D02*
Y54209D01*
Y53224D02*
X173228Y52362D01*
X147047Y56890D02*
X155071D01*
X163142Y64961D02*
X174213D01*
X155071Y56890D02*
X163142Y64961D01*
X286295Y8736D02*
X293307Y15748D01*
X175516Y8736D02*
X286295D01*
X140551Y43701D02*
X175516Y8736D01*
X89796Y50280D02*
Y58766D01*
X86531Y62032D02*
X89796Y58766D01*
X41622Y62032D02*
X86531D01*
X39370Y59780D02*
X41622Y62032D01*
X39370Y47244D02*
Y59780D01*
X88027Y338676D02*
Y339995D01*
Y338676D02*
X92571Y334132D01*
Y327704D02*
Y334132D01*
Y327704D02*
X93504Y326772D01*
X88027Y313548D02*
Y314867D01*
X92571Y319412D01*
Y325839D01*
X93504Y326772D01*
X312008Y224409D02*
Y237441D01*
X298465Y250984D02*
X312008Y237441D01*
X244377Y76489D02*
X244659Y76772D01*
X244377Y47527D02*
Y76489D01*
X244094Y47244D02*
X244377Y47527D01*
X217347Y56717D02*
Y63835D01*
X204409Y76772D02*
X217347Y63835D01*
X204159Y76772D02*
X204409D01*
X61580Y313548D02*
X69882Y321850D01*
Y331693D01*
X61580Y339995D02*
X69882Y331693D01*
X183071Y122047D02*
X188583D01*
X188976Y122441D01*
X236221Y138189D02*
X241732D01*
X284177Y60114D02*
X285236Y59055D01*
X284177Y60114D02*
Y64098D01*
X279528Y68748D02*
X284177Y64098D01*
X279528Y68748D02*
Y68898D01*
X295276Y47244D02*
Y56804D01*
X293024Y59055D02*
X295276Y56804D01*
X285236Y59055D02*
X293024D01*
X235630Y41339D02*
X272836D01*
X233465Y43504D02*
X235630Y41339D01*
X272836D02*
X276773Y37402D01*
X277559D01*
Y47402D02*
X295118D01*
X295276Y47244D01*
X277480Y47323D02*
X277559Y47402D01*
X244676Y47323D02*
X277480D01*
X244597Y47244D02*
X244676Y47323D01*
X293307Y15748D02*
X309055Y31496D01*
X138976Y43701D02*
X139764D01*
X133539Y38264D02*
X138976Y43701D01*
X127898Y38264D02*
X133539D01*
X127579Y37945D02*
X127898Y38264D01*
X127579Y36614D02*
Y37945D01*
X233465Y47244D02*
X244094D01*
X234055Y33610D02*
Y34449D01*
X226589Y47244D02*
X228753Y45080D01*
Y39750D02*
Y45080D01*
Y39750D02*
X234055Y34449D01*
X223228Y47244D02*
X226589D01*
X243331Y34669D02*
X244094Y35433D01*
X244094Y35433D01*
X235114Y34669D02*
X243331D01*
X234055Y33610D02*
X235114Y34669D01*
X234055Y33465D02*
Y33610D01*
X212598Y33465D02*
Y39370D01*
X212598Y33465D02*
X212598Y33465D01*
X212402Y21654D02*
X222638D01*
X222638Y21654D01*
X200886Y21654D02*
Y23697D01*
X200787Y33465D02*
Y44291D01*
X203740Y47244D01*
X200886Y23697D02*
Y33366D01*
X200787Y33465D02*
X200886Y33366D01*
X190748Y32724D02*
X199776Y23697D01*
X190748Y32724D02*
Y32874D01*
X141732Y33465D02*
X144482Y30715D01*
Y26591D02*
Y30715D01*
Y26591D02*
X145482Y25591D01*
Y13780D02*
Y25591D01*
X127579Y56543D02*
Y57874D01*
X236132Y145364D02*
X236221Y145276D01*
X224387Y145364D02*
X236132D01*
X224298Y145453D02*
X224387Y145364D01*
X147047Y50197D02*
Y56890D01*
X140551Y43701D02*
X147047Y50197D01*
X188976Y64961D02*
X194882Y59055D01*
X184055Y64961D02*
X188976D01*
X194882Y49953D02*
Y59055D01*
X187008Y42079D02*
X194882Y49953D01*
X187008Y41929D02*
Y42079D01*
X315504Y53224D02*
X320791D01*
X309055Y46776D02*
X315504Y53224D01*
X309055Y31496D02*
Y46776D01*
X213583Y52953D02*
X217347Y56717D01*
X213583Y47244D02*
Y52953D01*
X217347Y56717D02*
X223079Y50984D01*
X234055Y21654D02*
Y22638D01*
X232996Y23697D02*
X234055Y22638D01*
X231421Y23697D02*
X232996D01*
X222638Y32480D02*
X231421Y23697D01*
X222638Y32480D02*
Y33465D01*
X222933Y43209D02*
X223228Y43504D01*
X222933Y33760D02*
Y43209D01*
X222638Y33465D02*
X222933Y33760D01*
X223079Y50984D02*
X223228D01*
X121653Y43701D02*
X138976D01*
X112579Y52776D02*
Y57874D01*
Y52776D02*
X121653Y43701D01*
X95669Y41732D02*
X96457D01*
X93110Y39173D02*
X95669Y41732D01*
X79921Y39173D02*
X93110D01*
X97244Y48819D02*
X102362Y43701D01*
Y39370D02*
Y43701D01*
X98425Y35433D02*
X102362Y39370D01*
X79921Y35433D02*
X98425D01*
X96457Y48819D02*
X97244D01*
X89796Y47605D02*
X95669Y41732D01*
X89796Y47605D02*
Y50280D01*
X84392Y55685D02*
X89796Y50280D01*
X83736Y55685D02*
X84392D01*
D84*
X125197Y65945D02*
Y66929D01*
X122579Y63327D02*
X125197Y65945D01*
X122579Y57874D02*
Y63327D01*
X320791Y53224D02*
X321504Y53937D01*
X120866Y19685D02*
X132077D01*
X137982Y25591D01*
X115157Y13976D02*
X120866Y19685D01*
X114173Y13976D02*
X115157D01*
X137884Y13878D02*
X137982Y13780D01*
X126083Y13878D02*
X137884D01*
X125984Y13976D02*
X126083Y13878D01*
X125000Y25394D02*
X125984D01*
X122579Y27815D02*
X125000Y25394D01*
X122579Y27815D02*
Y36614D01*
X114173Y25394D02*
X115157D01*
X117579Y27815D01*
Y36614D01*
D85*
X39370Y47244D02*
D03*
X295276D02*
D03*
D86*
X292461Y137795D02*
D03*
X262657D02*
D03*
X332835Y282716D02*
D03*
X332752Y272716D02*
D03*
X332835Y262717D02*
D03*
X332752Y252716D02*
D03*
X12126Y202716D02*
D03*
Y212717D02*
D03*
Y222716D02*
D03*
Y232716D02*
D03*
Y242717D02*
D03*
Y252716D02*
D03*
Y262717D02*
D03*
Y272716D02*
D03*
Y282716D02*
D03*
Y292717D02*
D03*
Y302716D02*
D03*
Y312717D02*
D03*
Y322716D02*
D03*
X277559Y47402D02*
D03*
D87*
X331024Y181102D02*
D03*
Y354331D02*
D03*
X31496Y181102D02*
D03*
Y354331D02*
D03*
X283465Y339567D02*
D03*
D88*
X12126Y332716D02*
D03*
D89*
X261575Y93177D02*
D03*
X271575D02*
D03*
X281575D02*
D03*
X291575D02*
D03*
X301575Y232677D02*
D03*
X291575D02*
D03*
X281575D02*
D03*
X271575D02*
D03*
X261575D02*
D03*
X251575D02*
D03*
X268465Y250984D02*
D03*
X288465D02*
D03*
X298465D02*
D03*
X278465D02*
D03*
X122047Y328898D02*
D03*
Y318898D02*
D03*
Y298898D02*
D03*
Y288898D02*
D03*
Y308898D02*
D03*
X237047Y298898D02*
D03*
Y308898D02*
D03*
Y318898D02*
D03*
Y288898D02*
D03*
D90*
X134843Y254724D02*
D03*
Y94488D02*
D03*
D91*
X61476Y205945D02*
D03*
Y210945D02*
D03*
Y215945D02*
D03*
Y220945D02*
D03*
X66476Y205945D02*
D03*
Y210945D02*
D03*
Y215945D02*
D03*
Y220945D02*
D03*
Y225945D02*
D03*
D92*
X61476D02*
D03*
D93*
X94685Y276772D02*
D03*
Y264567D02*
D03*
X82480D02*
D03*
Y276772D02*
D03*
D94*
X56102Y326772D02*
D03*
X61580Y339995D02*
D03*
X88027D02*
D03*
X93504Y326772D02*
D03*
X88027Y313548D02*
D03*
X61580D02*
D03*
D95*
X13934Y91850D02*
D03*
Y81850D02*
D03*
Y71850D02*
D03*
Y61850D02*
D03*
Y51850D02*
D03*
X277559Y37402D02*
D03*
Y27402D02*
D03*
D96*
X13934Y41850D02*
D03*
D97*
X19685Y19685D02*
D03*
X326772D02*
D03*
D98*
X117522Y65647D02*
D03*
X41339Y82677D02*
D03*
X64961D02*
D03*
X62992Y30512D02*
D03*
X40354Y243110D02*
D03*
Y212598D02*
D03*
X157210Y67913D02*
D03*
X135827Y57087D02*
D03*
X250984Y57087D02*
D03*
X26378Y143701D02*
D03*
X41732Y156693D02*
D03*
X35827Y151181D02*
D03*
X244488Y28346D02*
D03*
X79724Y185039D02*
D03*
X237621Y119277D02*
D03*
X52165Y55118D02*
D03*
X313976Y64961D02*
D03*
X47244Y237205D02*
D03*
X13780Y193898D02*
D03*
X20669Y192913D02*
D03*
X53150Y190945D02*
D03*
X112205Y185039D02*
D03*
X267717Y155512D02*
D03*
X174213Y75295D02*
D03*
Y88583D02*
D03*
X135433Y192913D02*
D03*
X90945Y225984D02*
D03*
X132874Y185039D02*
D03*
X101378Y254921D02*
D03*
X92520Y180118D02*
D03*
X124016Y264764D02*
D03*
X103347Y176181D02*
D03*
X110236D02*
D03*
X117126D02*
D03*
X124015Y176181D02*
D03*
X60039Y151575D02*
D03*
X69882Y185039D02*
D03*
X193130Y145453D02*
D03*
X50197Y269685D02*
D03*
X75787Y270079D02*
D03*
X104331Y8858D02*
D03*
X142717Y158465D02*
D03*
X112540Y123031D02*
D03*
X109252Y130905D02*
D03*
X119095Y140748D02*
D03*
X114173Y135827D02*
D03*
X134843Y145334D02*
D03*
X233268Y163386D02*
D03*
X226378Y177165D02*
D03*
X226378Y163386D02*
D03*
X41339Y272638D02*
D03*
X24946Y97504D02*
D03*
X47244Y299213D02*
D03*
X28543Y287402D02*
D03*
X65945Y98442D02*
D03*
X233268Y177165D02*
D03*
X47244Y71850D02*
D03*
X83816Y156884D02*
D03*
X33619Y101378D02*
D03*
X109406Y153543D02*
D03*
X53045Y131890D02*
D03*
X76926Y153543D02*
D03*
X117280Y161417D02*
D03*
X73973Y125984D02*
D03*
X110391Y161417D02*
D03*
X66099Y116141D02*
D03*
X87305Y106836D02*
D03*
X124170Y161417D02*
D03*
X66099Y132874D02*
D03*
X62992Y303773D02*
D03*
X96611Y86614D02*
D03*
X210462Y102425D02*
D03*
X251969Y139764D02*
D03*
X177165Y108268D02*
D03*
X183071Y122047D02*
D03*
X241732Y138189D02*
D03*
X257874Y66929D02*
D03*
X212598Y39370D02*
D03*
X159449Y41339D02*
D03*
X141732Y33465D02*
D03*
M02*
