G04*
G04 #@! TF.GenerationSoftware,Altium Limited,Altium Designer,19.1.5 (86)*
G04*
G04 Layer_Color=16711935*
%FSLAX25Y25*%
%MOIN*%
G70*
G01*
G75*
G04:AMPARAMS|DCode=20|XSize=31.62mil|YSize=47.37mil|CornerRadius=6.95mil|HoleSize=0mil|Usage=FLASHONLY|Rotation=0.000|XOffset=0mil|YOffset=0mil|HoleType=Round|Shape=RoundedRectangle|*
%AMROUNDEDRECTD20*
21,1,0.03162,0.03347,0,0,0.0*
21,1,0.01772,0.04737,0,0,0.0*
1,1,0.01391,0.00886,-0.01673*
1,1,0.01391,-0.00886,-0.01673*
1,1,0.01391,-0.00886,0.01673*
1,1,0.01391,0.00886,0.01673*
%
%ADD20ROUNDEDRECTD20*%
G04:AMPARAMS|DCode=21|XSize=78.87mil|YSize=59.18mil|CornerRadius=10.4mil|HoleSize=0mil|Usage=FLASHONLY|Rotation=180.000|XOffset=0mil|YOffset=0mil|HoleType=Round|Shape=RoundedRectangle|*
%AMROUNDEDRECTD21*
21,1,0.07887,0.03839,0,0,180.0*
21,1,0.05807,0.05918,0,0,180.0*
1,1,0.02080,-0.02904,0.01919*
1,1,0.02080,0.02904,0.01919*
1,1,0.02080,0.02904,-0.01919*
1,1,0.02080,-0.02904,-0.01919*
%
%ADD21ROUNDEDRECTD21*%
%ADD43O,0.08674X0.40170*%
%ADD44C,0.06800*%
%ADD45C,0.13398*%
%ADD46R,0.06800X0.06800*%
%ADD47C,0.07887*%
%ADD48O,0.20485X0.10642*%
%ADD49C,0.04737*%
%ADD50R,0.04737X0.04737*%
%ADD51C,0.06312*%
%ADD52C,0.08674*%
%ADD53C,0.06706*%
%ADD54R,0.06706X0.06706*%
%ADD55C,0.22453*%
%ADD56C,0.05800*%
D20*
X32480Y318504D02*
D03*
X28740Y309449D02*
D03*
X36220D02*
D03*
D21*
X32480Y340354D02*
D03*
Y328937D02*
D03*
D43*
X39370Y47244D02*
D03*
X295276D02*
D03*
D44*
X292461Y137795D02*
D03*
X262657D02*
D03*
X332835Y282716D02*
D03*
X332752Y272716D02*
D03*
X332835Y262717D02*
D03*
X332752Y252716D02*
D03*
X12126Y202716D02*
D03*
Y212717D02*
D03*
Y222716D02*
D03*
Y232716D02*
D03*
Y242717D02*
D03*
Y252716D02*
D03*
Y262717D02*
D03*
Y272716D02*
D03*
Y282716D02*
D03*
Y292717D02*
D03*
Y302716D02*
D03*
Y312717D02*
D03*
Y322716D02*
D03*
X277559Y47402D02*
D03*
D45*
X331024Y181102D02*
D03*
Y354331D02*
D03*
X31496Y181102D02*
D03*
Y354331D02*
D03*
X283465Y339567D02*
D03*
D46*
X12126Y332716D02*
D03*
D47*
X261575Y93177D02*
D03*
X271575D02*
D03*
X281575D02*
D03*
X291575D02*
D03*
X301575Y232677D02*
D03*
X291575D02*
D03*
X281575D02*
D03*
X271575D02*
D03*
X261575D02*
D03*
X251575D02*
D03*
X268465Y250984D02*
D03*
X288465D02*
D03*
X298465D02*
D03*
X278465D02*
D03*
X122047Y328898D02*
D03*
Y318898D02*
D03*
Y298898D02*
D03*
Y288898D02*
D03*
Y308898D02*
D03*
X237047Y298898D02*
D03*
Y308898D02*
D03*
Y318898D02*
D03*
Y288898D02*
D03*
D48*
X134843Y254724D02*
D03*
Y94488D02*
D03*
D49*
X61476Y205945D02*
D03*
Y210945D02*
D03*
Y215945D02*
D03*
Y220945D02*
D03*
X66476Y205945D02*
D03*
Y210945D02*
D03*
Y215945D02*
D03*
Y220945D02*
D03*
Y225945D02*
D03*
D50*
X61476D02*
D03*
D51*
X94685Y276772D02*
D03*
Y264567D02*
D03*
X82480D02*
D03*
Y276772D02*
D03*
D52*
X56102Y326772D02*
D03*
X61580Y339995D02*
D03*
X88027D02*
D03*
X93504Y326772D02*
D03*
X88027Y313548D02*
D03*
X61580D02*
D03*
D53*
X13934Y91850D02*
D03*
Y81850D02*
D03*
Y71850D02*
D03*
Y61850D02*
D03*
Y51850D02*
D03*
X277559Y37402D02*
D03*
Y27402D02*
D03*
D54*
X13934Y41850D02*
D03*
D55*
X19685Y19685D02*
D03*
X326772D02*
D03*
D56*
X117522Y65647D02*
D03*
X41339Y82677D02*
D03*
X64961D02*
D03*
X62992Y30512D02*
D03*
X40354Y243110D02*
D03*
Y212598D02*
D03*
X157210Y67913D02*
D03*
X135827Y57087D02*
D03*
X250984Y57087D02*
D03*
X26378Y143701D02*
D03*
X41732Y156693D02*
D03*
X35827Y151181D02*
D03*
X244488Y28346D02*
D03*
X79724Y185039D02*
D03*
X237621Y119277D02*
D03*
X52165Y55118D02*
D03*
X313976Y64961D02*
D03*
X47244Y237205D02*
D03*
X13780Y193898D02*
D03*
X20669Y192913D02*
D03*
X53150Y190945D02*
D03*
X112205Y185039D02*
D03*
X267717Y155512D02*
D03*
X174213Y75295D02*
D03*
Y88583D02*
D03*
X135433Y192913D02*
D03*
X90945Y225984D02*
D03*
X132874Y185039D02*
D03*
X101378Y254921D02*
D03*
X92520Y180118D02*
D03*
X124016Y264764D02*
D03*
X103347Y176181D02*
D03*
X110236D02*
D03*
X117126D02*
D03*
X124015Y176181D02*
D03*
X60039Y151575D02*
D03*
X69882Y185039D02*
D03*
X193130Y145453D02*
D03*
X50197Y269685D02*
D03*
X75787Y270079D02*
D03*
X104331Y8858D02*
D03*
X142717Y158465D02*
D03*
X112540Y123031D02*
D03*
X109252Y130905D02*
D03*
X119095Y140748D02*
D03*
X114173Y135827D02*
D03*
X134843Y145334D02*
D03*
X233268Y163386D02*
D03*
X226378Y177165D02*
D03*
X226378Y163386D02*
D03*
X41339Y272638D02*
D03*
X24946Y97504D02*
D03*
X47244Y299213D02*
D03*
X28543Y287402D02*
D03*
X65945Y98442D02*
D03*
X233268Y177165D02*
D03*
X47244Y71850D02*
D03*
X83816Y156884D02*
D03*
X33619Y101378D02*
D03*
X109406Y153543D02*
D03*
X53045Y131890D02*
D03*
X76926Y153543D02*
D03*
X117280Y161417D02*
D03*
X73973Y125984D02*
D03*
X110391Y161417D02*
D03*
X66099Y116141D02*
D03*
X87305Y106836D02*
D03*
X124170Y161417D02*
D03*
X66099Y132874D02*
D03*
X62992Y303773D02*
D03*
X96611Y86614D02*
D03*
X210462Y102425D02*
D03*
X251969Y139764D02*
D03*
X177165Y108268D02*
D03*
X183071Y122047D02*
D03*
X241732Y138189D02*
D03*
X257874Y66929D02*
D03*
X212598Y39370D02*
D03*
X159449Y41339D02*
D03*
X141732Y33465D02*
D03*
M02*
