G04*
G04 #@! TF.GenerationSoftware,Altium Limited,Altium Designer,19.1.5 (86)*
G04*
G04 Layer_Color=8388736*
%FSLAX25Y25*%
%MOIN*%
G70*
G01*
G75*
%ADD16R,0.04724X0.08000*%
G04:AMPARAMS|DCode=17|XSize=78.87mil|YSize=59.18mil|CornerRadius=10.4mil|HoleSize=0mil|Usage=FLASHONLY|Rotation=270.000|XOffset=0mil|YOffset=0mil|HoleType=Round|Shape=RoundedRectangle|*
%AMROUNDEDRECTD17*
21,1,0.07887,0.03839,0,0,270.0*
21,1,0.05807,0.05918,0,0,270.0*
1,1,0.02080,-0.01919,-0.02904*
1,1,0.02080,-0.01919,0.02904*
1,1,0.02080,0.01919,0.02904*
1,1,0.02080,0.01919,-0.02904*
%
%ADD17ROUNDEDRECTD17*%
G04:AMPARAMS|DCode=18|XSize=31.62mil|YSize=47.37mil|CornerRadius=6.95mil|HoleSize=0mil|Usage=FLASHONLY|Rotation=90.000|XOffset=0mil|YOffset=0mil|HoleType=Round|Shape=RoundedRectangle|*
%AMROUNDEDRECTD18*
21,1,0.03162,0.03347,0,0,90.0*
21,1,0.01772,0.04737,0,0,90.0*
1,1,0.01391,0.01673,0.00886*
1,1,0.01391,0.01673,-0.00886*
1,1,0.01391,-0.01673,-0.00886*
1,1,0.01391,-0.01673,0.00886*
%
%ADD18ROUNDEDRECTD18*%
G04:AMPARAMS|DCode=19|XSize=63.12mil|YSize=47.37mil|CornerRadius=8.92mil|HoleSize=0mil|Usage=FLASHONLY|Rotation=0.000|XOffset=0mil|YOffset=0mil|HoleType=Round|Shape=RoundedRectangle|*
%AMROUNDEDRECTD19*
21,1,0.06312,0.02953,0,0,0.0*
21,1,0.04528,0.04737,0,0,0.0*
1,1,0.01784,0.02264,-0.01476*
1,1,0.01784,-0.02264,-0.01476*
1,1,0.01784,-0.02264,0.01476*
1,1,0.01784,0.02264,0.01476*
%
%ADD19ROUNDEDRECTD19*%
G04:AMPARAMS|DCode=20|XSize=31.62mil|YSize=47.37mil|CornerRadius=6.95mil|HoleSize=0mil|Usage=FLASHONLY|Rotation=0.000|XOffset=0mil|YOffset=0mil|HoleType=Round|Shape=RoundedRectangle|*
%AMROUNDEDRECTD20*
21,1,0.03162,0.03347,0,0,0.0*
21,1,0.01772,0.04737,0,0,0.0*
1,1,0.01391,0.00886,-0.01673*
1,1,0.01391,-0.00886,-0.01673*
1,1,0.01391,-0.00886,0.01673*
1,1,0.01391,0.00886,0.01673*
%
%ADD20ROUNDEDRECTD20*%
G04:AMPARAMS|DCode=21|XSize=78.87mil|YSize=59.18mil|CornerRadius=10.4mil|HoleSize=0mil|Usage=FLASHONLY|Rotation=180.000|XOffset=0mil|YOffset=0mil|HoleType=Round|Shape=RoundedRectangle|*
%AMROUNDEDRECTD21*
21,1,0.07887,0.03839,0,0,180.0*
21,1,0.05807,0.05918,0,0,180.0*
1,1,0.02080,-0.02904,0.01919*
1,1,0.02080,0.02904,0.01919*
1,1,0.02080,0.02904,-0.01919*
1,1,0.02080,-0.02904,-0.01919*
%
%ADD21ROUNDEDRECTD21*%
G04:AMPARAMS|DCode=22|XSize=47.37mil|YSize=31.62mil|CornerRadius=9.91mil|HoleSize=0mil|Usage=FLASHONLY|Rotation=0.000|XOffset=0mil|YOffset=0mil|HoleType=Round|Shape=RoundedRectangle|*
%AMROUNDEDRECTD22*
21,1,0.04737,0.01181,0,0,0.0*
21,1,0.02756,0.03162,0,0,0.0*
1,1,0.01981,0.01378,-0.00591*
1,1,0.01981,-0.01378,-0.00591*
1,1,0.01981,-0.01378,0.00591*
1,1,0.01981,0.01378,0.00591*
%
%ADD22ROUNDEDRECTD22*%
G04:AMPARAMS|DCode=23|XSize=27.69mil|YSize=106.42mil|CornerRadius=0mil|HoleSize=0mil|Usage=FLASHONLY|Rotation=225.000|XOffset=0mil|YOffset=0mil|HoleType=Round|Shape=Rectangle|*
%AMROTATEDRECTD23*
4,1,4,-0.02784,0.04742,0.04742,-0.02784,0.02784,-0.04742,-0.04742,0.02784,-0.02784,0.04742,0.0*
%
%ADD23ROTATEDRECTD23*%

G04:AMPARAMS|DCode=24|XSize=27.69mil|YSize=70.99mil|CornerRadius=0mil|HoleSize=0mil|Usage=FLASHONLY|Rotation=225.000|XOffset=0mil|YOffset=0mil|HoleType=Round|Shape=Rectangle|*
%AMROTATEDRECTD24*
4,1,4,-0.01531,0.03489,0.03489,-0.01531,0.01531,-0.03489,-0.03489,0.01531,-0.01531,0.03489,0.0*
%
%ADD24ROTATEDRECTD24*%

G04:AMPARAMS|DCode=25|XSize=63.12mil|YSize=47.37mil|CornerRadius=8.92mil|HoleSize=0mil|Usage=FLASHONLY|Rotation=135.000|XOffset=0mil|YOffset=0mil|HoleType=Round|Shape=RoundedRectangle|*
%AMROUNDEDRECTD25*
21,1,0.06312,0.02953,0,0,135.0*
21,1,0.04528,0.04737,0,0,135.0*
1,1,0.01784,-0.00557,0.02645*
1,1,0.01784,0.02645,-0.00557*
1,1,0.01784,0.00557,-0.02645*
1,1,0.01784,-0.02645,0.00557*
%
%ADD25ROUNDEDRECTD25*%
%ADD26R,0.10642X0.02769*%
%ADD27R,0.07099X0.02769*%
G04:AMPARAMS|DCode=28|XSize=58mil|YSize=58mil|CornerRadius=10.25mil|HoleSize=0mil|Usage=FLASHONLY|Rotation=90.000|XOffset=0mil|YOffset=0mil|HoleType=Round|Shape=RoundedRectangle|*
%AMROUNDEDRECTD28*
21,1,0.05800,0.03750,0,0,90.0*
21,1,0.03750,0.05800,0,0,90.0*
1,1,0.02050,0.01875,0.01875*
1,1,0.02050,0.01875,-0.01875*
1,1,0.02050,-0.01875,-0.01875*
1,1,0.02050,-0.01875,0.01875*
%
%ADD28ROUNDEDRECTD28*%
G04:AMPARAMS|DCode=29|XSize=25.72mil|YSize=72.96mil|CornerRadius=8.43mil|HoleSize=0mil|Usage=FLASHONLY|Rotation=315.000|XOffset=0mil|YOffset=0mil|HoleType=Round|Shape=RoundedRectangle|*
%AMROUNDEDRECTD29*
21,1,0.02572,0.05610,0,0,315.0*
21,1,0.00886,0.07296,0,0,315.0*
1,1,0.01686,-0.01670,-0.02297*
1,1,0.01686,-0.02297,-0.01670*
1,1,0.01686,0.01670,0.02297*
1,1,0.01686,0.02297,0.01670*
%
%ADD29ROUNDEDRECTD29*%
G04:AMPARAMS|DCode=30|XSize=25.72mil|YSize=72.96mil|CornerRadius=8.43mil|HoleSize=0mil|Usage=FLASHONLY|Rotation=45.000|XOffset=0mil|YOffset=0mil|HoleType=Round|Shape=RoundedRectangle|*
%AMROUNDEDRECTD30*
21,1,0.02572,0.05610,0,0,45.0*
21,1,0.00886,0.07296,0,0,45.0*
1,1,0.01686,0.02297,-0.01670*
1,1,0.01686,0.01670,-0.02297*
1,1,0.01686,-0.02297,0.01670*
1,1,0.01686,-0.01670,0.02297*
%
%ADD30ROUNDEDRECTD30*%
G04:AMPARAMS|DCode=31|XSize=78.87mil|YSize=53.28mil|CornerRadius=9.66mil|HoleSize=0mil|Usage=FLASHONLY|Rotation=0.000|XOffset=0mil|YOffset=0mil|HoleType=Round|Shape=RoundedRectangle|*
%AMROUNDEDRECTD31*
21,1,0.07887,0.03396,0,0,0.0*
21,1,0.05955,0.05328,0,0,0.0*
1,1,0.01932,0.02977,-0.01698*
1,1,0.01932,-0.02977,-0.01698*
1,1,0.01932,-0.02977,0.01698*
1,1,0.01932,0.02977,0.01698*
%
%ADD31ROUNDEDRECTD31*%
%ADD32R,0.08280X0.08280*%
%ADD33R,0.04737X0.05918*%
%ADD34R,0.06115X0.02375*%
%ADD35O,0.06706X0.02375*%
G04:AMPARAMS|DCode=36|XSize=58mil|YSize=58mil|CornerRadius=10.25mil|HoleSize=0mil|Usage=FLASHONLY|Rotation=0.000|XOffset=0mil|YOffset=0mil|HoleType=Round|Shape=RoundedRectangle|*
%AMROUNDEDRECTD36*
21,1,0.05800,0.03750,0,0,0.0*
21,1,0.03750,0.05800,0,0,0.0*
1,1,0.02050,0.01875,-0.01875*
1,1,0.02050,-0.01875,-0.01875*
1,1,0.02050,-0.01875,0.01875*
1,1,0.02050,0.01875,0.01875*
%
%ADD36ROUNDEDRECTD36*%
%ADD37O,0.03162X0.07099*%
G04:AMPARAMS|DCode=38|XSize=31.62mil|YSize=35.56mil|CornerRadius=6.95mil|HoleSize=0mil|Usage=FLASHONLY|Rotation=0.000|XOffset=0mil|YOffset=0mil|HoleType=Round|Shape=RoundedRectangle|*
%AMROUNDEDRECTD38*
21,1,0.03162,0.02165,0,0,0.0*
21,1,0.01772,0.03556,0,0,0.0*
1,1,0.01391,0.00886,-0.01083*
1,1,0.01391,-0.00886,-0.01083*
1,1,0.01391,-0.00886,0.01083*
1,1,0.01391,0.00886,0.01083*
%
%ADD38ROUNDEDRECTD38*%
G04:AMPARAMS|DCode=39|XSize=78.87mil|YSize=53.28mil|CornerRadius=9.66mil|HoleSize=0mil|Usage=FLASHONLY|Rotation=90.000|XOffset=0mil|YOffset=0mil|HoleType=Round|Shape=RoundedRectangle|*
%AMROUNDEDRECTD39*
21,1,0.07887,0.03396,0,0,90.0*
21,1,0.05955,0.05328,0,0,90.0*
1,1,0.01932,0.01698,0.02977*
1,1,0.01932,0.01698,-0.02977*
1,1,0.01932,-0.01698,-0.02977*
1,1,0.01932,-0.01698,0.02977*
%
%ADD39ROUNDEDRECTD39*%
G04:AMPARAMS|DCode=40|XSize=63.12mil|YSize=47.37mil|CornerRadius=8.92mil|HoleSize=0mil|Usage=FLASHONLY|Rotation=90.000|XOffset=0mil|YOffset=0mil|HoleType=Round|Shape=RoundedRectangle|*
%AMROUNDEDRECTD40*
21,1,0.06312,0.02953,0,0,90.0*
21,1,0.04528,0.04737,0,0,90.0*
1,1,0.01784,0.01476,0.02264*
1,1,0.01784,0.01476,-0.02264*
1,1,0.01784,-0.01476,-0.02264*
1,1,0.01784,-0.01476,0.02264*
%
%ADD40ROUNDEDRECTD40*%
G04:AMPARAMS|DCode=41|XSize=123mil|YSize=118mil|CornerRadius=17.75mil|HoleSize=0mil|Usage=FLASHONLY|Rotation=180.000|XOffset=0mil|YOffset=0mil|HoleType=Round|Shape=RoundedRectangle|*
%AMROUNDEDRECTD41*
21,1,0.12300,0.08250,0,0,180.0*
21,1,0.08750,0.11800,0,0,180.0*
1,1,0.03550,-0.04375,0.04125*
1,1,0.03550,0.04375,0.04125*
1,1,0.03550,0.04375,-0.04125*
1,1,0.03550,-0.04375,-0.04125*
%
%ADD41ROUNDEDRECTD41*%
G04:AMPARAMS|DCode=42|XSize=78.87mil|YSize=31.62mil|CornerRadius=9.91mil|HoleSize=0mil|Usage=FLASHONLY|Rotation=0.000|XOffset=0mil|YOffset=0mil|HoleType=Round|Shape=RoundedRectangle|*
%AMROUNDEDRECTD42*
21,1,0.07887,0.01181,0,0,0.0*
21,1,0.05906,0.03162,0,0,0.0*
1,1,0.01981,0.02953,-0.00591*
1,1,0.01981,-0.02953,-0.00591*
1,1,0.01981,-0.02953,0.00591*
1,1,0.01981,0.02953,0.00591*
%
%ADD42ROUNDEDRECTD42*%
%ADD43O,0.08674X0.40170*%
%ADD44C,0.06800*%
%ADD45C,0.13398*%
%ADD46R,0.06800X0.06800*%
%ADD47C,0.07887*%
%ADD48O,0.20485X0.10642*%
%ADD49C,0.04737*%
%ADD50R,0.04737X0.04737*%
%ADD51C,0.06312*%
%ADD52C,0.08674*%
%ADD53C,0.06706*%
%ADD54R,0.06706X0.06706*%
%ADD55C,0.22453*%
%ADD56C,0.05800*%
D16*
X82283Y55118D02*
D03*
X59449D02*
D03*
D17*
X160630Y140748D02*
D03*
X172047D02*
D03*
X160630Y128937D02*
D03*
X172047D02*
D03*
X104528Y264764D02*
D03*
X115945D02*
D03*
X273819Y59055D02*
D03*
X285236D02*
D03*
X67716Y235236D02*
D03*
X56299D02*
D03*
X75590Y176181D02*
D03*
X64173D02*
D03*
X33268Y325787D02*
D03*
X21850D02*
D03*
Y315945D02*
D03*
X33268D02*
D03*
Y306102D02*
D03*
X21850D02*
D03*
X41535Y306102D02*
D03*
X52953D02*
D03*
X42520Y292323D02*
D03*
X53937D02*
D03*
X33268Y292323D02*
D03*
X21850D02*
D03*
X33268Y282480D02*
D03*
X21850D02*
D03*
X42520Y282480D02*
D03*
X53937D02*
D03*
X21850Y272638D02*
D03*
X33268D02*
D03*
X21850Y252953D02*
D03*
X33268D02*
D03*
Y243110D02*
D03*
X21850D02*
D03*
Y233268D02*
D03*
X33268D02*
D03*
Y222441D02*
D03*
X21850D02*
D03*
X33268Y212598D02*
D03*
X21850D02*
D03*
X33268Y202756D02*
D03*
X21850D02*
D03*
X41535Y202756D02*
D03*
X52953D02*
D03*
X248819Y111221D02*
D03*
X237402D02*
D03*
X63189Y21654D02*
D03*
X74606D02*
D03*
X136614Y66929D02*
D03*
X125197D02*
D03*
X173425Y53150D02*
D03*
X184843D02*
D03*
X179331Y21654D02*
D03*
X190748D02*
D03*
X212402Y21654D02*
D03*
X200984D02*
D03*
X222638Y21654D02*
D03*
X234055D02*
D03*
X222638Y33465D02*
D03*
X234055D02*
D03*
X265945Y15748D02*
D03*
X277362D02*
D03*
D18*
X95866Y246063D02*
D03*
X104921Y249803D02*
D03*
Y242323D02*
D03*
X154921Y56890D02*
D03*
Y49409D02*
D03*
X163976Y53150D02*
D03*
X255315Y62795D02*
D03*
Y55315D02*
D03*
X264370Y59055D02*
D03*
X256299Y110039D02*
D03*
Y102559D02*
D03*
X265354Y106299D02*
D03*
X233465Y47244D02*
D03*
Y43504D02*
D03*
X223228Y50984D02*
D03*
Y47244D02*
D03*
Y43504D02*
D03*
X233465Y50984D02*
D03*
X79921Y35433D02*
D03*
Y31693D02*
D03*
X69685Y39173D02*
D03*
Y35433D02*
D03*
Y31693D02*
D03*
X79921Y39173D02*
D03*
D19*
X236221Y138189D02*
D03*
Y145276D02*
D03*
X188976Y122441D02*
D03*
Y129528D02*
D03*
X96457Y41732D02*
D03*
Y48819D02*
D03*
X138779Y50787D02*
D03*
Y43701D02*
D03*
D20*
X272047Y68898D02*
D03*
X279528D02*
D03*
X275787Y77953D02*
D03*
X175000Y41929D02*
D03*
X167520D02*
D03*
X171260Y32874D02*
D03*
X183268D02*
D03*
X190748D02*
D03*
X187008Y41929D02*
D03*
D21*
X73973Y90354D02*
D03*
Y78937D02*
D03*
X155512Y100197D02*
D03*
Y88779D02*
D03*
X166339Y88976D02*
D03*
Y100394D02*
D03*
X96457Y56299D02*
D03*
Y67716D02*
D03*
X125984Y13976D02*
D03*
Y25394D02*
D03*
X114173Y13976D02*
D03*
Y25394D02*
D03*
X146653Y67716D02*
D03*
Y56299D02*
D03*
D22*
X65115Y76476D02*
D03*
Y90847D02*
D03*
X41493Y76476D02*
D03*
Y90847D02*
D03*
D23*
X34295Y140440D02*
D03*
X29006Y135151D02*
D03*
D24*
X31650Y137795D02*
D03*
D25*
X45967Y151128D02*
D03*
X40956Y146116D02*
D03*
X81400Y106836D02*
D03*
X76389Y101825D02*
D03*
D26*
X187008Y112008D02*
D03*
Y104528D02*
D03*
D27*
Y108268D02*
D03*
D28*
X155512Y109439D02*
D03*
Y116939D02*
D03*
X166339Y109439D02*
D03*
Y116939D02*
D03*
D29*
X65549Y145945D02*
D03*
X67776Y143718D02*
D03*
X70003Y141490D02*
D03*
X72230Y139263D02*
D03*
X74457Y137036D02*
D03*
X76684Y134809D02*
D03*
X78911Y132582D02*
D03*
X81138Y130355D02*
D03*
X56807Y106024D02*
D03*
X54580Y108251D02*
D03*
X52353Y110478D02*
D03*
X50126Y112705D02*
D03*
X47899Y114932D02*
D03*
X45672Y117159D02*
D03*
X43445Y119386D02*
D03*
X41217Y121614D02*
D03*
D30*
X81138D02*
D03*
X78911Y119386D02*
D03*
X76684Y117159D02*
D03*
X74457Y114932D02*
D03*
X72230Y112705D02*
D03*
X70003Y110478D02*
D03*
X67776Y108251D02*
D03*
X65549Y106024D02*
D03*
X41217Y130355D02*
D03*
X43445Y132582D02*
D03*
X45672Y134809D02*
D03*
X47899Y137036D02*
D03*
X50126Y139263D02*
D03*
X52353Y141490D02*
D03*
X54580Y143718D02*
D03*
X56807Y145945D02*
D03*
D31*
X244094Y35433D02*
D03*
Y47244D02*
D03*
D32*
X332039Y75000D02*
D03*
Y43110D02*
D03*
D33*
X323177Y71653D02*
D03*
Y46457D02*
D03*
D34*
X321504Y64173D02*
D03*
Y61614D02*
D03*
Y59055D02*
D03*
Y56496D02*
D03*
Y53937D02*
D03*
D35*
X82284Y51279D02*
D03*
Y53839D02*
D03*
Y56398D02*
D03*
Y58957D02*
D03*
X59449Y51279D02*
D03*
Y53839D02*
D03*
Y56398D02*
D03*
Y58957D02*
D03*
D36*
X137982Y25591D02*
D03*
X145482D02*
D03*
X137982Y13780D02*
D03*
X145482D02*
D03*
X253750Y15748D02*
D03*
X246250D02*
D03*
D37*
X112579Y36614D02*
D03*
X117579D02*
D03*
X122579D02*
D03*
X127579D02*
D03*
X112579Y57874D02*
D03*
X117579D02*
D03*
X122579D02*
D03*
X127579D02*
D03*
D38*
X174213Y64961D02*
D03*
X184055D02*
D03*
X203740Y47244D02*
D03*
X213583D02*
D03*
D39*
X212598Y33465D02*
D03*
X200787D02*
D03*
D40*
X241732Y129921D02*
D03*
X234646D02*
D03*
D41*
X244659Y76772D02*
D03*
X204159D02*
D03*
D42*
X224298Y110453D02*
D03*
Y115453D02*
D03*
Y120453D02*
D03*
Y125453D02*
D03*
Y130453D02*
D03*
Y135453D02*
D03*
Y140453D02*
D03*
Y145453D02*
D03*
X200898Y110453D02*
D03*
Y115453D02*
D03*
Y120453D02*
D03*
Y125453D02*
D03*
Y130453D02*
D03*
Y135453D02*
D03*
Y140453D02*
D03*
Y145453D02*
D03*
D43*
X39370Y47244D02*
D03*
X295276D02*
D03*
D44*
X292461Y137795D02*
D03*
X262657D02*
D03*
X332835Y282716D02*
D03*
X332752Y272716D02*
D03*
X332835Y262717D02*
D03*
X332752Y252716D02*
D03*
X12126Y202716D02*
D03*
Y212717D02*
D03*
Y222716D02*
D03*
Y232716D02*
D03*
Y242717D02*
D03*
Y252716D02*
D03*
Y262717D02*
D03*
Y272716D02*
D03*
Y282716D02*
D03*
Y292717D02*
D03*
Y302716D02*
D03*
Y312717D02*
D03*
Y322716D02*
D03*
X277559Y47402D02*
D03*
D45*
X331024Y181102D02*
D03*
Y354331D02*
D03*
X31496Y181102D02*
D03*
Y354331D02*
D03*
X283465Y339567D02*
D03*
D46*
X12126Y332716D02*
D03*
D47*
X261575Y93177D02*
D03*
X271575D02*
D03*
X281575D02*
D03*
X291575D02*
D03*
X301575Y232677D02*
D03*
X291575D02*
D03*
X281575D02*
D03*
X271575D02*
D03*
X261575D02*
D03*
X251575D02*
D03*
X268465Y250984D02*
D03*
X288465D02*
D03*
X298465D02*
D03*
X278465D02*
D03*
X122047Y328898D02*
D03*
Y318898D02*
D03*
Y298898D02*
D03*
Y288898D02*
D03*
Y308898D02*
D03*
X237047Y298898D02*
D03*
Y308898D02*
D03*
Y318898D02*
D03*
Y288898D02*
D03*
D48*
X134843Y254724D02*
D03*
Y94488D02*
D03*
D49*
X61476Y205945D02*
D03*
Y210945D02*
D03*
Y215945D02*
D03*
Y220945D02*
D03*
X66476Y205945D02*
D03*
Y210945D02*
D03*
Y215945D02*
D03*
Y220945D02*
D03*
Y225945D02*
D03*
D50*
X61476D02*
D03*
D51*
X94685Y276772D02*
D03*
Y264567D02*
D03*
X82480D02*
D03*
Y276772D02*
D03*
D52*
X56102Y326772D02*
D03*
X61580Y339995D02*
D03*
X88027D02*
D03*
X93504Y326772D02*
D03*
X88027Y313548D02*
D03*
X61580D02*
D03*
D53*
X13934Y91850D02*
D03*
Y81850D02*
D03*
Y71850D02*
D03*
Y61850D02*
D03*
Y51850D02*
D03*
X277559Y37402D02*
D03*
Y27402D02*
D03*
D54*
X13934Y41850D02*
D03*
D55*
X19685Y19685D02*
D03*
X326772D02*
D03*
D56*
X117522Y65647D02*
D03*
X41339Y82677D02*
D03*
X64961D02*
D03*
X62992Y30512D02*
D03*
X40354Y243110D02*
D03*
Y212598D02*
D03*
X157210Y67913D02*
D03*
X135827Y57087D02*
D03*
X250984Y57087D02*
D03*
X26378Y143701D02*
D03*
X41732Y156693D02*
D03*
X35827Y151181D02*
D03*
X244488Y28346D02*
D03*
X79724Y185039D02*
D03*
X237621Y119277D02*
D03*
X52165Y55118D02*
D03*
X313976Y64961D02*
D03*
X47244Y237205D02*
D03*
X13780Y193898D02*
D03*
X20669Y192913D02*
D03*
X53150Y190945D02*
D03*
X112205Y185039D02*
D03*
X267717Y155512D02*
D03*
X174213Y75295D02*
D03*
Y88583D02*
D03*
X135433Y192913D02*
D03*
X90945Y225984D02*
D03*
X132874Y185039D02*
D03*
X101378Y254921D02*
D03*
X92520Y180118D02*
D03*
X124016Y264764D02*
D03*
X103347Y176181D02*
D03*
X110236D02*
D03*
X117126D02*
D03*
X124015Y176181D02*
D03*
X60039Y151575D02*
D03*
X69882Y185039D02*
D03*
X193130Y145453D02*
D03*
X50197Y269685D02*
D03*
X75787Y270079D02*
D03*
X104331Y8858D02*
D03*
X142717Y158465D02*
D03*
X112540Y123031D02*
D03*
X109252Y130905D02*
D03*
X119095Y140748D02*
D03*
X114173Y135827D02*
D03*
X134843Y145334D02*
D03*
X233268Y163386D02*
D03*
X226378Y177165D02*
D03*
X226378Y163386D02*
D03*
X41339Y272638D02*
D03*
X24946Y97504D02*
D03*
X47244Y299213D02*
D03*
X28543Y287402D02*
D03*
X65945Y98442D02*
D03*
X233268Y177165D02*
D03*
X47244Y71850D02*
D03*
X83816Y156884D02*
D03*
X33619Y101378D02*
D03*
X109406Y153543D02*
D03*
X53045Y131890D02*
D03*
X76926Y153543D02*
D03*
X117280Y161417D02*
D03*
X73973Y125984D02*
D03*
X110391Y161417D02*
D03*
X66099Y116141D02*
D03*
X87305Y106836D02*
D03*
X124170Y161417D02*
D03*
X66099Y132874D02*
D03*
X62992Y303773D02*
D03*
X96611Y86614D02*
D03*
X210462Y102425D02*
D03*
X251969Y139764D02*
D03*
X177165Y108268D02*
D03*
X183071Y122047D02*
D03*
X241732Y138189D02*
D03*
X257874Y66929D02*
D03*
X212598Y39370D02*
D03*
X159449Y41339D02*
D03*
X141732Y33465D02*
D03*
M02*
