M48
;Layer_Color=9474304
;FILE_FORMAT=2:4
INCH,TZ
;TYPE=PLATED
T1F00S00C0.0276
T2F00S00C0.0280
T3F00S00C0.0300
T4F00S00C0.0354
T5F00S00C0.0394
T7F00S00C0.0472
T8F00S00C0.1260
;TYPE=NON_PLATED
T10F00S00C0.1260
%
T01
X6148Y20594
Y21094
X6648
Y20594
Y21594
X6148
Y22094
Y22594
X6648
Y22094
X8248Y26457
X9469
Y27677
X8248
T02
X5217Y5512
X6299Y3051
X10433Y886
X14173Y3346
X15945Y4134
X21260Y3937
X24449Y2835
X25098Y5709
X25787Y6693
X31398Y6496
X23762Y11928
X24173Y13819
X25197Y13976
X26772Y15551
X23327Y16339
X22638
X22638Y17716
X23327Y17717
X19313Y14545
X18307Y12205
X17717Y10827
X17421Y8858
Y7530
X15721Y6791
X13583Y5709
X11752Y6565
X9661Y8661
X8731Y10684
X6594Y9844
X6496Y8268
X6610Y11614
X6610Y13287
X7397Y12598
X7693Y15354
X8382Y15688
X10941Y15354
X11039Y16142
X11728
X12417
X12402Y17618
X11713Y17618
X11024
X10335
X9252Y18012
X7972Y18504
X6988
X11220
X13287
X13543Y19291
X14272Y15846
X13484Y14533
X11909Y14075
X11417Y13583
X10925Y13091
X11254Y12303
X6004Y15157
X21046Y10243
X3362Y10138
X2495Y9750
X4134Y8268
X4724Y7185
X5305Y13189
X4173Y15669
X3583Y15118
X2638Y14370
X2067Y19291
X1378Y19390
X5315Y19094
X4035Y21260
Y24311
X4724Y23720
X5020Y26969
X4134Y27264
X2854Y28740
X4724Y29921
X6299Y30377
X7579Y27008
X10138Y25492
X12402Y26476
X9094Y22598
T03
X27756Y4740
X29246Y13780
X26266
X1213Y20272
Y21272
Y22272
Y23272
Y24272
Y25272
Y26272
Y27272
Y28272
Y29272
Y30272
Y31272
Y32272
Y33272
X33283Y28272
X33275Y27272
X33283Y26272
X33275Y25272
T04
X1393Y4185
Y5185
X27756Y3740
Y2740
X1393Y6185
Y7185
Y8185
Y9185
T05
X26157Y9318
X27157
X28157
X29157
X12205Y28890
Y29890
Y30890
Y31890
Y32890
X23705Y31890
Y30890
Y29890
Y28890
X26846Y25098
X27846
X28846
X29846
X30157Y23268
X29157
X28157
X27157
X26157
X25157
T07
X5610Y32677
X6158Y34000
X8803
X9350Y32677
X8803Y31355
X6158
T08
X1969Y1969
X32677
T10
X33102Y18110
X3150
Y35433
X28346Y33957
X33102Y35433
M30
